G04 #@! TF.GenerationSoftware,KiCad,Pcbnew,5.1.6-c6e7f7d~87~ubuntu20.04.1*
G04 #@! TF.CreationDate,2020-09-27T20:16:03-04:00*
G04 #@! TF.ProjectId,Suboscillator,5375626f-7363-4696-9c6c-61746f722e6b,rev?*
G04 #@! TF.SameCoordinates,Original*
G04 #@! TF.FileFunction,Copper,L2,Bot*
G04 #@! TF.FilePolarity,Positive*
%FSLAX46Y46*%
G04 Gerber Fmt 4.6, Leading zero omitted, Abs format (unit mm)*
G04 Created by KiCad (PCBNEW 5.1.6-c6e7f7d~87~ubuntu20.04.1) date 2020-09-27 20:16:03*
%MOMM*%
%LPD*%
G01*
G04 APERTURE LIST*
G04 #@! TA.AperFunction,ComponentPad*
%ADD10C,1.600000*%
G04 #@! TD*
G04 #@! TA.AperFunction,ComponentPad*
%ADD11O,1.600000X2.400000*%
G04 #@! TD*
G04 #@! TA.AperFunction,ComponentPad*
%ADD12R,1.600000X2.400000*%
G04 #@! TD*
G04 #@! TA.AperFunction,ComponentPad*
%ADD13O,1.600000X1.600000*%
G04 #@! TD*
G04 #@! TA.AperFunction,ComponentPad*
%ADD14R,1.500000X1.500000*%
G04 #@! TD*
G04 #@! TA.AperFunction,ComponentPad*
%ADD15C,1.500000*%
G04 #@! TD*
G04 #@! TA.AperFunction,ComponentPad*
%ADD16C,2.499360*%
G04 #@! TD*
G04 #@! TA.AperFunction,ComponentPad*
%ADD17O,2.200000X1.740000*%
G04 #@! TD*
G04 #@! TA.AperFunction,ComponentPad*
%ADD18O,1.727200X1.727200*%
G04 #@! TD*
G04 #@! TA.AperFunction,ComponentPad*
%ADD19R,1.727200X1.727200*%
G04 #@! TD*
G04 #@! TA.AperFunction,ComponentPad*
%ADD20O,2.200000X2.200000*%
G04 #@! TD*
G04 #@! TA.AperFunction,ComponentPad*
%ADD21R,2.200000X2.200000*%
G04 #@! TD*
G04 #@! TA.AperFunction,ComponentPad*
%ADD22R,1.600000X1.600000*%
G04 #@! TD*
G04 #@! TA.AperFunction,Conductor*
%ADD23C,0.750000*%
G04 #@! TD*
G04 #@! TA.AperFunction,Conductor*
%ADD24C,0.250000*%
G04 #@! TD*
G04 #@! TA.AperFunction,Conductor*
%ADD25C,0.254000*%
G04 #@! TD*
G04 APERTURE END LIST*
D10*
X158500000Y-81500000D03*
X158500000Y-76500000D03*
D11*
X145000000Y-80685000D03*
X129760000Y-73065000D03*
X142460000Y-80685000D03*
X132300000Y-73065000D03*
X139920000Y-80685000D03*
X134840000Y-73065000D03*
X137380000Y-80685000D03*
X137380000Y-73065000D03*
X134840000Y-80685000D03*
X139920000Y-73065000D03*
X132300000Y-80685000D03*
X142460000Y-73065000D03*
X129760000Y-80685000D03*
D12*
X145000000Y-73065000D03*
D13*
X151380000Y-57000000D03*
D10*
X159000000Y-57000000D03*
D13*
X159000000Y-53000000D03*
D10*
X151380000Y-53000000D03*
D13*
X151380000Y-37000000D03*
D10*
X159000000Y-37000000D03*
D13*
X151380000Y-45000000D03*
D10*
X159000000Y-45000000D03*
D13*
X135380000Y-85000000D03*
D10*
X143000000Y-85000000D03*
D13*
X169620000Y-76000000D03*
D10*
X162000000Y-76000000D03*
D13*
X151000000Y-73000000D03*
D10*
X158620000Y-73000000D03*
D13*
X158620000Y-69000000D03*
D10*
X151000000Y-69000000D03*
D13*
X169620000Y-65000000D03*
D10*
X162000000Y-65000000D03*
D14*
X153000000Y-81500000D03*
D15*
X153000000Y-76420000D03*
X153000000Y-78960000D03*
D16*
X130000000Y-48000000D03*
X130000000Y-55000000D03*
D17*
X167000000Y-43460000D03*
G04 #@! TA.AperFunction,ComponentPad*
G36*
G01*
X167850001Y-46870000D02*
X166149999Y-46870000D01*
G75*
G02*
X165900000Y-46620001I0J249999D01*
G01*
X165900000Y-45379999D01*
G75*
G02*
X166149999Y-45130000I249999J0D01*
G01*
X167850001Y-45130000D01*
G75*
G02*
X168100000Y-45379999I0J-249999D01*
G01*
X168100000Y-46620001D01*
G75*
G02*
X167850001Y-46870000I-249999J0D01*
G01*
G37*
G04 #@! TD.AperFunction*
X167000000Y-57460000D03*
G04 #@! TA.AperFunction,ComponentPad*
G36*
G01*
X167850001Y-60870000D02*
X166149999Y-60870000D01*
G75*
G02*
X165900000Y-60620001I0J249999D01*
G01*
X165900000Y-59379999D01*
G75*
G02*
X166149999Y-59130000I249999J0D01*
G01*
X167850001Y-59130000D01*
G75*
G02*
X168100000Y-59379999I0J-249999D01*
G01*
X168100000Y-60620001D01*
G75*
G02*
X167850001Y-60870000I-249999J0D01*
G01*
G37*
G04 #@! TD.AperFunction*
X167000000Y-50460000D03*
G04 #@! TA.AperFunction,ComponentPad*
G36*
G01*
X167850001Y-53870000D02*
X166149999Y-53870000D01*
G75*
G02*
X165900000Y-53620001I0J249999D01*
G01*
X165900000Y-52379999D01*
G75*
G02*
X166149999Y-52130000I249999J0D01*
G01*
X167850001Y-52130000D01*
G75*
G02*
X168100000Y-52379999I0J-249999D01*
G01*
X168100000Y-53620001D01*
G75*
G02*
X167850001Y-53870000I-249999J0D01*
G01*
G37*
G04 #@! TD.AperFunction*
X132000000Y-68080000D03*
X132000000Y-65540000D03*
G04 #@! TA.AperFunction,ComponentPad*
G36*
G01*
X131149999Y-62130000D02*
X132850001Y-62130000D01*
G75*
G02*
X133100000Y-62379999I0J-249999D01*
G01*
X133100000Y-63620001D01*
G75*
G02*
X132850001Y-63870000I-249999J0D01*
G01*
X131149999Y-63870000D01*
G75*
G02*
X130900000Y-63620001I0J249999D01*
G01*
X130900000Y-62379999D01*
G75*
G02*
X131149999Y-62130000I249999J0D01*
G01*
G37*
G04 #@! TD.AperFunction*
D18*
X137460000Y-42880000D03*
X140000000Y-42880000D03*
X137460000Y-45420000D03*
X140000000Y-45420000D03*
X137460000Y-47960000D03*
X140000000Y-47960000D03*
X137460000Y-50500000D03*
X140000000Y-50500000D03*
X137460000Y-53040000D03*
D19*
X140000000Y-53040000D03*
D17*
X167000000Y-69460000D03*
G04 #@! TA.AperFunction,ComponentPad*
G36*
G01*
X167850001Y-72870000D02*
X166149999Y-72870000D01*
G75*
G02*
X165900000Y-72620001I0J249999D01*
G01*
X165900000Y-71379999D01*
G75*
G02*
X166149999Y-71130000I249999J0D01*
G01*
X167850001Y-71130000D01*
G75*
G02*
X168100000Y-71379999I0J-249999D01*
G01*
X168100000Y-72620001D01*
G75*
G02*
X167850001Y-72870000I-249999J0D01*
G01*
G37*
G04 #@! TD.AperFunction*
D20*
X159000000Y-65000000D03*
D21*
X151380000Y-65000000D03*
D20*
X159000000Y-61000000D03*
D21*
X151380000Y-61000000D03*
D20*
X151380000Y-41000000D03*
D21*
X159000000Y-41000000D03*
D20*
X151380000Y-49000000D03*
D21*
X159000000Y-49000000D03*
D20*
X147000000Y-39380000D03*
D21*
X147000000Y-47000000D03*
D13*
X160620000Y-85000000D03*
D22*
X153000000Y-85000000D03*
D10*
X143500000Y-65000000D03*
D22*
X141000000Y-65000000D03*
D10*
X149500000Y-85000000D03*
X147000000Y-85000000D03*
X147000000Y-55000000D03*
D22*
X147000000Y-53000000D03*
D23*
X147000000Y-47000000D02*
X147000000Y-53000000D01*
X157488630Y-73000000D02*
X158620000Y-73000000D01*
X154170000Y-73000000D02*
X157488630Y-73000000D01*
X145000000Y-80620000D02*
X146550000Y-80620000D01*
X146550000Y-80620000D02*
X154170000Y-73000000D01*
X154170000Y-57754998D02*
X154170000Y-73000000D01*
X149415002Y-53000000D02*
X154170000Y-57754998D01*
X147000000Y-53000000D02*
X149415002Y-53000000D01*
X145000000Y-55000000D02*
X147000000Y-53000000D01*
X130000000Y-55000000D02*
X145000000Y-55000000D01*
X147000000Y-81070000D02*
X147000000Y-85000000D01*
X146550000Y-80620000D02*
X147000000Y-81070000D01*
D24*
X134840000Y-71550000D02*
X136000000Y-70390000D01*
X134840000Y-73000000D02*
X134840000Y-71550000D01*
X142460000Y-71550000D02*
X142460000Y-73000000D01*
X141300000Y-70390000D02*
X142460000Y-71550000D01*
X136000000Y-70390000D02*
X141300000Y-70390000D01*
D23*
X140000000Y-42880000D02*
X143500000Y-42880000D01*
X143500000Y-42880000D02*
X147000000Y-39380000D01*
X137460000Y-42880000D02*
X140000000Y-42880000D01*
X137460000Y-53040000D02*
X140000000Y-53040000D01*
D25*
G36*
X171340001Y-91340000D02*
G01*
X127660000Y-91340000D01*
X127660000Y-88779872D01*
X127765000Y-88779872D01*
X127765000Y-89220128D01*
X127850890Y-89651925D01*
X128019369Y-90058669D01*
X128263962Y-90424729D01*
X128575271Y-90736038D01*
X128941331Y-90980631D01*
X129348075Y-91149110D01*
X129779872Y-91235000D01*
X130220128Y-91235000D01*
X130651925Y-91149110D01*
X131058669Y-90980631D01*
X131424729Y-90736038D01*
X131736038Y-90424729D01*
X131980631Y-90058669D01*
X132149110Y-89651925D01*
X132235000Y-89220128D01*
X132235000Y-88779872D01*
X166765000Y-88779872D01*
X166765000Y-89220128D01*
X166850890Y-89651925D01*
X167019369Y-90058669D01*
X167263962Y-90424729D01*
X167575271Y-90736038D01*
X167941331Y-90980631D01*
X168348075Y-91149110D01*
X168779872Y-91235000D01*
X169220128Y-91235000D01*
X169651925Y-91149110D01*
X170058669Y-90980631D01*
X170424729Y-90736038D01*
X170736038Y-90424729D01*
X170980631Y-90058669D01*
X171149110Y-89651925D01*
X171235000Y-89220128D01*
X171235000Y-88779872D01*
X171149110Y-88348075D01*
X170980631Y-87941331D01*
X170736038Y-87575271D01*
X170424729Y-87263962D01*
X170058669Y-87019369D01*
X169651925Y-86850890D01*
X169220128Y-86765000D01*
X168779872Y-86765000D01*
X168348075Y-86850890D01*
X167941331Y-87019369D01*
X167575271Y-87263962D01*
X167263962Y-87575271D01*
X167019369Y-87941331D01*
X166850890Y-88348075D01*
X166765000Y-88779872D01*
X132235000Y-88779872D01*
X132149110Y-88348075D01*
X131980631Y-87941331D01*
X131736038Y-87575271D01*
X131424729Y-87263962D01*
X131058669Y-87019369D01*
X130651925Y-86850890D01*
X130220128Y-86765000D01*
X129779872Y-86765000D01*
X129348075Y-86850890D01*
X128941331Y-87019369D01*
X128575271Y-87263962D01*
X128263962Y-87575271D01*
X128019369Y-87941331D01*
X127850890Y-88348075D01*
X127765000Y-88779872D01*
X127660000Y-88779872D01*
X127660000Y-84858665D01*
X133945000Y-84858665D01*
X133945000Y-85141335D01*
X134000147Y-85418574D01*
X134108320Y-85679727D01*
X134265363Y-85914759D01*
X134465241Y-86114637D01*
X134700273Y-86271680D01*
X134961426Y-86379853D01*
X135238665Y-86435000D01*
X135521335Y-86435000D01*
X135798574Y-86379853D01*
X136059727Y-86271680D01*
X136294759Y-86114637D01*
X136494637Y-85914759D01*
X136651680Y-85679727D01*
X136759853Y-85418574D01*
X136815000Y-85141335D01*
X136815000Y-84858665D01*
X141565000Y-84858665D01*
X141565000Y-85141335D01*
X141620147Y-85418574D01*
X141728320Y-85679727D01*
X141885363Y-85914759D01*
X142085241Y-86114637D01*
X142320273Y-86271680D01*
X142581426Y-86379853D01*
X142858665Y-86435000D01*
X143141335Y-86435000D01*
X143418574Y-86379853D01*
X143679727Y-86271680D01*
X143914759Y-86114637D01*
X144114637Y-85914759D01*
X144271680Y-85679727D01*
X144379853Y-85418574D01*
X144435000Y-85141335D01*
X144435000Y-84858665D01*
X144379853Y-84581426D01*
X144271680Y-84320273D01*
X144114637Y-84085241D01*
X143914759Y-83885363D01*
X143679727Y-83728320D01*
X143418574Y-83620147D01*
X143141335Y-83565000D01*
X142858665Y-83565000D01*
X142581426Y-83620147D01*
X142320273Y-83728320D01*
X142085241Y-83885363D01*
X141885363Y-84085241D01*
X141728320Y-84320273D01*
X141620147Y-84581426D01*
X141565000Y-84858665D01*
X136815000Y-84858665D01*
X136759853Y-84581426D01*
X136651680Y-84320273D01*
X136494637Y-84085241D01*
X136294759Y-83885363D01*
X136059727Y-83728320D01*
X135798574Y-83620147D01*
X135521335Y-83565000D01*
X135238665Y-83565000D01*
X134961426Y-83620147D01*
X134700273Y-83728320D01*
X134465241Y-83885363D01*
X134265363Y-84085241D01*
X134108320Y-84320273D01*
X134000147Y-84581426D01*
X133945000Y-84858665D01*
X127660000Y-84858665D01*
X127660000Y-80812000D01*
X128325000Y-80812000D01*
X128325000Y-81212000D01*
X128377350Y-81489514D01*
X128482834Y-81751483D01*
X128637399Y-81987839D01*
X128835105Y-82189500D01*
X129068354Y-82348715D01*
X129328182Y-82459367D01*
X129410961Y-82476904D01*
X129633000Y-82354915D01*
X129633000Y-80812000D01*
X128325000Y-80812000D01*
X127660000Y-80812000D01*
X127660000Y-80158000D01*
X128325000Y-80158000D01*
X128325000Y-80558000D01*
X129633000Y-80558000D01*
X129633000Y-79015085D01*
X129887000Y-79015085D01*
X129887000Y-80558000D01*
X129907000Y-80558000D01*
X129907000Y-80812000D01*
X129887000Y-80812000D01*
X129887000Y-82354915D01*
X130109039Y-82476904D01*
X130191818Y-82459367D01*
X130451646Y-82348715D01*
X130684895Y-82189500D01*
X130882601Y-81987839D01*
X131032735Y-81758258D01*
X131101068Y-81886100D01*
X131280392Y-82104607D01*
X131498899Y-82283932D01*
X131748192Y-82417182D01*
X132018691Y-82499236D01*
X132300000Y-82526943D01*
X132581308Y-82499236D01*
X132851807Y-82417182D01*
X133101100Y-82283932D01*
X133319607Y-82104608D01*
X133498932Y-81886101D01*
X133567265Y-81758259D01*
X133717399Y-81987839D01*
X133915105Y-82189500D01*
X134148354Y-82348715D01*
X134408182Y-82459367D01*
X134490961Y-82476904D01*
X134713000Y-82354915D01*
X134713000Y-80812000D01*
X134693000Y-80812000D01*
X134693000Y-80558000D01*
X134713000Y-80558000D01*
X134713000Y-79015085D01*
X134490961Y-78893096D01*
X134408182Y-78910633D01*
X134148354Y-79021285D01*
X133915105Y-79180500D01*
X133717399Y-79382161D01*
X133567265Y-79611741D01*
X133498932Y-79483899D01*
X133319608Y-79265392D01*
X133101101Y-79086068D01*
X132851808Y-78952818D01*
X132581309Y-78870764D01*
X132300000Y-78843057D01*
X132018692Y-78870764D01*
X131748193Y-78952818D01*
X131498900Y-79086068D01*
X131280393Y-79265392D01*
X131101068Y-79483899D01*
X131032735Y-79611741D01*
X130882601Y-79382161D01*
X130684895Y-79180500D01*
X130451646Y-79021285D01*
X130191818Y-78910633D01*
X130109039Y-78893096D01*
X129887000Y-79015085D01*
X129633000Y-79015085D01*
X129410961Y-78893096D01*
X129328182Y-78910633D01*
X129068354Y-79021285D01*
X128835105Y-79180500D01*
X128637399Y-79382161D01*
X128482834Y-79618517D01*
X128377350Y-79880486D01*
X128325000Y-80158000D01*
X127660000Y-80158000D01*
X127660000Y-73192000D01*
X128325000Y-73192000D01*
X128325000Y-73592000D01*
X128377350Y-73869514D01*
X128482834Y-74131483D01*
X128637399Y-74367839D01*
X128835105Y-74569500D01*
X129068354Y-74728715D01*
X129328182Y-74839367D01*
X129410961Y-74856904D01*
X129633000Y-74734915D01*
X129633000Y-73192000D01*
X129887000Y-73192000D01*
X129887000Y-74734915D01*
X130109039Y-74856904D01*
X130191818Y-74839367D01*
X130451646Y-74728715D01*
X130684895Y-74569500D01*
X130882601Y-74367839D01*
X131030000Y-74142441D01*
X131177399Y-74367839D01*
X131375105Y-74569500D01*
X131608354Y-74728715D01*
X131868182Y-74839367D01*
X131950961Y-74856904D01*
X132173000Y-74734915D01*
X132173000Y-73192000D01*
X129887000Y-73192000D01*
X129633000Y-73192000D01*
X128325000Y-73192000D01*
X127660000Y-73192000D01*
X127660000Y-72538000D01*
X128325000Y-72538000D01*
X128325000Y-72938000D01*
X129633000Y-72938000D01*
X129633000Y-71395085D01*
X129887000Y-71395085D01*
X129887000Y-72938000D01*
X132173000Y-72938000D01*
X132173000Y-71395085D01*
X132427000Y-71395085D01*
X132427000Y-72938000D01*
X132447000Y-72938000D01*
X132447000Y-73192000D01*
X132427000Y-73192000D01*
X132427000Y-74734915D01*
X132649039Y-74856904D01*
X132731818Y-74839367D01*
X132991646Y-74728715D01*
X133224895Y-74569500D01*
X133422601Y-74367839D01*
X133572735Y-74138258D01*
X133641068Y-74266100D01*
X133820392Y-74484607D01*
X134038899Y-74663932D01*
X134288192Y-74797182D01*
X134558691Y-74879236D01*
X134840000Y-74906943D01*
X135121308Y-74879236D01*
X135391807Y-74797182D01*
X135641100Y-74663932D01*
X135859607Y-74484608D01*
X136038932Y-74266101D01*
X136110000Y-74133142D01*
X136181068Y-74266100D01*
X136360392Y-74484607D01*
X136578899Y-74663932D01*
X136828192Y-74797182D01*
X137098691Y-74879236D01*
X137380000Y-74906943D01*
X137661308Y-74879236D01*
X137931807Y-74797182D01*
X138181100Y-74663932D01*
X138399607Y-74484608D01*
X138578932Y-74266101D01*
X138650000Y-74133142D01*
X138721068Y-74266100D01*
X138900392Y-74484607D01*
X139118899Y-74663932D01*
X139368192Y-74797182D01*
X139638691Y-74879236D01*
X139920000Y-74906943D01*
X140201308Y-74879236D01*
X140471807Y-74797182D01*
X140721100Y-74663932D01*
X140939607Y-74484608D01*
X141118932Y-74266101D01*
X141190000Y-74133142D01*
X141261068Y-74266100D01*
X141440392Y-74484607D01*
X141658899Y-74663932D01*
X141908192Y-74797182D01*
X142178691Y-74879236D01*
X142460000Y-74906943D01*
X142741308Y-74879236D01*
X143011807Y-74797182D01*
X143261100Y-74663932D01*
X143479607Y-74484608D01*
X143572419Y-74371517D01*
X143574188Y-74389482D01*
X143610498Y-74509180D01*
X143669463Y-74619494D01*
X143748815Y-74716185D01*
X143845506Y-74795537D01*
X143955820Y-74854502D01*
X144075518Y-74890812D01*
X144200000Y-74903072D01*
X145800000Y-74903072D01*
X145924482Y-74890812D01*
X146044180Y-74854502D01*
X146154494Y-74795537D01*
X146251185Y-74716185D01*
X146330537Y-74619494D01*
X146389502Y-74509180D01*
X146425812Y-74389482D01*
X146438072Y-74265000D01*
X146438072Y-71865000D01*
X146425812Y-71740518D01*
X146389502Y-71620820D01*
X146330537Y-71510506D01*
X146251185Y-71413815D01*
X146154494Y-71334463D01*
X146044180Y-71275498D01*
X145924482Y-71239188D01*
X145800000Y-71226928D01*
X144200000Y-71226928D01*
X144075518Y-71239188D01*
X143955820Y-71275498D01*
X143845506Y-71334463D01*
X143748815Y-71413815D01*
X143669463Y-71510506D01*
X143610498Y-71620820D01*
X143574188Y-71740518D01*
X143572419Y-71758482D01*
X143479608Y-71645392D01*
X143261101Y-71466068D01*
X143212871Y-71440289D01*
X143209003Y-71401014D01*
X143165546Y-71257753D01*
X143094974Y-71125724D01*
X143000001Y-71009999D01*
X142971004Y-70986202D01*
X141863804Y-69879003D01*
X141840001Y-69849999D01*
X141724276Y-69755026D01*
X141592247Y-69684454D01*
X141448986Y-69640997D01*
X141337333Y-69630000D01*
X141337322Y-69630000D01*
X141300000Y-69626324D01*
X141262678Y-69630000D01*
X136037325Y-69630000D01*
X136000000Y-69626324D01*
X135962675Y-69630000D01*
X135962667Y-69630000D01*
X135851014Y-69640997D01*
X135707753Y-69684454D01*
X135575724Y-69755026D01*
X135459999Y-69849999D01*
X135436201Y-69878997D01*
X134328998Y-70986201D01*
X134300000Y-71009999D01*
X134276202Y-71038997D01*
X134276201Y-71038998D01*
X134205026Y-71125724D01*
X134134454Y-71257754D01*
X134090998Y-71401015D01*
X134087130Y-71440289D01*
X134038900Y-71466068D01*
X133820393Y-71645392D01*
X133641068Y-71863899D01*
X133572735Y-71991741D01*
X133422601Y-71762161D01*
X133224895Y-71560500D01*
X132991646Y-71401285D01*
X132731818Y-71290633D01*
X132649039Y-71273096D01*
X132427000Y-71395085D01*
X132173000Y-71395085D01*
X131950961Y-71273096D01*
X131868182Y-71290633D01*
X131608354Y-71401285D01*
X131375105Y-71560500D01*
X131177399Y-71762161D01*
X131030000Y-71987559D01*
X130882601Y-71762161D01*
X130684895Y-71560500D01*
X130451646Y-71401285D01*
X130191818Y-71290633D01*
X130109039Y-71273096D01*
X129887000Y-71395085D01*
X129633000Y-71395085D01*
X129410961Y-71273096D01*
X129328182Y-71290633D01*
X129068354Y-71401285D01*
X128835105Y-71560500D01*
X128637399Y-71762161D01*
X128482834Y-71998517D01*
X128377350Y-72260486D01*
X128325000Y-72538000D01*
X127660000Y-72538000D01*
X127660000Y-65540000D01*
X130257718Y-65540000D01*
X130286776Y-65835032D01*
X130372834Y-66118725D01*
X130512583Y-66380179D01*
X130700655Y-66609345D01*
X130929821Y-66797417D01*
X130953362Y-66810000D01*
X130929821Y-66822583D01*
X130700655Y-67010655D01*
X130512583Y-67239821D01*
X130372834Y-67501275D01*
X130286776Y-67784968D01*
X130257718Y-68080000D01*
X130286776Y-68375032D01*
X130372834Y-68658725D01*
X130512583Y-68920179D01*
X130700655Y-69149345D01*
X130929821Y-69337417D01*
X131191275Y-69477166D01*
X131474968Y-69563224D01*
X131696064Y-69585000D01*
X132303936Y-69585000D01*
X132525032Y-69563224D01*
X132808725Y-69477166D01*
X133070179Y-69337417D01*
X133299345Y-69149345D01*
X133487417Y-68920179D01*
X133520296Y-68858665D01*
X149565000Y-68858665D01*
X149565000Y-69141335D01*
X149620147Y-69418574D01*
X149728320Y-69679727D01*
X149885363Y-69914759D01*
X150085241Y-70114637D01*
X150320273Y-70271680D01*
X150581426Y-70379853D01*
X150858665Y-70435000D01*
X151141335Y-70435000D01*
X151418574Y-70379853D01*
X151679727Y-70271680D01*
X151914759Y-70114637D01*
X152114637Y-69914759D01*
X152271680Y-69679727D01*
X152379853Y-69418574D01*
X152435000Y-69141335D01*
X152435000Y-68858665D01*
X152379853Y-68581426D01*
X152271680Y-68320273D01*
X152114637Y-68085241D01*
X151914759Y-67885363D01*
X151679727Y-67728320D01*
X151418574Y-67620147D01*
X151141335Y-67565000D01*
X150858665Y-67565000D01*
X150581426Y-67620147D01*
X150320273Y-67728320D01*
X150085241Y-67885363D01*
X149885363Y-68085241D01*
X149728320Y-68320273D01*
X149620147Y-68581426D01*
X149565000Y-68858665D01*
X133520296Y-68858665D01*
X133627166Y-68658725D01*
X133713224Y-68375032D01*
X133742282Y-68080000D01*
X133713224Y-67784968D01*
X133627166Y-67501275D01*
X133487417Y-67239821D01*
X133299345Y-67010655D01*
X133070179Y-66822583D01*
X133046638Y-66810000D01*
X133070179Y-66797417D01*
X133299345Y-66609345D01*
X133487417Y-66380179D01*
X133627166Y-66118725D01*
X133713224Y-65835032D01*
X133742282Y-65540000D01*
X133713224Y-65244968D01*
X133627166Y-64961275D01*
X133487417Y-64699821D01*
X133299345Y-64470655D01*
X133233886Y-64416934D01*
X133343387Y-64358405D01*
X133477962Y-64247962D01*
X133517323Y-64200000D01*
X139561928Y-64200000D01*
X139561928Y-65800000D01*
X139574188Y-65924482D01*
X139610498Y-66044180D01*
X139669463Y-66154494D01*
X139748815Y-66251185D01*
X139845506Y-66330537D01*
X139955820Y-66389502D01*
X140075518Y-66425812D01*
X140200000Y-66438072D01*
X141800000Y-66438072D01*
X141924482Y-66425812D01*
X142044180Y-66389502D01*
X142154494Y-66330537D01*
X142251185Y-66251185D01*
X142330537Y-66154494D01*
X142389502Y-66044180D01*
X142418661Y-65948057D01*
X142585241Y-66114637D01*
X142820273Y-66271680D01*
X143081426Y-66379853D01*
X143358665Y-66435000D01*
X143641335Y-66435000D01*
X143918574Y-66379853D01*
X144179727Y-66271680D01*
X144414759Y-66114637D01*
X144614637Y-65914759D01*
X144771680Y-65679727D01*
X144879853Y-65418574D01*
X144935000Y-65141335D01*
X144935000Y-64858665D01*
X144879853Y-64581426D01*
X144771680Y-64320273D01*
X144614637Y-64085241D01*
X144429396Y-63900000D01*
X149641928Y-63900000D01*
X149641928Y-66100000D01*
X149654188Y-66224482D01*
X149690498Y-66344180D01*
X149749463Y-66454494D01*
X149828815Y-66551185D01*
X149925506Y-66630537D01*
X150035820Y-66689502D01*
X150155518Y-66725812D01*
X150280000Y-66738072D01*
X152480000Y-66738072D01*
X152604482Y-66725812D01*
X152724180Y-66689502D01*
X152834494Y-66630537D01*
X152931185Y-66551185D01*
X153010537Y-66454494D01*
X153069502Y-66344180D01*
X153105812Y-66224482D01*
X153118072Y-66100000D01*
X153118072Y-63900000D01*
X153105812Y-63775518D01*
X153069502Y-63655820D01*
X153010537Y-63545506D01*
X152931185Y-63448815D01*
X152834494Y-63369463D01*
X152724180Y-63310498D01*
X152604482Y-63274188D01*
X152480000Y-63261928D01*
X150280000Y-63261928D01*
X150155518Y-63274188D01*
X150035820Y-63310498D01*
X149925506Y-63369463D01*
X149828815Y-63448815D01*
X149749463Y-63545506D01*
X149690498Y-63655820D01*
X149654188Y-63775518D01*
X149641928Y-63900000D01*
X144429396Y-63900000D01*
X144414759Y-63885363D01*
X144179727Y-63728320D01*
X143918574Y-63620147D01*
X143641335Y-63565000D01*
X143358665Y-63565000D01*
X143081426Y-63620147D01*
X142820273Y-63728320D01*
X142585241Y-63885363D01*
X142418661Y-64051943D01*
X142389502Y-63955820D01*
X142330537Y-63845506D01*
X142251185Y-63748815D01*
X142154494Y-63669463D01*
X142044180Y-63610498D01*
X141924482Y-63574188D01*
X141800000Y-63561928D01*
X140200000Y-63561928D01*
X140075518Y-63574188D01*
X139955820Y-63610498D01*
X139845506Y-63669463D01*
X139748815Y-63748815D01*
X139669463Y-63845506D01*
X139610498Y-63955820D01*
X139574188Y-64075518D01*
X139561928Y-64200000D01*
X133517323Y-64200000D01*
X133588405Y-64113387D01*
X133670472Y-63959851D01*
X133721008Y-63793255D01*
X133738072Y-63620001D01*
X133738072Y-62379999D01*
X133721008Y-62206745D01*
X133670472Y-62040149D01*
X133588405Y-61886613D01*
X133477962Y-61752038D01*
X133343387Y-61641595D01*
X133189851Y-61559528D01*
X133023255Y-61508992D01*
X132850001Y-61491928D01*
X131149999Y-61491928D01*
X130976745Y-61508992D01*
X130810149Y-61559528D01*
X130656613Y-61641595D01*
X130522038Y-61752038D01*
X130411595Y-61886613D01*
X130329528Y-62040149D01*
X130278992Y-62206745D01*
X130261928Y-62379999D01*
X130261928Y-63620001D01*
X130278992Y-63793255D01*
X130329528Y-63959851D01*
X130411595Y-64113387D01*
X130522038Y-64247962D01*
X130656613Y-64358405D01*
X130766114Y-64416934D01*
X130700655Y-64470655D01*
X130512583Y-64699821D01*
X130372834Y-64961275D01*
X130286776Y-65244968D01*
X130257718Y-65540000D01*
X127660000Y-65540000D01*
X127660000Y-59900000D01*
X149641928Y-59900000D01*
X149641928Y-62100000D01*
X149654188Y-62224482D01*
X149690498Y-62344180D01*
X149749463Y-62454494D01*
X149828815Y-62551185D01*
X149925506Y-62630537D01*
X150035820Y-62689502D01*
X150155518Y-62725812D01*
X150280000Y-62738072D01*
X152480000Y-62738072D01*
X152604482Y-62725812D01*
X152724180Y-62689502D01*
X152834494Y-62630537D01*
X152931185Y-62551185D01*
X153010537Y-62454494D01*
X153069502Y-62344180D01*
X153105812Y-62224482D01*
X153118072Y-62100000D01*
X153118072Y-59900000D01*
X153105812Y-59775518D01*
X153069502Y-59655820D01*
X153010537Y-59545506D01*
X152931185Y-59448815D01*
X152834494Y-59369463D01*
X152724180Y-59310498D01*
X152604482Y-59274188D01*
X152480000Y-59261928D01*
X150280000Y-59261928D01*
X150155518Y-59274188D01*
X150035820Y-59310498D01*
X149925506Y-59369463D01*
X149828815Y-59448815D01*
X149749463Y-59545506D01*
X149690498Y-59655820D01*
X149654188Y-59775518D01*
X149641928Y-59900000D01*
X127660000Y-59900000D01*
X127660000Y-54814375D01*
X128115320Y-54814375D01*
X128115320Y-55185625D01*
X128187747Y-55549741D01*
X128329818Y-55892731D01*
X128536074Y-56201413D01*
X128798587Y-56463926D01*
X129107269Y-56670182D01*
X129450259Y-56812253D01*
X129814375Y-56884680D01*
X130185625Y-56884680D01*
X130549741Y-56812253D01*
X130892731Y-56670182D01*
X131201413Y-56463926D01*
X131463926Y-56201413D01*
X131591825Y-56010000D01*
X144950392Y-56010000D01*
X145000000Y-56014886D01*
X145197994Y-55995385D01*
X145206839Y-55992702D01*
X146186903Y-55992702D01*
X146258486Y-56236671D01*
X146513996Y-56357571D01*
X146788184Y-56426300D01*
X147070512Y-56440217D01*
X147350130Y-56398787D01*
X147616292Y-56303603D01*
X147741514Y-56236671D01*
X147813097Y-55992702D01*
X147000000Y-55179605D01*
X146186903Y-55992702D01*
X145206839Y-55992702D01*
X145388380Y-55937632D01*
X145563840Y-55843847D01*
X145717633Y-55717633D01*
X145737576Y-55693333D01*
X145763329Y-55741514D01*
X146007298Y-55813097D01*
X146820395Y-55000000D01*
X146806253Y-54985858D01*
X146985858Y-54806253D01*
X147000000Y-54820395D01*
X147014143Y-54806253D01*
X147193748Y-54985858D01*
X147179605Y-55000000D01*
X147992702Y-55813097D01*
X148236671Y-55741514D01*
X148357571Y-55486004D01*
X148426300Y-55211816D01*
X148440217Y-54929488D01*
X148398787Y-54649870D01*
X148303603Y-54383708D01*
X148238384Y-54261691D01*
X148251185Y-54251185D01*
X148330537Y-54154494D01*
X148389502Y-54044180D01*
X148399870Y-54010000D01*
X148996647Y-54010000D01*
X150710663Y-55724016D01*
X150700273Y-55728320D01*
X150465241Y-55885363D01*
X150265363Y-56085241D01*
X150108320Y-56320273D01*
X150000147Y-56581426D01*
X149945000Y-56858665D01*
X149945000Y-57141335D01*
X150000147Y-57418574D01*
X150108320Y-57679727D01*
X150265363Y-57914759D01*
X150465241Y-58114637D01*
X150700273Y-58271680D01*
X150961426Y-58379853D01*
X151238665Y-58435000D01*
X151521335Y-58435000D01*
X151798574Y-58379853D01*
X152059727Y-58271680D01*
X152294759Y-58114637D01*
X152494637Y-57914759D01*
X152651680Y-57679727D01*
X152655984Y-57669337D01*
X153160000Y-58173354D01*
X153160001Y-72581644D01*
X152393952Y-73347693D01*
X152435000Y-73141335D01*
X152435000Y-72858665D01*
X152379853Y-72581426D01*
X152271680Y-72320273D01*
X152114637Y-72085241D01*
X151914759Y-71885363D01*
X151679727Y-71728320D01*
X151418574Y-71620147D01*
X151141335Y-71565000D01*
X150858665Y-71565000D01*
X150581426Y-71620147D01*
X150320273Y-71728320D01*
X150085241Y-71885363D01*
X149885363Y-72085241D01*
X149728320Y-72320273D01*
X149620147Y-72581426D01*
X149565000Y-72858665D01*
X149565000Y-73141335D01*
X149620147Y-73418574D01*
X149728320Y-73679727D01*
X149885363Y-73914759D01*
X150085241Y-74114637D01*
X150320273Y-74271680D01*
X150581426Y-74379853D01*
X150858665Y-74435000D01*
X151141335Y-74435000D01*
X151347693Y-74393952D01*
X146219418Y-79522227D01*
X146198932Y-79483899D01*
X146019608Y-79265392D01*
X145801101Y-79086068D01*
X145551808Y-78952818D01*
X145281309Y-78870764D01*
X145000000Y-78843057D01*
X144718692Y-78870764D01*
X144448193Y-78952818D01*
X144198900Y-79086068D01*
X143980393Y-79265392D01*
X143801068Y-79483899D01*
X143730000Y-79616858D01*
X143658932Y-79483899D01*
X143479608Y-79265392D01*
X143261101Y-79086068D01*
X143011808Y-78952818D01*
X142741309Y-78870764D01*
X142460000Y-78843057D01*
X142178692Y-78870764D01*
X141908193Y-78952818D01*
X141658900Y-79086068D01*
X141440393Y-79265392D01*
X141261068Y-79483899D01*
X141190000Y-79616858D01*
X141118932Y-79483899D01*
X140939608Y-79265392D01*
X140721101Y-79086068D01*
X140471808Y-78952818D01*
X140201309Y-78870764D01*
X139920000Y-78843057D01*
X139638692Y-78870764D01*
X139368193Y-78952818D01*
X139118900Y-79086068D01*
X138900393Y-79265392D01*
X138721068Y-79483899D01*
X138650000Y-79616858D01*
X138578932Y-79483899D01*
X138399608Y-79265392D01*
X138181101Y-79086068D01*
X137931808Y-78952818D01*
X137661309Y-78870764D01*
X137380000Y-78843057D01*
X137098692Y-78870764D01*
X136828193Y-78952818D01*
X136578900Y-79086068D01*
X136360393Y-79265392D01*
X136181068Y-79483899D01*
X136112735Y-79611741D01*
X135962601Y-79382161D01*
X135764895Y-79180500D01*
X135531646Y-79021285D01*
X135271818Y-78910633D01*
X135189039Y-78893096D01*
X134967000Y-79015085D01*
X134967000Y-80558000D01*
X134987000Y-80558000D01*
X134987000Y-80812000D01*
X134967000Y-80812000D01*
X134967000Y-82354915D01*
X135189039Y-82476904D01*
X135271818Y-82459367D01*
X135531646Y-82348715D01*
X135764895Y-82189500D01*
X135962601Y-81987839D01*
X136112735Y-81758258D01*
X136181068Y-81886100D01*
X136360392Y-82104607D01*
X136578899Y-82283932D01*
X136828192Y-82417182D01*
X137098691Y-82499236D01*
X137380000Y-82526943D01*
X137661308Y-82499236D01*
X137931807Y-82417182D01*
X138181100Y-82283932D01*
X138399607Y-82104608D01*
X138578932Y-81886101D01*
X138650000Y-81753142D01*
X138721068Y-81886100D01*
X138900392Y-82104607D01*
X139118899Y-82283932D01*
X139368192Y-82417182D01*
X139638691Y-82499236D01*
X139920000Y-82526943D01*
X140201308Y-82499236D01*
X140471807Y-82417182D01*
X140721100Y-82283932D01*
X140939607Y-82104608D01*
X141118932Y-81886101D01*
X141190000Y-81753142D01*
X141261068Y-81886100D01*
X141440392Y-82104607D01*
X141658899Y-82283932D01*
X141908192Y-82417182D01*
X142178691Y-82499236D01*
X142460000Y-82526943D01*
X142741308Y-82499236D01*
X143011807Y-82417182D01*
X143261100Y-82283932D01*
X143479607Y-82104608D01*
X143658932Y-81886101D01*
X143730000Y-81753142D01*
X143801068Y-81886100D01*
X143980392Y-82104607D01*
X144198899Y-82283932D01*
X144448192Y-82417182D01*
X144718691Y-82499236D01*
X145000000Y-82526943D01*
X145281308Y-82499236D01*
X145551807Y-82417182D01*
X145801100Y-82283932D01*
X145990000Y-82128906D01*
X145990001Y-83980603D01*
X145885363Y-84085241D01*
X145728320Y-84320273D01*
X145620147Y-84581426D01*
X145565000Y-84858665D01*
X145565000Y-85141335D01*
X145620147Y-85418574D01*
X145728320Y-85679727D01*
X145885363Y-85914759D01*
X146085241Y-86114637D01*
X146320273Y-86271680D01*
X146581426Y-86379853D01*
X146858665Y-86435000D01*
X147141335Y-86435000D01*
X147418574Y-86379853D01*
X147679727Y-86271680D01*
X147914759Y-86114637D01*
X148036694Y-85992702D01*
X148686903Y-85992702D01*
X148758486Y-86236671D01*
X149013996Y-86357571D01*
X149288184Y-86426300D01*
X149570512Y-86440217D01*
X149850130Y-86398787D01*
X150116292Y-86303603D01*
X150241514Y-86236671D01*
X150313097Y-85992702D01*
X149500000Y-85179605D01*
X148686903Y-85992702D01*
X148036694Y-85992702D01*
X148114637Y-85914759D01*
X148248692Y-85714131D01*
X148263329Y-85741514D01*
X148507298Y-85813097D01*
X149320395Y-85000000D01*
X149679605Y-85000000D01*
X150492702Y-85813097D01*
X150736671Y-85741514D01*
X150857571Y-85486004D01*
X150926300Y-85211816D01*
X150940217Y-84929488D01*
X150898787Y-84649870D01*
X150803603Y-84383708D01*
X150736671Y-84258486D01*
X150537340Y-84200000D01*
X151561928Y-84200000D01*
X151561928Y-85800000D01*
X151574188Y-85924482D01*
X151610498Y-86044180D01*
X151669463Y-86154494D01*
X151748815Y-86251185D01*
X151845506Y-86330537D01*
X151955820Y-86389502D01*
X152075518Y-86425812D01*
X152200000Y-86438072D01*
X153800000Y-86438072D01*
X153924482Y-86425812D01*
X154044180Y-86389502D01*
X154154494Y-86330537D01*
X154251185Y-86251185D01*
X154330537Y-86154494D01*
X154389502Y-86044180D01*
X154425812Y-85924482D01*
X154438072Y-85800000D01*
X154438072Y-84858665D01*
X159185000Y-84858665D01*
X159185000Y-85141335D01*
X159240147Y-85418574D01*
X159348320Y-85679727D01*
X159505363Y-85914759D01*
X159705241Y-86114637D01*
X159940273Y-86271680D01*
X160201426Y-86379853D01*
X160478665Y-86435000D01*
X160761335Y-86435000D01*
X161038574Y-86379853D01*
X161299727Y-86271680D01*
X161534759Y-86114637D01*
X161734637Y-85914759D01*
X161891680Y-85679727D01*
X161999853Y-85418574D01*
X162055000Y-85141335D01*
X162055000Y-84858665D01*
X161999853Y-84581426D01*
X161891680Y-84320273D01*
X161734637Y-84085241D01*
X161534759Y-83885363D01*
X161299727Y-83728320D01*
X161038574Y-83620147D01*
X160761335Y-83565000D01*
X160478665Y-83565000D01*
X160201426Y-83620147D01*
X159940273Y-83728320D01*
X159705241Y-83885363D01*
X159505363Y-84085241D01*
X159348320Y-84320273D01*
X159240147Y-84581426D01*
X159185000Y-84858665D01*
X154438072Y-84858665D01*
X154438072Y-84200000D01*
X154425812Y-84075518D01*
X154389502Y-83955820D01*
X154330537Y-83845506D01*
X154251185Y-83748815D01*
X154154494Y-83669463D01*
X154044180Y-83610498D01*
X153924482Y-83574188D01*
X153800000Y-83561928D01*
X152200000Y-83561928D01*
X152075518Y-83574188D01*
X151955820Y-83610498D01*
X151845506Y-83669463D01*
X151748815Y-83748815D01*
X151669463Y-83845506D01*
X151610498Y-83955820D01*
X151574188Y-84075518D01*
X151561928Y-84200000D01*
X150537340Y-84200000D01*
X150492702Y-84186903D01*
X149679605Y-85000000D01*
X149320395Y-85000000D01*
X148507298Y-84186903D01*
X148263329Y-84258486D01*
X148249676Y-84287341D01*
X148114637Y-84085241D01*
X148036694Y-84007298D01*
X148686903Y-84007298D01*
X149500000Y-84820395D01*
X150313097Y-84007298D01*
X150241514Y-83763329D01*
X149986004Y-83642429D01*
X149711816Y-83573700D01*
X149429488Y-83559783D01*
X149149870Y-83601213D01*
X148883708Y-83696397D01*
X148758486Y-83763329D01*
X148686903Y-84007298D01*
X148036694Y-84007298D01*
X148010000Y-83980604D01*
X148010000Y-81119604D01*
X148014886Y-81069999D01*
X148008817Y-81008379D01*
X147995385Y-80872006D01*
X147958375Y-80750000D01*
X151611928Y-80750000D01*
X151611928Y-82250000D01*
X151624188Y-82374482D01*
X151660498Y-82494180D01*
X151719463Y-82604494D01*
X151798815Y-82701185D01*
X151895506Y-82780537D01*
X152005820Y-82839502D01*
X152125518Y-82875812D01*
X152250000Y-82888072D01*
X153750000Y-82888072D01*
X153874482Y-82875812D01*
X153994180Y-82839502D01*
X154104494Y-82780537D01*
X154201185Y-82701185D01*
X154280537Y-82604494D01*
X154339502Y-82494180D01*
X154375812Y-82374482D01*
X154388072Y-82250000D01*
X154388072Y-81358665D01*
X157065000Y-81358665D01*
X157065000Y-81641335D01*
X157120147Y-81918574D01*
X157228320Y-82179727D01*
X157385363Y-82414759D01*
X157585241Y-82614637D01*
X157820273Y-82771680D01*
X158081426Y-82879853D01*
X158358665Y-82935000D01*
X158641335Y-82935000D01*
X158918574Y-82879853D01*
X159179727Y-82771680D01*
X159414759Y-82614637D01*
X159614637Y-82414759D01*
X159771680Y-82179727D01*
X159879853Y-81918574D01*
X159935000Y-81641335D01*
X159935000Y-81358665D01*
X159879853Y-81081426D01*
X159771680Y-80820273D01*
X159614637Y-80585241D01*
X159414759Y-80385363D01*
X159179727Y-80228320D01*
X158918574Y-80120147D01*
X158641335Y-80065000D01*
X158358665Y-80065000D01*
X158081426Y-80120147D01*
X157820273Y-80228320D01*
X157585241Y-80385363D01*
X157385363Y-80585241D01*
X157228320Y-80820273D01*
X157120147Y-81081426D01*
X157065000Y-81358665D01*
X154388072Y-81358665D01*
X154388072Y-80750000D01*
X154375812Y-80625518D01*
X154339502Y-80505820D01*
X154280537Y-80395506D01*
X154201185Y-80298815D01*
X154104494Y-80219463D01*
X153994180Y-80160498D01*
X153874482Y-80124188D01*
X153766517Y-80113555D01*
X153882886Y-80035799D01*
X154075799Y-79842886D01*
X154227371Y-79616043D01*
X154331775Y-79363989D01*
X154385000Y-79096411D01*
X154385000Y-78823589D01*
X154331775Y-78556011D01*
X154227371Y-78303957D01*
X154075799Y-78077114D01*
X153882886Y-77884201D01*
X153656043Y-77732629D01*
X153556721Y-77691489D01*
X153598832Y-77676277D01*
X153711863Y-77615860D01*
X153745647Y-77492702D01*
X157686903Y-77492702D01*
X157758486Y-77736671D01*
X158013996Y-77857571D01*
X158288184Y-77926300D01*
X158570512Y-77940217D01*
X158850130Y-77898787D01*
X159116292Y-77803603D01*
X159241514Y-77736671D01*
X159313097Y-77492702D01*
X158500000Y-76679605D01*
X157686903Y-77492702D01*
X153745647Y-77492702D01*
X153777388Y-77376993D01*
X153000000Y-76599605D01*
X152222612Y-77376993D01*
X152288137Y-77615860D01*
X152446477Y-77690164D01*
X152343957Y-77732629D01*
X152117114Y-77884201D01*
X151924201Y-78077114D01*
X151772629Y-78303957D01*
X151668225Y-78556011D01*
X151615000Y-78823589D01*
X151615000Y-79096411D01*
X151668225Y-79363989D01*
X151772629Y-79616043D01*
X151924201Y-79842886D01*
X152117114Y-80035799D01*
X152233483Y-80113555D01*
X152125518Y-80124188D01*
X152005820Y-80160498D01*
X151895506Y-80219463D01*
X151798815Y-80298815D01*
X151719463Y-80395506D01*
X151660498Y-80505820D01*
X151624188Y-80625518D01*
X151611928Y-80750000D01*
X147958375Y-80750000D01*
X147937632Y-80681620D01*
X147930353Y-80668002D01*
X151700150Y-76898205D01*
X151743723Y-77018832D01*
X151804140Y-77131863D01*
X152043007Y-77197388D01*
X152820395Y-76420000D01*
X153179605Y-76420000D01*
X153956993Y-77197388D01*
X154195860Y-77131863D01*
X154311760Y-76884884D01*
X154377250Y-76620040D01*
X154379532Y-76570512D01*
X157059783Y-76570512D01*
X157101213Y-76850130D01*
X157196397Y-77116292D01*
X157263329Y-77241514D01*
X157507298Y-77313097D01*
X158320395Y-76500000D01*
X158679605Y-76500000D01*
X159492702Y-77313097D01*
X159736671Y-77241514D01*
X159857571Y-76986004D01*
X159926300Y-76711816D01*
X159940217Y-76429488D01*
X159898787Y-76149870D01*
X159803603Y-75883708D01*
X159790218Y-75858665D01*
X160565000Y-75858665D01*
X160565000Y-76141335D01*
X160620147Y-76418574D01*
X160728320Y-76679727D01*
X160885363Y-76914759D01*
X161085241Y-77114637D01*
X161320273Y-77271680D01*
X161581426Y-77379853D01*
X161858665Y-77435000D01*
X162141335Y-77435000D01*
X162418574Y-77379853D01*
X162679727Y-77271680D01*
X162914759Y-77114637D01*
X163114637Y-76914759D01*
X163271680Y-76679727D01*
X163379853Y-76418574D01*
X163393684Y-76349039D01*
X168228096Y-76349039D01*
X168268754Y-76483087D01*
X168388963Y-76737420D01*
X168556481Y-76963414D01*
X168764869Y-77152385D01*
X169006119Y-77297070D01*
X169270960Y-77391909D01*
X169493000Y-77270624D01*
X169493000Y-76127000D01*
X169747000Y-76127000D01*
X169747000Y-77270624D01*
X169969040Y-77391909D01*
X170233881Y-77297070D01*
X170475131Y-77152385D01*
X170683519Y-76963414D01*
X170851037Y-76737420D01*
X170971246Y-76483087D01*
X171011904Y-76349039D01*
X170889915Y-76127000D01*
X169747000Y-76127000D01*
X169493000Y-76127000D01*
X168350085Y-76127000D01*
X168228096Y-76349039D01*
X163393684Y-76349039D01*
X163435000Y-76141335D01*
X163435000Y-75858665D01*
X163393685Y-75650961D01*
X168228096Y-75650961D01*
X168350085Y-75873000D01*
X169493000Y-75873000D01*
X169493000Y-74729376D01*
X169747000Y-74729376D01*
X169747000Y-75873000D01*
X170889915Y-75873000D01*
X171011904Y-75650961D01*
X170971246Y-75516913D01*
X170851037Y-75262580D01*
X170683519Y-75036586D01*
X170475131Y-74847615D01*
X170233881Y-74702930D01*
X169969040Y-74608091D01*
X169747000Y-74729376D01*
X169493000Y-74729376D01*
X169270960Y-74608091D01*
X169006119Y-74702930D01*
X168764869Y-74847615D01*
X168556481Y-75036586D01*
X168388963Y-75262580D01*
X168268754Y-75516913D01*
X168228096Y-75650961D01*
X163393685Y-75650961D01*
X163379853Y-75581426D01*
X163271680Y-75320273D01*
X163114637Y-75085241D01*
X162914759Y-74885363D01*
X162679727Y-74728320D01*
X162418574Y-74620147D01*
X162141335Y-74565000D01*
X161858665Y-74565000D01*
X161581426Y-74620147D01*
X161320273Y-74728320D01*
X161085241Y-74885363D01*
X160885363Y-75085241D01*
X160728320Y-75320273D01*
X160620147Y-75581426D01*
X160565000Y-75858665D01*
X159790218Y-75858665D01*
X159736671Y-75758486D01*
X159492702Y-75686903D01*
X158679605Y-76500000D01*
X158320395Y-76500000D01*
X157507298Y-75686903D01*
X157263329Y-75758486D01*
X157142429Y-76013996D01*
X157073700Y-76288184D01*
X157059783Y-76570512D01*
X154379532Y-76570512D01*
X154389812Y-76347508D01*
X154348965Y-76077762D01*
X154256277Y-75821168D01*
X154195860Y-75708137D01*
X153956993Y-75642612D01*
X153179605Y-76420000D01*
X152820395Y-76420000D01*
X152806253Y-76405858D01*
X152985858Y-76226253D01*
X153000000Y-76240395D01*
X153733097Y-75507298D01*
X157686903Y-75507298D01*
X158500000Y-76320395D01*
X159313097Y-75507298D01*
X159241514Y-75263329D01*
X158986004Y-75142429D01*
X158711816Y-75073700D01*
X158429488Y-75059783D01*
X158149870Y-75101213D01*
X157883708Y-75196397D01*
X157758486Y-75263329D01*
X157686903Y-75507298D01*
X153733097Y-75507298D01*
X153777388Y-75463007D01*
X153711863Y-75224140D01*
X153482056Y-75116299D01*
X154588355Y-74010000D01*
X157600604Y-74010000D01*
X157705241Y-74114637D01*
X157940273Y-74271680D01*
X158201426Y-74379853D01*
X158478665Y-74435000D01*
X158761335Y-74435000D01*
X159038574Y-74379853D01*
X159299727Y-74271680D01*
X159534759Y-74114637D01*
X159734637Y-73914759D01*
X159891680Y-73679727D01*
X159999853Y-73418574D01*
X160055000Y-73141335D01*
X160055000Y-72858665D01*
X159999853Y-72581426D01*
X159891680Y-72320273D01*
X159734637Y-72085241D01*
X159534759Y-71885363D01*
X159299727Y-71728320D01*
X159038574Y-71620147D01*
X158761335Y-71565000D01*
X158478665Y-71565000D01*
X158201426Y-71620147D01*
X157940273Y-71728320D01*
X157705241Y-71885363D01*
X157600604Y-71990000D01*
X155180000Y-71990000D01*
X155180000Y-71379999D01*
X165261928Y-71379999D01*
X165261928Y-72620001D01*
X165278992Y-72793255D01*
X165329528Y-72959851D01*
X165411595Y-73113387D01*
X165522038Y-73247962D01*
X165656613Y-73358405D01*
X165810149Y-73440472D01*
X165976745Y-73491008D01*
X166149999Y-73508072D01*
X167850001Y-73508072D01*
X168023255Y-73491008D01*
X168189851Y-73440472D01*
X168343387Y-73358405D01*
X168477962Y-73247962D01*
X168588405Y-73113387D01*
X168670472Y-72959851D01*
X168721008Y-72793255D01*
X168738072Y-72620001D01*
X168738072Y-71379999D01*
X168721008Y-71206745D01*
X168670472Y-71040149D01*
X168588405Y-70886613D01*
X168477962Y-70752038D01*
X168343387Y-70641595D01*
X168234686Y-70583493D01*
X168390536Y-70430494D01*
X168557571Y-70185437D01*
X168673588Y-69912502D01*
X168691302Y-69820031D01*
X168570246Y-69587000D01*
X167127000Y-69587000D01*
X167127000Y-69607000D01*
X166873000Y-69607000D01*
X166873000Y-69587000D01*
X165429754Y-69587000D01*
X165308698Y-69820031D01*
X165326412Y-69912502D01*
X165442429Y-70185437D01*
X165609464Y-70430494D01*
X165765314Y-70583493D01*
X165656613Y-70641595D01*
X165522038Y-70752038D01*
X165411595Y-70886613D01*
X165329528Y-71040149D01*
X165278992Y-71206745D01*
X165261928Y-71379999D01*
X155180000Y-71379999D01*
X155180000Y-68858665D01*
X157185000Y-68858665D01*
X157185000Y-69141335D01*
X157240147Y-69418574D01*
X157348320Y-69679727D01*
X157505363Y-69914759D01*
X157705241Y-70114637D01*
X157940273Y-70271680D01*
X158201426Y-70379853D01*
X158478665Y-70435000D01*
X158761335Y-70435000D01*
X159038574Y-70379853D01*
X159299727Y-70271680D01*
X159534759Y-70114637D01*
X159734637Y-69914759D01*
X159891680Y-69679727D01*
X159999853Y-69418574D01*
X160055000Y-69141335D01*
X160055000Y-69099969D01*
X165308698Y-69099969D01*
X165429754Y-69333000D01*
X166873000Y-69333000D01*
X166873000Y-68109414D01*
X167127000Y-68109414D01*
X167127000Y-69333000D01*
X168570246Y-69333000D01*
X168691302Y-69099969D01*
X168673588Y-69007498D01*
X168557571Y-68734563D01*
X168390536Y-68489506D01*
X168178903Y-68281744D01*
X167930804Y-68119262D01*
X167655773Y-68008304D01*
X167364380Y-67953134D01*
X167127000Y-68109414D01*
X166873000Y-68109414D01*
X166635620Y-67953134D01*
X166344227Y-68008304D01*
X166069196Y-68119262D01*
X165821097Y-68281744D01*
X165609464Y-68489506D01*
X165442429Y-68734563D01*
X165326412Y-69007498D01*
X165308698Y-69099969D01*
X160055000Y-69099969D01*
X160055000Y-68858665D01*
X159999853Y-68581426D01*
X159891680Y-68320273D01*
X159734637Y-68085241D01*
X159534759Y-67885363D01*
X159299727Y-67728320D01*
X159038574Y-67620147D01*
X158761335Y-67565000D01*
X158478665Y-67565000D01*
X158201426Y-67620147D01*
X157940273Y-67728320D01*
X157705241Y-67885363D01*
X157505363Y-68085241D01*
X157348320Y-68320273D01*
X157240147Y-68581426D01*
X157185000Y-68858665D01*
X155180000Y-68858665D01*
X155180000Y-65396122D01*
X157310825Y-65396122D01*
X157375425Y-65609094D01*
X157525469Y-65914329D01*
X157732178Y-66184427D01*
X157987609Y-66409008D01*
X158281946Y-66579442D01*
X158603877Y-66689179D01*
X158873000Y-66571600D01*
X158873000Y-65127000D01*
X157428875Y-65127000D01*
X157310825Y-65396122D01*
X155180000Y-65396122D01*
X155180000Y-64603878D01*
X157310825Y-64603878D01*
X157428875Y-64873000D01*
X158873000Y-64873000D01*
X158873000Y-63428400D01*
X159127000Y-63428400D01*
X159127000Y-64873000D01*
X159147000Y-64873000D01*
X159147000Y-65127000D01*
X159127000Y-65127000D01*
X159127000Y-66571600D01*
X159396123Y-66689179D01*
X159718054Y-66579442D01*
X160012391Y-66409008D01*
X160267822Y-66184427D01*
X160474531Y-65914329D01*
X160624575Y-65609094D01*
X160656063Y-65505284D01*
X160728320Y-65679727D01*
X160885363Y-65914759D01*
X161085241Y-66114637D01*
X161320273Y-66271680D01*
X161581426Y-66379853D01*
X161858665Y-66435000D01*
X162141335Y-66435000D01*
X162418574Y-66379853D01*
X162679727Y-66271680D01*
X162914759Y-66114637D01*
X163114637Y-65914759D01*
X163271680Y-65679727D01*
X163379853Y-65418574D01*
X163393684Y-65349039D01*
X168228096Y-65349039D01*
X168268754Y-65483087D01*
X168388963Y-65737420D01*
X168556481Y-65963414D01*
X168764869Y-66152385D01*
X169006119Y-66297070D01*
X169270960Y-66391909D01*
X169493000Y-66270624D01*
X169493000Y-65127000D01*
X169747000Y-65127000D01*
X169747000Y-66270624D01*
X169969040Y-66391909D01*
X170233881Y-66297070D01*
X170475131Y-66152385D01*
X170683519Y-65963414D01*
X170851037Y-65737420D01*
X170971246Y-65483087D01*
X171011904Y-65349039D01*
X170889915Y-65127000D01*
X169747000Y-65127000D01*
X169493000Y-65127000D01*
X168350085Y-65127000D01*
X168228096Y-65349039D01*
X163393684Y-65349039D01*
X163435000Y-65141335D01*
X163435000Y-64858665D01*
X163393685Y-64650961D01*
X168228096Y-64650961D01*
X168350085Y-64873000D01*
X169493000Y-64873000D01*
X169493000Y-63729376D01*
X169747000Y-63729376D01*
X169747000Y-64873000D01*
X170889915Y-64873000D01*
X171011904Y-64650961D01*
X170971246Y-64516913D01*
X170851037Y-64262580D01*
X170683519Y-64036586D01*
X170475131Y-63847615D01*
X170233881Y-63702930D01*
X169969040Y-63608091D01*
X169747000Y-63729376D01*
X169493000Y-63729376D01*
X169270960Y-63608091D01*
X169006119Y-63702930D01*
X168764869Y-63847615D01*
X168556481Y-64036586D01*
X168388963Y-64262580D01*
X168268754Y-64516913D01*
X168228096Y-64650961D01*
X163393685Y-64650961D01*
X163379853Y-64581426D01*
X163271680Y-64320273D01*
X163114637Y-64085241D01*
X162914759Y-63885363D01*
X162679727Y-63728320D01*
X162418574Y-63620147D01*
X162141335Y-63565000D01*
X161858665Y-63565000D01*
X161581426Y-63620147D01*
X161320273Y-63728320D01*
X161085241Y-63885363D01*
X160885363Y-64085241D01*
X160728320Y-64320273D01*
X160656063Y-64494716D01*
X160624575Y-64390906D01*
X160474531Y-64085671D01*
X160267822Y-63815573D01*
X160012391Y-63590992D01*
X159718054Y-63420558D01*
X159396123Y-63310821D01*
X159127000Y-63428400D01*
X158873000Y-63428400D01*
X158603877Y-63310821D01*
X158281946Y-63420558D01*
X157987609Y-63590992D01*
X157732178Y-63815573D01*
X157525469Y-64085671D01*
X157375425Y-64390906D01*
X157310825Y-64603878D01*
X155180000Y-64603878D01*
X155180000Y-60829117D01*
X157265000Y-60829117D01*
X157265000Y-61170883D01*
X157331675Y-61506081D01*
X157462463Y-61821831D01*
X157652337Y-62105998D01*
X157894002Y-62347663D01*
X158178169Y-62537537D01*
X158493919Y-62668325D01*
X158829117Y-62735000D01*
X159170883Y-62735000D01*
X159506081Y-62668325D01*
X159821831Y-62537537D01*
X160105998Y-62347663D01*
X160347663Y-62105998D01*
X160537537Y-61821831D01*
X160668325Y-61506081D01*
X160735000Y-61170883D01*
X160735000Y-60829117D01*
X160668325Y-60493919D01*
X160537537Y-60178169D01*
X160347663Y-59894002D01*
X160105998Y-59652337D01*
X159821831Y-59462463D01*
X159622746Y-59379999D01*
X165261928Y-59379999D01*
X165261928Y-60620001D01*
X165278992Y-60793255D01*
X165329528Y-60959851D01*
X165411595Y-61113387D01*
X165522038Y-61247962D01*
X165656613Y-61358405D01*
X165810149Y-61440472D01*
X165976745Y-61491008D01*
X166149999Y-61508072D01*
X167850001Y-61508072D01*
X168023255Y-61491008D01*
X168189851Y-61440472D01*
X168343387Y-61358405D01*
X168477962Y-61247962D01*
X168588405Y-61113387D01*
X168670472Y-60959851D01*
X168721008Y-60793255D01*
X168738072Y-60620001D01*
X168738072Y-59379999D01*
X168721008Y-59206745D01*
X168670472Y-59040149D01*
X168588405Y-58886613D01*
X168477962Y-58752038D01*
X168343387Y-58641595D01*
X168234686Y-58583493D01*
X168390536Y-58430494D01*
X168557571Y-58185437D01*
X168673588Y-57912502D01*
X168691302Y-57820031D01*
X168570246Y-57587000D01*
X167127000Y-57587000D01*
X167127000Y-57607000D01*
X166873000Y-57607000D01*
X166873000Y-57587000D01*
X165429754Y-57587000D01*
X165308698Y-57820031D01*
X165326412Y-57912502D01*
X165442429Y-58185437D01*
X165609464Y-58430494D01*
X165765314Y-58583493D01*
X165656613Y-58641595D01*
X165522038Y-58752038D01*
X165411595Y-58886613D01*
X165329528Y-59040149D01*
X165278992Y-59206745D01*
X165261928Y-59379999D01*
X159622746Y-59379999D01*
X159506081Y-59331675D01*
X159170883Y-59265000D01*
X158829117Y-59265000D01*
X158493919Y-59331675D01*
X158178169Y-59462463D01*
X157894002Y-59652337D01*
X157652337Y-59894002D01*
X157462463Y-60178169D01*
X157331675Y-60493919D01*
X157265000Y-60829117D01*
X155180000Y-60829117D01*
X155180000Y-57804606D01*
X155184886Y-57754998D01*
X155165385Y-57557003D01*
X155107632Y-57366618D01*
X155013846Y-57191157D01*
X154972959Y-57141335D01*
X154887633Y-57037365D01*
X154849100Y-57005742D01*
X154702023Y-56858665D01*
X157565000Y-56858665D01*
X157565000Y-57141335D01*
X157620147Y-57418574D01*
X157728320Y-57679727D01*
X157885363Y-57914759D01*
X158085241Y-58114637D01*
X158320273Y-58271680D01*
X158581426Y-58379853D01*
X158858665Y-58435000D01*
X159141335Y-58435000D01*
X159418574Y-58379853D01*
X159679727Y-58271680D01*
X159914759Y-58114637D01*
X160114637Y-57914759D01*
X160271680Y-57679727D01*
X160379853Y-57418574D01*
X160435000Y-57141335D01*
X160435000Y-57099969D01*
X165308698Y-57099969D01*
X165429754Y-57333000D01*
X166873000Y-57333000D01*
X166873000Y-56109414D01*
X167127000Y-56109414D01*
X167127000Y-57333000D01*
X168570246Y-57333000D01*
X168691302Y-57099969D01*
X168673588Y-57007498D01*
X168557571Y-56734563D01*
X168390536Y-56489506D01*
X168178903Y-56281744D01*
X167930804Y-56119262D01*
X167655773Y-56008304D01*
X167364380Y-55953134D01*
X167127000Y-56109414D01*
X166873000Y-56109414D01*
X166635620Y-55953134D01*
X166344227Y-56008304D01*
X166069196Y-56119262D01*
X165821097Y-56281744D01*
X165609464Y-56489506D01*
X165442429Y-56734563D01*
X165326412Y-57007498D01*
X165308698Y-57099969D01*
X160435000Y-57099969D01*
X160435000Y-56858665D01*
X160379853Y-56581426D01*
X160271680Y-56320273D01*
X160114637Y-56085241D01*
X159914759Y-55885363D01*
X159679727Y-55728320D01*
X159418574Y-55620147D01*
X159141335Y-55565000D01*
X158858665Y-55565000D01*
X158581426Y-55620147D01*
X158320273Y-55728320D01*
X158085241Y-55885363D01*
X157885363Y-56085241D01*
X157728320Y-56320273D01*
X157620147Y-56581426D01*
X157565000Y-56858665D01*
X154702023Y-56858665D01*
X152092883Y-54249526D01*
X152294759Y-54114637D01*
X152494637Y-53914759D01*
X152651680Y-53679727D01*
X152759853Y-53418574D01*
X152773684Y-53349039D01*
X157608096Y-53349039D01*
X157648754Y-53483087D01*
X157768963Y-53737420D01*
X157936481Y-53963414D01*
X158144869Y-54152385D01*
X158386119Y-54297070D01*
X158650960Y-54391909D01*
X158873000Y-54270624D01*
X158873000Y-53127000D01*
X159127000Y-53127000D01*
X159127000Y-54270624D01*
X159349040Y-54391909D01*
X159613881Y-54297070D01*
X159855131Y-54152385D01*
X160063519Y-53963414D01*
X160231037Y-53737420D01*
X160351246Y-53483087D01*
X160391904Y-53349039D01*
X160269915Y-53127000D01*
X159127000Y-53127000D01*
X158873000Y-53127000D01*
X157730085Y-53127000D01*
X157608096Y-53349039D01*
X152773684Y-53349039D01*
X152815000Y-53141335D01*
X152815000Y-52858665D01*
X152773685Y-52650961D01*
X157608096Y-52650961D01*
X157730085Y-52873000D01*
X158873000Y-52873000D01*
X158873000Y-51729376D01*
X159127000Y-51729376D01*
X159127000Y-52873000D01*
X160269915Y-52873000D01*
X160391904Y-52650961D01*
X160351246Y-52516913D01*
X160286535Y-52379999D01*
X165261928Y-52379999D01*
X165261928Y-53620001D01*
X165278992Y-53793255D01*
X165329528Y-53959851D01*
X165411595Y-54113387D01*
X165522038Y-54247962D01*
X165656613Y-54358405D01*
X165810149Y-54440472D01*
X165976745Y-54491008D01*
X166149999Y-54508072D01*
X167850001Y-54508072D01*
X168023255Y-54491008D01*
X168189851Y-54440472D01*
X168343387Y-54358405D01*
X168477962Y-54247962D01*
X168588405Y-54113387D01*
X168670472Y-53959851D01*
X168721008Y-53793255D01*
X168738072Y-53620001D01*
X168738072Y-52379999D01*
X168721008Y-52206745D01*
X168670472Y-52040149D01*
X168588405Y-51886613D01*
X168477962Y-51752038D01*
X168343387Y-51641595D01*
X168234686Y-51583493D01*
X168390536Y-51430494D01*
X168557571Y-51185437D01*
X168673588Y-50912502D01*
X168691302Y-50820031D01*
X168570246Y-50587000D01*
X167127000Y-50587000D01*
X167127000Y-50607000D01*
X166873000Y-50607000D01*
X166873000Y-50587000D01*
X165429754Y-50587000D01*
X165308698Y-50820031D01*
X165326412Y-50912502D01*
X165442429Y-51185437D01*
X165609464Y-51430494D01*
X165765314Y-51583493D01*
X165656613Y-51641595D01*
X165522038Y-51752038D01*
X165411595Y-51886613D01*
X165329528Y-52040149D01*
X165278992Y-52206745D01*
X165261928Y-52379999D01*
X160286535Y-52379999D01*
X160231037Y-52262580D01*
X160063519Y-52036586D01*
X159855131Y-51847615D01*
X159613881Y-51702930D01*
X159349040Y-51608091D01*
X159127000Y-51729376D01*
X158873000Y-51729376D01*
X158650960Y-51608091D01*
X158386119Y-51702930D01*
X158144869Y-51847615D01*
X157936481Y-52036586D01*
X157768963Y-52262580D01*
X157648754Y-52516913D01*
X157608096Y-52650961D01*
X152773685Y-52650961D01*
X152759853Y-52581426D01*
X152651680Y-52320273D01*
X152494637Y-52085241D01*
X152294759Y-51885363D01*
X152059727Y-51728320D01*
X151798574Y-51620147D01*
X151521335Y-51565000D01*
X151238665Y-51565000D01*
X150961426Y-51620147D01*
X150700273Y-51728320D01*
X150465241Y-51885363D01*
X150265363Y-52085241D01*
X150133193Y-52283047D01*
X150132635Y-52282367D01*
X149978842Y-52156153D01*
X149803382Y-52062368D01*
X149612996Y-52004615D01*
X149464610Y-51990000D01*
X149415002Y-51985114D01*
X149365394Y-51990000D01*
X148399870Y-51990000D01*
X148389502Y-51955820D01*
X148330537Y-51845506D01*
X148251185Y-51748815D01*
X148154494Y-51669463D01*
X148044180Y-51610498D01*
X148010000Y-51600130D01*
X148010000Y-49396122D01*
X149690825Y-49396122D01*
X149755425Y-49609094D01*
X149905469Y-49914329D01*
X150112178Y-50184427D01*
X150367609Y-50409008D01*
X150661946Y-50579442D01*
X150983877Y-50689179D01*
X151253000Y-50571600D01*
X151253000Y-49127000D01*
X151507000Y-49127000D01*
X151507000Y-50571600D01*
X151776123Y-50689179D01*
X152098054Y-50579442D01*
X152392391Y-50409008D01*
X152647822Y-50184427D01*
X152854531Y-49914329D01*
X153004575Y-49609094D01*
X153069175Y-49396122D01*
X152951125Y-49127000D01*
X151507000Y-49127000D01*
X151253000Y-49127000D01*
X149808875Y-49127000D01*
X149690825Y-49396122D01*
X148010000Y-49396122D01*
X148010000Y-48738072D01*
X148100000Y-48738072D01*
X148224482Y-48725812D01*
X148344180Y-48689502D01*
X148454494Y-48630537D01*
X148486978Y-48603878D01*
X149690825Y-48603878D01*
X149808875Y-48873000D01*
X151253000Y-48873000D01*
X151253000Y-47428400D01*
X151507000Y-47428400D01*
X151507000Y-48873000D01*
X152951125Y-48873000D01*
X153069175Y-48603878D01*
X153004575Y-48390906D01*
X152854531Y-48085671D01*
X152712435Y-47900000D01*
X157261928Y-47900000D01*
X157261928Y-50100000D01*
X157274188Y-50224482D01*
X157310498Y-50344180D01*
X157369463Y-50454494D01*
X157448815Y-50551185D01*
X157545506Y-50630537D01*
X157655820Y-50689502D01*
X157775518Y-50725812D01*
X157900000Y-50738072D01*
X160100000Y-50738072D01*
X160224482Y-50725812D01*
X160344180Y-50689502D01*
X160454494Y-50630537D01*
X160551185Y-50551185D01*
X160630537Y-50454494D01*
X160689502Y-50344180D01*
X160725812Y-50224482D01*
X160738072Y-50100000D01*
X160738072Y-50099969D01*
X165308698Y-50099969D01*
X165429754Y-50333000D01*
X166873000Y-50333000D01*
X166873000Y-49109414D01*
X167127000Y-49109414D01*
X167127000Y-50333000D01*
X168570246Y-50333000D01*
X168691302Y-50099969D01*
X168673588Y-50007498D01*
X168557571Y-49734563D01*
X168390536Y-49489506D01*
X168178903Y-49281744D01*
X167930804Y-49119262D01*
X167655773Y-49008304D01*
X167364380Y-48953134D01*
X167127000Y-49109414D01*
X166873000Y-49109414D01*
X166635620Y-48953134D01*
X166344227Y-49008304D01*
X166069196Y-49119262D01*
X165821097Y-49281744D01*
X165609464Y-49489506D01*
X165442429Y-49734563D01*
X165326412Y-50007498D01*
X165308698Y-50099969D01*
X160738072Y-50099969D01*
X160738072Y-47900000D01*
X160725812Y-47775518D01*
X160689502Y-47655820D01*
X160630537Y-47545506D01*
X160551185Y-47448815D01*
X160454494Y-47369463D01*
X160344180Y-47310498D01*
X160224482Y-47274188D01*
X160100000Y-47261928D01*
X157900000Y-47261928D01*
X157775518Y-47274188D01*
X157655820Y-47310498D01*
X157545506Y-47369463D01*
X157448815Y-47448815D01*
X157369463Y-47545506D01*
X157310498Y-47655820D01*
X157274188Y-47775518D01*
X157261928Y-47900000D01*
X152712435Y-47900000D01*
X152647822Y-47815573D01*
X152392391Y-47590992D01*
X152098054Y-47420558D01*
X151776123Y-47310821D01*
X151507000Y-47428400D01*
X151253000Y-47428400D01*
X150983877Y-47310821D01*
X150661946Y-47420558D01*
X150367609Y-47590992D01*
X150112178Y-47815573D01*
X149905469Y-48085671D01*
X149755425Y-48390906D01*
X149690825Y-48603878D01*
X148486978Y-48603878D01*
X148551185Y-48551185D01*
X148630537Y-48454494D01*
X148689502Y-48344180D01*
X148725812Y-48224482D01*
X148738072Y-48100000D01*
X148738072Y-45900000D01*
X148725812Y-45775518D01*
X148689502Y-45655820D01*
X148630537Y-45545506D01*
X148551185Y-45448815D01*
X148454494Y-45369463D01*
X148344180Y-45310498D01*
X148224482Y-45274188D01*
X148100000Y-45261928D01*
X145900000Y-45261928D01*
X145775518Y-45274188D01*
X145655820Y-45310498D01*
X145545506Y-45369463D01*
X145448815Y-45448815D01*
X145369463Y-45545506D01*
X145310498Y-45655820D01*
X145274188Y-45775518D01*
X145261928Y-45900000D01*
X145261928Y-48100000D01*
X145274188Y-48224482D01*
X145310498Y-48344180D01*
X145369463Y-48454494D01*
X145448815Y-48551185D01*
X145545506Y-48630537D01*
X145655820Y-48689502D01*
X145775518Y-48725812D01*
X145900000Y-48738072D01*
X145990000Y-48738072D01*
X145990001Y-51600129D01*
X145955820Y-51610498D01*
X145845506Y-51669463D01*
X145748815Y-51748815D01*
X145669463Y-51845506D01*
X145610498Y-51955820D01*
X145574188Y-52075518D01*
X145561928Y-52200000D01*
X145561928Y-53009717D01*
X144581645Y-53990000D01*
X141493163Y-53990000D01*
X141501672Y-53903600D01*
X141501672Y-52176400D01*
X141489412Y-52051918D01*
X141453102Y-51932220D01*
X141394137Y-51821906D01*
X141314785Y-51725215D01*
X141218094Y-51645863D01*
X141107780Y-51586898D01*
X141043426Y-51567376D01*
X141106854Y-51510293D01*
X141282684Y-51274944D01*
X141409222Y-51009814D01*
X141454958Y-50859026D01*
X141333817Y-50627000D01*
X140127000Y-50627000D01*
X140127000Y-50647000D01*
X139873000Y-50647000D01*
X139873000Y-50627000D01*
X137587000Y-50627000D01*
X137587000Y-50647000D01*
X137333000Y-50647000D01*
X137333000Y-50627000D01*
X136126183Y-50627000D01*
X136005042Y-50859026D01*
X136050778Y-51009814D01*
X136177316Y-51274944D01*
X136353146Y-51510293D01*
X136571512Y-51706817D01*
X136670103Y-51765441D01*
X136504698Y-51875961D01*
X136295961Y-52084698D01*
X136131958Y-52330147D01*
X136018990Y-52602875D01*
X135961400Y-52892401D01*
X135961400Y-53187599D01*
X136018990Y-53477125D01*
X136131958Y-53749853D01*
X136292418Y-53990000D01*
X131591825Y-53990000D01*
X131463926Y-53798587D01*
X131201413Y-53536074D01*
X130892731Y-53329818D01*
X130549741Y-53187747D01*
X130185625Y-53115320D01*
X129814375Y-53115320D01*
X129450259Y-53187747D01*
X129107269Y-53329818D01*
X128798587Y-53536074D01*
X128536074Y-53798587D01*
X128329818Y-54107269D01*
X128187747Y-54450259D01*
X128115320Y-54814375D01*
X127660000Y-54814375D01*
X127660000Y-49313377D01*
X128866229Y-49313377D01*
X128992104Y-49603315D01*
X129324262Y-49769139D01*
X129682387Y-49866975D01*
X130052719Y-49893065D01*
X130421025Y-49846405D01*
X130773151Y-49728789D01*
X131007896Y-49603315D01*
X131133771Y-49313377D01*
X130000000Y-48179605D01*
X128866229Y-49313377D01*
X127660000Y-49313377D01*
X127660000Y-48052719D01*
X128106935Y-48052719D01*
X128153595Y-48421025D01*
X128271211Y-48773151D01*
X128396685Y-49007896D01*
X128686623Y-49133771D01*
X129820395Y-48000000D01*
X130179605Y-48000000D01*
X131313377Y-49133771D01*
X131603315Y-49007896D01*
X131769139Y-48675738D01*
X131866588Y-48319026D01*
X136005042Y-48319026D01*
X136050778Y-48469814D01*
X136177316Y-48734944D01*
X136353146Y-48970293D01*
X136571512Y-49166817D01*
X136677770Y-49230000D01*
X136571512Y-49293183D01*
X136353146Y-49489707D01*
X136177316Y-49725056D01*
X136050778Y-49990186D01*
X136005042Y-50140974D01*
X136126183Y-50373000D01*
X137333000Y-50373000D01*
X137333000Y-48087000D01*
X137587000Y-48087000D01*
X137587000Y-50373000D01*
X139873000Y-50373000D01*
X139873000Y-48087000D01*
X140127000Y-48087000D01*
X140127000Y-50373000D01*
X141333817Y-50373000D01*
X141454958Y-50140974D01*
X141409222Y-49990186D01*
X141282684Y-49725056D01*
X141106854Y-49489707D01*
X140888488Y-49293183D01*
X140782230Y-49230000D01*
X140888488Y-49166817D01*
X141106854Y-48970293D01*
X141282684Y-48734944D01*
X141409222Y-48469814D01*
X141454958Y-48319026D01*
X141333817Y-48087000D01*
X140127000Y-48087000D01*
X139873000Y-48087000D01*
X137587000Y-48087000D01*
X137333000Y-48087000D01*
X136126183Y-48087000D01*
X136005042Y-48319026D01*
X131866588Y-48319026D01*
X131866975Y-48317613D01*
X131893065Y-47947281D01*
X131846405Y-47578975D01*
X131728789Y-47226849D01*
X131603315Y-46992104D01*
X131313377Y-46866229D01*
X130179605Y-48000000D01*
X129820395Y-48000000D01*
X128686623Y-46866229D01*
X128396685Y-46992104D01*
X128230861Y-47324262D01*
X128133025Y-47682387D01*
X128106935Y-48052719D01*
X127660000Y-48052719D01*
X127660000Y-46686623D01*
X128866229Y-46686623D01*
X130000000Y-47820395D01*
X131133771Y-46686623D01*
X131007896Y-46396685D01*
X130675738Y-46230861D01*
X130317613Y-46133025D01*
X129947281Y-46106935D01*
X129578975Y-46153595D01*
X129226849Y-46271211D01*
X128992104Y-46396685D01*
X128866229Y-46686623D01*
X127660000Y-46686623D01*
X127660000Y-45779026D01*
X136005042Y-45779026D01*
X136050778Y-45929814D01*
X136177316Y-46194944D01*
X136353146Y-46430293D01*
X136571512Y-46626817D01*
X136677770Y-46690000D01*
X136571512Y-46753183D01*
X136353146Y-46949707D01*
X136177316Y-47185056D01*
X136050778Y-47450186D01*
X136005042Y-47600974D01*
X136126183Y-47833000D01*
X137333000Y-47833000D01*
X137333000Y-45547000D01*
X137587000Y-45547000D01*
X137587000Y-47833000D01*
X139873000Y-47833000D01*
X139873000Y-45547000D01*
X140127000Y-45547000D01*
X140127000Y-47833000D01*
X141333817Y-47833000D01*
X141454958Y-47600974D01*
X141409222Y-47450186D01*
X141282684Y-47185056D01*
X141106854Y-46949707D01*
X140888488Y-46753183D01*
X140782230Y-46690000D01*
X140888488Y-46626817D01*
X141106854Y-46430293D01*
X141282684Y-46194944D01*
X141409222Y-45929814D01*
X141454958Y-45779026D01*
X141333817Y-45547000D01*
X140127000Y-45547000D01*
X139873000Y-45547000D01*
X137587000Y-45547000D01*
X137333000Y-45547000D01*
X136126183Y-45547000D01*
X136005042Y-45779026D01*
X127660000Y-45779026D01*
X127660000Y-42732401D01*
X135961400Y-42732401D01*
X135961400Y-43027599D01*
X136018990Y-43317125D01*
X136131958Y-43589853D01*
X136295961Y-43835302D01*
X136504698Y-44044039D01*
X136670103Y-44154559D01*
X136571512Y-44213183D01*
X136353146Y-44409707D01*
X136177316Y-44645056D01*
X136050778Y-44910186D01*
X136005042Y-45060974D01*
X136126183Y-45293000D01*
X137333000Y-45293000D01*
X137333000Y-45273000D01*
X137587000Y-45273000D01*
X137587000Y-45293000D01*
X139873000Y-45293000D01*
X139873000Y-45273000D01*
X140127000Y-45273000D01*
X140127000Y-45293000D01*
X141333817Y-45293000D01*
X141454958Y-45060974D01*
X141409222Y-44910186D01*
X141384633Y-44858665D01*
X149945000Y-44858665D01*
X149945000Y-45141335D01*
X150000147Y-45418574D01*
X150108320Y-45679727D01*
X150265363Y-45914759D01*
X150465241Y-46114637D01*
X150700273Y-46271680D01*
X150961426Y-46379853D01*
X151238665Y-46435000D01*
X151521335Y-46435000D01*
X151798574Y-46379853D01*
X152059727Y-46271680D01*
X152294759Y-46114637D01*
X152494637Y-45914759D01*
X152651680Y-45679727D01*
X152759853Y-45418574D01*
X152815000Y-45141335D01*
X152815000Y-44858665D01*
X157565000Y-44858665D01*
X157565000Y-45141335D01*
X157620147Y-45418574D01*
X157728320Y-45679727D01*
X157885363Y-45914759D01*
X158085241Y-46114637D01*
X158320273Y-46271680D01*
X158581426Y-46379853D01*
X158858665Y-46435000D01*
X159141335Y-46435000D01*
X159418574Y-46379853D01*
X159679727Y-46271680D01*
X159914759Y-46114637D01*
X160114637Y-45914759D01*
X160271680Y-45679727D01*
X160379853Y-45418574D01*
X160387526Y-45379999D01*
X165261928Y-45379999D01*
X165261928Y-46620001D01*
X165278992Y-46793255D01*
X165329528Y-46959851D01*
X165411595Y-47113387D01*
X165522038Y-47247962D01*
X165656613Y-47358405D01*
X165810149Y-47440472D01*
X165976745Y-47491008D01*
X166149999Y-47508072D01*
X167850001Y-47508072D01*
X168023255Y-47491008D01*
X168189851Y-47440472D01*
X168343387Y-47358405D01*
X168477962Y-47247962D01*
X168588405Y-47113387D01*
X168670472Y-46959851D01*
X168721008Y-46793255D01*
X168738072Y-46620001D01*
X168738072Y-45379999D01*
X168721008Y-45206745D01*
X168670472Y-45040149D01*
X168588405Y-44886613D01*
X168477962Y-44752038D01*
X168343387Y-44641595D01*
X168234686Y-44583493D01*
X168390536Y-44430494D01*
X168557571Y-44185437D01*
X168673588Y-43912502D01*
X168691302Y-43820031D01*
X168570246Y-43587000D01*
X167127000Y-43587000D01*
X167127000Y-43607000D01*
X166873000Y-43607000D01*
X166873000Y-43587000D01*
X165429754Y-43587000D01*
X165308698Y-43820031D01*
X165326412Y-43912502D01*
X165442429Y-44185437D01*
X165609464Y-44430494D01*
X165765314Y-44583493D01*
X165656613Y-44641595D01*
X165522038Y-44752038D01*
X165411595Y-44886613D01*
X165329528Y-45040149D01*
X165278992Y-45206745D01*
X165261928Y-45379999D01*
X160387526Y-45379999D01*
X160435000Y-45141335D01*
X160435000Y-44858665D01*
X160379853Y-44581426D01*
X160271680Y-44320273D01*
X160114637Y-44085241D01*
X159914759Y-43885363D01*
X159679727Y-43728320D01*
X159418574Y-43620147D01*
X159141335Y-43565000D01*
X158858665Y-43565000D01*
X158581426Y-43620147D01*
X158320273Y-43728320D01*
X158085241Y-43885363D01*
X157885363Y-44085241D01*
X157728320Y-44320273D01*
X157620147Y-44581426D01*
X157565000Y-44858665D01*
X152815000Y-44858665D01*
X152759853Y-44581426D01*
X152651680Y-44320273D01*
X152494637Y-44085241D01*
X152294759Y-43885363D01*
X152059727Y-43728320D01*
X151798574Y-43620147D01*
X151521335Y-43565000D01*
X151238665Y-43565000D01*
X150961426Y-43620147D01*
X150700273Y-43728320D01*
X150465241Y-43885363D01*
X150265363Y-44085241D01*
X150108320Y-44320273D01*
X150000147Y-44581426D01*
X149945000Y-44858665D01*
X141384633Y-44858665D01*
X141282684Y-44645056D01*
X141106854Y-44409707D01*
X140888488Y-44213183D01*
X140789897Y-44154559D01*
X140955302Y-44044039D01*
X141109341Y-43890000D01*
X143450392Y-43890000D01*
X143500000Y-43894886D01*
X143697994Y-43875385D01*
X143888380Y-43817632D01*
X144063840Y-43723847D01*
X144217633Y-43597633D01*
X144249261Y-43559094D01*
X144708386Y-43099969D01*
X165308698Y-43099969D01*
X165429754Y-43333000D01*
X166873000Y-43333000D01*
X166873000Y-42109414D01*
X167127000Y-42109414D01*
X167127000Y-43333000D01*
X168570246Y-43333000D01*
X168691302Y-43099969D01*
X168673588Y-43007498D01*
X168557571Y-42734563D01*
X168390536Y-42489506D01*
X168178903Y-42281744D01*
X167930804Y-42119262D01*
X167655773Y-42008304D01*
X167364380Y-41953134D01*
X167127000Y-42109414D01*
X166873000Y-42109414D01*
X166635620Y-41953134D01*
X166344227Y-42008304D01*
X166069196Y-42119262D01*
X165821097Y-42281744D01*
X165609464Y-42489506D01*
X165442429Y-42734563D01*
X165326412Y-43007498D01*
X165308698Y-43099969D01*
X144708386Y-43099969D01*
X146412233Y-41396122D01*
X149690825Y-41396122D01*
X149755425Y-41609094D01*
X149905469Y-41914329D01*
X150112178Y-42184427D01*
X150367609Y-42409008D01*
X150661946Y-42579442D01*
X150983877Y-42689179D01*
X151253000Y-42571600D01*
X151253000Y-41127000D01*
X151507000Y-41127000D01*
X151507000Y-42571600D01*
X151776123Y-42689179D01*
X152098054Y-42579442D01*
X152392391Y-42409008D01*
X152647822Y-42184427D01*
X152854531Y-41914329D01*
X153004575Y-41609094D01*
X153069175Y-41396122D01*
X152951125Y-41127000D01*
X151507000Y-41127000D01*
X151253000Y-41127000D01*
X149808875Y-41127000D01*
X149690825Y-41396122D01*
X146412233Y-41396122D01*
X146715880Y-41092476D01*
X146829117Y-41115000D01*
X147170883Y-41115000D01*
X147506081Y-41048325D01*
X147821831Y-40917537D01*
X148105998Y-40727663D01*
X148229783Y-40603878D01*
X149690825Y-40603878D01*
X149808875Y-40873000D01*
X151253000Y-40873000D01*
X151253000Y-39428400D01*
X151507000Y-39428400D01*
X151507000Y-40873000D01*
X152951125Y-40873000D01*
X153069175Y-40603878D01*
X153004575Y-40390906D01*
X152854531Y-40085671D01*
X152712435Y-39900000D01*
X157261928Y-39900000D01*
X157261928Y-42100000D01*
X157274188Y-42224482D01*
X157310498Y-42344180D01*
X157369463Y-42454494D01*
X157448815Y-42551185D01*
X157545506Y-42630537D01*
X157655820Y-42689502D01*
X157775518Y-42725812D01*
X157900000Y-42738072D01*
X160100000Y-42738072D01*
X160224482Y-42725812D01*
X160344180Y-42689502D01*
X160454494Y-42630537D01*
X160551185Y-42551185D01*
X160630537Y-42454494D01*
X160689502Y-42344180D01*
X160725812Y-42224482D01*
X160738072Y-42100000D01*
X160738072Y-39900000D01*
X160725812Y-39775518D01*
X160689502Y-39655820D01*
X160630537Y-39545506D01*
X160551185Y-39448815D01*
X160454494Y-39369463D01*
X160344180Y-39310498D01*
X160224482Y-39274188D01*
X160100000Y-39261928D01*
X157900000Y-39261928D01*
X157775518Y-39274188D01*
X157655820Y-39310498D01*
X157545506Y-39369463D01*
X157448815Y-39448815D01*
X157369463Y-39545506D01*
X157310498Y-39655820D01*
X157274188Y-39775518D01*
X157261928Y-39900000D01*
X152712435Y-39900000D01*
X152647822Y-39815573D01*
X152392391Y-39590992D01*
X152098054Y-39420558D01*
X151776123Y-39310821D01*
X151507000Y-39428400D01*
X151253000Y-39428400D01*
X150983877Y-39310821D01*
X150661946Y-39420558D01*
X150367609Y-39590992D01*
X150112178Y-39815573D01*
X149905469Y-40085671D01*
X149755425Y-40390906D01*
X149690825Y-40603878D01*
X148229783Y-40603878D01*
X148347663Y-40485998D01*
X148537537Y-40201831D01*
X148668325Y-39886081D01*
X148735000Y-39550883D01*
X148735000Y-39209117D01*
X148668325Y-38873919D01*
X148537537Y-38558169D01*
X148347663Y-38274002D01*
X148105998Y-38032337D01*
X147821831Y-37842463D01*
X147506081Y-37711675D01*
X147170883Y-37645000D01*
X146829117Y-37645000D01*
X146493919Y-37711675D01*
X146178169Y-37842463D01*
X145894002Y-38032337D01*
X145652337Y-38274002D01*
X145462463Y-38558169D01*
X145331675Y-38873919D01*
X145265000Y-39209117D01*
X145265000Y-39550883D01*
X145287524Y-39664120D01*
X143081645Y-41870000D01*
X141109341Y-41870000D01*
X140955302Y-41715961D01*
X140709853Y-41551958D01*
X140437125Y-41438990D01*
X140147599Y-41381400D01*
X139852401Y-41381400D01*
X139562875Y-41438990D01*
X139290147Y-41551958D01*
X139044698Y-41715961D01*
X138890659Y-41870000D01*
X138569341Y-41870000D01*
X138415302Y-41715961D01*
X138169853Y-41551958D01*
X137897125Y-41438990D01*
X137607599Y-41381400D01*
X137312401Y-41381400D01*
X137022875Y-41438990D01*
X136750147Y-41551958D01*
X136504698Y-41715961D01*
X136295961Y-41924698D01*
X136131958Y-42170147D01*
X136018990Y-42442875D01*
X135961400Y-42732401D01*
X127660000Y-42732401D01*
X127660000Y-36779872D01*
X127765000Y-36779872D01*
X127765000Y-37220128D01*
X127850890Y-37651925D01*
X128019369Y-38058669D01*
X128263962Y-38424729D01*
X128575271Y-38736038D01*
X128941331Y-38980631D01*
X129348075Y-39149110D01*
X129779872Y-39235000D01*
X130220128Y-39235000D01*
X130651925Y-39149110D01*
X131058669Y-38980631D01*
X131424729Y-38736038D01*
X131736038Y-38424729D01*
X131980631Y-38058669D01*
X132149110Y-37651925D01*
X132235000Y-37220128D01*
X132235000Y-36858665D01*
X149945000Y-36858665D01*
X149945000Y-37141335D01*
X150000147Y-37418574D01*
X150108320Y-37679727D01*
X150265363Y-37914759D01*
X150465241Y-38114637D01*
X150700273Y-38271680D01*
X150961426Y-38379853D01*
X151238665Y-38435000D01*
X151521335Y-38435000D01*
X151798574Y-38379853D01*
X152059727Y-38271680D01*
X152294759Y-38114637D01*
X152494637Y-37914759D01*
X152651680Y-37679727D01*
X152759853Y-37418574D01*
X152815000Y-37141335D01*
X152815000Y-36858665D01*
X157565000Y-36858665D01*
X157565000Y-37141335D01*
X157620147Y-37418574D01*
X157728320Y-37679727D01*
X157885363Y-37914759D01*
X158085241Y-38114637D01*
X158320273Y-38271680D01*
X158581426Y-38379853D01*
X158858665Y-38435000D01*
X159141335Y-38435000D01*
X159418574Y-38379853D01*
X159679727Y-38271680D01*
X159914759Y-38114637D01*
X160114637Y-37914759D01*
X160271680Y-37679727D01*
X160379853Y-37418574D01*
X160435000Y-37141335D01*
X160435000Y-36858665D01*
X160419327Y-36779872D01*
X166765000Y-36779872D01*
X166765000Y-37220128D01*
X166850890Y-37651925D01*
X167019369Y-38058669D01*
X167263962Y-38424729D01*
X167575271Y-38736038D01*
X167941331Y-38980631D01*
X168348075Y-39149110D01*
X168779872Y-39235000D01*
X169220128Y-39235000D01*
X169651925Y-39149110D01*
X170058669Y-38980631D01*
X170424729Y-38736038D01*
X170736038Y-38424729D01*
X170980631Y-38058669D01*
X171149110Y-37651925D01*
X171235000Y-37220128D01*
X171235000Y-36779872D01*
X171149110Y-36348075D01*
X170980631Y-35941331D01*
X170736038Y-35575271D01*
X170424729Y-35263962D01*
X170058669Y-35019369D01*
X169651925Y-34850890D01*
X169220128Y-34765000D01*
X168779872Y-34765000D01*
X168348075Y-34850890D01*
X167941331Y-35019369D01*
X167575271Y-35263962D01*
X167263962Y-35575271D01*
X167019369Y-35941331D01*
X166850890Y-36348075D01*
X166765000Y-36779872D01*
X160419327Y-36779872D01*
X160379853Y-36581426D01*
X160271680Y-36320273D01*
X160114637Y-36085241D01*
X159914759Y-35885363D01*
X159679727Y-35728320D01*
X159418574Y-35620147D01*
X159141335Y-35565000D01*
X158858665Y-35565000D01*
X158581426Y-35620147D01*
X158320273Y-35728320D01*
X158085241Y-35885363D01*
X157885363Y-36085241D01*
X157728320Y-36320273D01*
X157620147Y-36581426D01*
X157565000Y-36858665D01*
X152815000Y-36858665D01*
X152759853Y-36581426D01*
X152651680Y-36320273D01*
X152494637Y-36085241D01*
X152294759Y-35885363D01*
X152059727Y-35728320D01*
X151798574Y-35620147D01*
X151521335Y-35565000D01*
X151238665Y-35565000D01*
X150961426Y-35620147D01*
X150700273Y-35728320D01*
X150465241Y-35885363D01*
X150265363Y-36085241D01*
X150108320Y-36320273D01*
X150000147Y-36581426D01*
X149945000Y-36858665D01*
X132235000Y-36858665D01*
X132235000Y-36779872D01*
X132149110Y-36348075D01*
X131980631Y-35941331D01*
X131736038Y-35575271D01*
X131424729Y-35263962D01*
X131058669Y-35019369D01*
X130651925Y-34850890D01*
X130220128Y-34765000D01*
X129779872Y-34765000D01*
X129348075Y-34850890D01*
X128941331Y-35019369D01*
X128575271Y-35263962D01*
X128263962Y-35575271D01*
X128019369Y-35941331D01*
X127850890Y-36348075D01*
X127765000Y-36779872D01*
X127660000Y-36779872D01*
X127660000Y-34660000D01*
X171340000Y-34660000D01*
X171340001Y-91340000D01*
G37*
X171340001Y-91340000D02*
X127660000Y-91340000D01*
X127660000Y-88779872D01*
X127765000Y-88779872D01*
X127765000Y-89220128D01*
X127850890Y-89651925D01*
X128019369Y-90058669D01*
X128263962Y-90424729D01*
X128575271Y-90736038D01*
X128941331Y-90980631D01*
X129348075Y-91149110D01*
X129779872Y-91235000D01*
X130220128Y-91235000D01*
X130651925Y-91149110D01*
X131058669Y-90980631D01*
X131424729Y-90736038D01*
X131736038Y-90424729D01*
X131980631Y-90058669D01*
X132149110Y-89651925D01*
X132235000Y-89220128D01*
X132235000Y-88779872D01*
X166765000Y-88779872D01*
X166765000Y-89220128D01*
X166850890Y-89651925D01*
X167019369Y-90058669D01*
X167263962Y-90424729D01*
X167575271Y-90736038D01*
X167941331Y-90980631D01*
X168348075Y-91149110D01*
X168779872Y-91235000D01*
X169220128Y-91235000D01*
X169651925Y-91149110D01*
X170058669Y-90980631D01*
X170424729Y-90736038D01*
X170736038Y-90424729D01*
X170980631Y-90058669D01*
X171149110Y-89651925D01*
X171235000Y-89220128D01*
X171235000Y-88779872D01*
X171149110Y-88348075D01*
X170980631Y-87941331D01*
X170736038Y-87575271D01*
X170424729Y-87263962D01*
X170058669Y-87019369D01*
X169651925Y-86850890D01*
X169220128Y-86765000D01*
X168779872Y-86765000D01*
X168348075Y-86850890D01*
X167941331Y-87019369D01*
X167575271Y-87263962D01*
X167263962Y-87575271D01*
X167019369Y-87941331D01*
X166850890Y-88348075D01*
X166765000Y-88779872D01*
X132235000Y-88779872D01*
X132149110Y-88348075D01*
X131980631Y-87941331D01*
X131736038Y-87575271D01*
X131424729Y-87263962D01*
X131058669Y-87019369D01*
X130651925Y-86850890D01*
X130220128Y-86765000D01*
X129779872Y-86765000D01*
X129348075Y-86850890D01*
X128941331Y-87019369D01*
X128575271Y-87263962D01*
X128263962Y-87575271D01*
X128019369Y-87941331D01*
X127850890Y-88348075D01*
X127765000Y-88779872D01*
X127660000Y-88779872D01*
X127660000Y-84858665D01*
X133945000Y-84858665D01*
X133945000Y-85141335D01*
X134000147Y-85418574D01*
X134108320Y-85679727D01*
X134265363Y-85914759D01*
X134465241Y-86114637D01*
X134700273Y-86271680D01*
X134961426Y-86379853D01*
X135238665Y-86435000D01*
X135521335Y-86435000D01*
X135798574Y-86379853D01*
X136059727Y-86271680D01*
X136294759Y-86114637D01*
X136494637Y-85914759D01*
X136651680Y-85679727D01*
X136759853Y-85418574D01*
X136815000Y-85141335D01*
X136815000Y-84858665D01*
X141565000Y-84858665D01*
X141565000Y-85141335D01*
X141620147Y-85418574D01*
X141728320Y-85679727D01*
X141885363Y-85914759D01*
X142085241Y-86114637D01*
X142320273Y-86271680D01*
X142581426Y-86379853D01*
X142858665Y-86435000D01*
X143141335Y-86435000D01*
X143418574Y-86379853D01*
X143679727Y-86271680D01*
X143914759Y-86114637D01*
X144114637Y-85914759D01*
X144271680Y-85679727D01*
X144379853Y-85418574D01*
X144435000Y-85141335D01*
X144435000Y-84858665D01*
X144379853Y-84581426D01*
X144271680Y-84320273D01*
X144114637Y-84085241D01*
X143914759Y-83885363D01*
X143679727Y-83728320D01*
X143418574Y-83620147D01*
X143141335Y-83565000D01*
X142858665Y-83565000D01*
X142581426Y-83620147D01*
X142320273Y-83728320D01*
X142085241Y-83885363D01*
X141885363Y-84085241D01*
X141728320Y-84320273D01*
X141620147Y-84581426D01*
X141565000Y-84858665D01*
X136815000Y-84858665D01*
X136759853Y-84581426D01*
X136651680Y-84320273D01*
X136494637Y-84085241D01*
X136294759Y-83885363D01*
X136059727Y-83728320D01*
X135798574Y-83620147D01*
X135521335Y-83565000D01*
X135238665Y-83565000D01*
X134961426Y-83620147D01*
X134700273Y-83728320D01*
X134465241Y-83885363D01*
X134265363Y-84085241D01*
X134108320Y-84320273D01*
X134000147Y-84581426D01*
X133945000Y-84858665D01*
X127660000Y-84858665D01*
X127660000Y-80812000D01*
X128325000Y-80812000D01*
X128325000Y-81212000D01*
X128377350Y-81489514D01*
X128482834Y-81751483D01*
X128637399Y-81987839D01*
X128835105Y-82189500D01*
X129068354Y-82348715D01*
X129328182Y-82459367D01*
X129410961Y-82476904D01*
X129633000Y-82354915D01*
X129633000Y-80812000D01*
X128325000Y-80812000D01*
X127660000Y-80812000D01*
X127660000Y-80158000D01*
X128325000Y-80158000D01*
X128325000Y-80558000D01*
X129633000Y-80558000D01*
X129633000Y-79015085D01*
X129887000Y-79015085D01*
X129887000Y-80558000D01*
X129907000Y-80558000D01*
X129907000Y-80812000D01*
X129887000Y-80812000D01*
X129887000Y-82354915D01*
X130109039Y-82476904D01*
X130191818Y-82459367D01*
X130451646Y-82348715D01*
X130684895Y-82189500D01*
X130882601Y-81987839D01*
X131032735Y-81758258D01*
X131101068Y-81886100D01*
X131280392Y-82104607D01*
X131498899Y-82283932D01*
X131748192Y-82417182D01*
X132018691Y-82499236D01*
X132300000Y-82526943D01*
X132581308Y-82499236D01*
X132851807Y-82417182D01*
X133101100Y-82283932D01*
X133319607Y-82104608D01*
X133498932Y-81886101D01*
X133567265Y-81758259D01*
X133717399Y-81987839D01*
X133915105Y-82189500D01*
X134148354Y-82348715D01*
X134408182Y-82459367D01*
X134490961Y-82476904D01*
X134713000Y-82354915D01*
X134713000Y-80812000D01*
X134693000Y-80812000D01*
X134693000Y-80558000D01*
X134713000Y-80558000D01*
X134713000Y-79015085D01*
X134490961Y-78893096D01*
X134408182Y-78910633D01*
X134148354Y-79021285D01*
X133915105Y-79180500D01*
X133717399Y-79382161D01*
X133567265Y-79611741D01*
X133498932Y-79483899D01*
X133319608Y-79265392D01*
X133101101Y-79086068D01*
X132851808Y-78952818D01*
X132581309Y-78870764D01*
X132300000Y-78843057D01*
X132018692Y-78870764D01*
X131748193Y-78952818D01*
X131498900Y-79086068D01*
X131280393Y-79265392D01*
X131101068Y-79483899D01*
X131032735Y-79611741D01*
X130882601Y-79382161D01*
X130684895Y-79180500D01*
X130451646Y-79021285D01*
X130191818Y-78910633D01*
X130109039Y-78893096D01*
X129887000Y-79015085D01*
X129633000Y-79015085D01*
X129410961Y-78893096D01*
X129328182Y-78910633D01*
X129068354Y-79021285D01*
X128835105Y-79180500D01*
X128637399Y-79382161D01*
X128482834Y-79618517D01*
X128377350Y-79880486D01*
X128325000Y-80158000D01*
X127660000Y-80158000D01*
X127660000Y-73192000D01*
X128325000Y-73192000D01*
X128325000Y-73592000D01*
X128377350Y-73869514D01*
X128482834Y-74131483D01*
X128637399Y-74367839D01*
X128835105Y-74569500D01*
X129068354Y-74728715D01*
X129328182Y-74839367D01*
X129410961Y-74856904D01*
X129633000Y-74734915D01*
X129633000Y-73192000D01*
X129887000Y-73192000D01*
X129887000Y-74734915D01*
X130109039Y-74856904D01*
X130191818Y-74839367D01*
X130451646Y-74728715D01*
X130684895Y-74569500D01*
X130882601Y-74367839D01*
X131030000Y-74142441D01*
X131177399Y-74367839D01*
X131375105Y-74569500D01*
X131608354Y-74728715D01*
X131868182Y-74839367D01*
X131950961Y-74856904D01*
X132173000Y-74734915D01*
X132173000Y-73192000D01*
X129887000Y-73192000D01*
X129633000Y-73192000D01*
X128325000Y-73192000D01*
X127660000Y-73192000D01*
X127660000Y-72538000D01*
X128325000Y-72538000D01*
X128325000Y-72938000D01*
X129633000Y-72938000D01*
X129633000Y-71395085D01*
X129887000Y-71395085D01*
X129887000Y-72938000D01*
X132173000Y-72938000D01*
X132173000Y-71395085D01*
X132427000Y-71395085D01*
X132427000Y-72938000D01*
X132447000Y-72938000D01*
X132447000Y-73192000D01*
X132427000Y-73192000D01*
X132427000Y-74734915D01*
X132649039Y-74856904D01*
X132731818Y-74839367D01*
X132991646Y-74728715D01*
X133224895Y-74569500D01*
X133422601Y-74367839D01*
X133572735Y-74138258D01*
X133641068Y-74266100D01*
X133820392Y-74484607D01*
X134038899Y-74663932D01*
X134288192Y-74797182D01*
X134558691Y-74879236D01*
X134840000Y-74906943D01*
X135121308Y-74879236D01*
X135391807Y-74797182D01*
X135641100Y-74663932D01*
X135859607Y-74484608D01*
X136038932Y-74266101D01*
X136110000Y-74133142D01*
X136181068Y-74266100D01*
X136360392Y-74484607D01*
X136578899Y-74663932D01*
X136828192Y-74797182D01*
X137098691Y-74879236D01*
X137380000Y-74906943D01*
X137661308Y-74879236D01*
X137931807Y-74797182D01*
X138181100Y-74663932D01*
X138399607Y-74484608D01*
X138578932Y-74266101D01*
X138650000Y-74133142D01*
X138721068Y-74266100D01*
X138900392Y-74484607D01*
X139118899Y-74663932D01*
X139368192Y-74797182D01*
X139638691Y-74879236D01*
X139920000Y-74906943D01*
X140201308Y-74879236D01*
X140471807Y-74797182D01*
X140721100Y-74663932D01*
X140939607Y-74484608D01*
X141118932Y-74266101D01*
X141190000Y-74133142D01*
X141261068Y-74266100D01*
X141440392Y-74484607D01*
X141658899Y-74663932D01*
X141908192Y-74797182D01*
X142178691Y-74879236D01*
X142460000Y-74906943D01*
X142741308Y-74879236D01*
X143011807Y-74797182D01*
X143261100Y-74663932D01*
X143479607Y-74484608D01*
X143572419Y-74371517D01*
X143574188Y-74389482D01*
X143610498Y-74509180D01*
X143669463Y-74619494D01*
X143748815Y-74716185D01*
X143845506Y-74795537D01*
X143955820Y-74854502D01*
X144075518Y-74890812D01*
X144200000Y-74903072D01*
X145800000Y-74903072D01*
X145924482Y-74890812D01*
X146044180Y-74854502D01*
X146154494Y-74795537D01*
X146251185Y-74716185D01*
X146330537Y-74619494D01*
X146389502Y-74509180D01*
X146425812Y-74389482D01*
X146438072Y-74265000D01*
X146438072Y-71865000D01*
X146425812Y-71740518D01*
X146389502Y-71620820D01*
X146330537Y-71510506D01*
X146251185Y-71413815D01*
X146154494Y-71334463D01*
X146044180Y-71275498D01*
X145924482Y-71239188D01*
X145800000Y-71226928D01*
X144200000Y-71226928D01*
X144075518Y-71239188D01*
X143955820Y-71275498D01*
X143845506Y-71334463D01*
X143748815Y-71413815D01*
X143669463Y-71510506D01*
X143610498Y-71620820D01*
X143574188Y-71740518D01*
X143572419Y-71758482D01*
X143479608Y-71645392D01*
X143261101Y-71466068D01*
X143212871Y-71440289D01*
X143209003Y-71401014D01*
X143165546Y-71257753D01*
X143094974Y-71125724D01*
X143000001Y-71009999D01*
X142971004Y-70986202D01*
X141863804Y-69879003D01*
X141840001Y-69849999D01*
X141724276Y-69755026D01*
X141592247Y-69684454D01*
X141448986Y-69640997D01*
X141337333Y-69630000D01*
X141337322Y-69630000D01*
X141300000Y-69626324D01*
X141262678Y-69630000D01*
X136037325Y-69630000D01*
X136000000Y-69626324D01*
X135962675Y-69630000D01*
X135962667Y-69630000D01*
X135851014Y-69640997D01*
X135707753Y-69684454D01*
X135575724Y-69755026D01*
X135459999Y-69849999D01*
X135436201Y-69878997D01*
X134328998Y-70986201D01*
X134300000Y-71009999D01*
X134276202Y-71038997D01*
X134276201Y-71038998D01*
X134205026Y-71125724D01*
X134134454Y-71257754D01*
X134090998Y-71401015D01*
X134087130Y-71440289D01*
X134038900Y-71466068D01*
X133820393Y-71645392D01*
X133641068Y-71863899D01*
X133572735Y-71991741D01*
X133422601Y-71762161D01*
X133224895Y-71560500D01*
X132991646Y-71401285D01*
X132731818Y-71290633D01*
X132649039Y-71273096D01*
X132427000Y-71395085D01*
X132173000Y-71395085D01*
X131950961Y-71273096D01*
X131868182Y-71290633D01*
X131608354Y-71401285D01*
X131375105Y-71560500D01*
X131177399Y-71762161D01*
X131030000Y-71987559D01*
X130882601Y-71762161D01*
X130684895Y-71560500D01*
X130451646Y-71401285D01*
X130191818Y-71290633D01*
X130109039Y-71273096D01*
X129887000Y-71395085D01*
X129633000Y-71395085D01*
X129410961Y-71273096D01*
X129328182Y-71290633D01*
X129068354Y-71401285D01*
X128835105Y-71560500D01*
X128637399Y-71762161D01*
X128482834Y-71998517D01*
X128377350Y-72260486D01*
X128325000Y-72538000D01*
X127660000Y-72538000D01*
X127660000Y-65540000D01*
X130257718Y-65540000D01*
X130286776Y-65835032D01*
X130372834Y-66118725D01*
X130512583Y-66380179D01*
X130700655Y-66609345D01*
X130929821Y-66797417D01*
X130953362Y-66810000D01*
X130929821Y-66822583D01*
X130700655Y-67010655D01*
X130512583Y-67239821D01*
X130372834Y-67501275D01*
X130286776Y-67784968D01*
X130257718Y-68080000D01*
X130286776Y-68375032D01*
X130372834Y-68658725D01*
X130512583Y-68920179D01*
X130700655Y-69149345D01*
X130929821Y-69337417D01*
X131191275Y-69477166D01*
X131474968Y-69563224D01*
X131696064Y-69585000D01*
X132303936Y-69585000D01*
X132525032Y-69563224D01*
X132808725Y-69477166D01*
X133070179Y-69337417D01*
X133299345Y-69149345D01*
X133487417Y-68920179D01*
X133520296Y-68858665D01*
X149565000Y-68858665D01*
X149565000Y-69141335D01*
X149620147Y-69418574D01*
X149728320Y-69679727D01*
X149885363Y-69914759D01*
X150085241Y-70114637D01*
X150320273Y-70271680D01*
X150581426Y-70379853D01*
X150858665Y-70435000D01*
X151141335Y-70435000D01*
X151418574Y-70379853D01*
X151679727Y-70271680D01*
X151914759Y-70114637D01*
X152114637Y-69914759D01*
X152271680Y-69679727D01*
X152379853Y-69418574D01*
X152435000Y-69141335D01*
X152435000Y-68858665D01*
X152379853Y-68581426D01*
X152271680Y-68320273D01*
X152114637Y-68085241D01*
X151914759Y-67885363D01*
X151679727Y-67728320D01*
X151418574Y-67620147D01*
X151141335Y-67565000D01*
X150858665Y-67565000D01*
X150581426Y-67620147D01*
X150320273Y-67728320D01*
X150085241Y-67885363D01*
X149885363Y-68085241D01*
X149728320Y-68320273D01*
X149620147Y-68581426D01*
X149565000Y-68858665D01*
X133520296Y-68858665D01*
X133627166Y-68658725D01*
X133713224Y-68375032D01*
X133742282Y-68080000D01*
X133713224Y-67784968D01*
X133627166Y-67501275D01*
X133487417Y-67239821D01*
X133299345Y-67010655D01*
X133070179Y-66822583D01*
X133046638Y-66810000D01*
X133070179Y-66797417D01*
X133299345Y-66609345D01*
X133487417Y-66380179D01*
X133627166Y-66118725D01*
X133713224Y-65835032D01*
X133742282Y-65540000D01*
X133713224Y-65244968D01*
X133627166Y-64961275D01*
X133487417Y-64699821D01*
X133299345Y-64470655D01*
X133233886Y-64416934D01*
X133343387Y-64358405D01*
X133477962Y-64247962D01*
X133517323Y-64200000D01*
X139561928Y-64200000D01*
X139561928Y-65800000D01*
X139574188Y-65924482D01*
X139610498Y-66044180D01*
X139669463Y-66154494D01*
X139748815Y-66251185D01*
X139845506Y-66330537D01*
X139955820Y-66389502D01*
X140075518Y-66425812D01*
X140200000Y-66438072D01*
X141800000Y-66438072D01*
X141924482Y-66425812D01*
X142044180Y-66389502D01*
X142154494Y-66330537D01*
X142251185Y-66251185D01*
X142330537Y-66154494D01*
X142389502Y-66044180D01*
X142418661Y-65948057D01*
X142585241Y-66114637D01*
X142820273Y-66271680D01*
X143081426Y-66379853D01*
X143358665Y-66435000D01*
X143641335Y-66435000D01*
X143918574Y-66379853D01*
X144179727Y-66271680D01*
X144414759Y-66114637D01*
X144614637Y-65914759D01*
X144771680Y-65679727D01*
X144879853Y-65418574D01*
X144935000Y-65141335D01*
X144935000Y-64858665D01*
X144879853Y-64581426D01*
X144771680Y-64320273D01*
X144614637Y-64085241D01*
X144429396Y-63900000D01*
X149641928Y-63900000D01*
X149641928Y-66100000D01*
X149654188Y-66224482D01*
X149690498Y-66344180D01*
X149749463Y-66454494D01*
X149828815Y-66551185D01*
X149925506Y-66630537D01*
X150035820Y-66689502D01*
X150155518Y-66725812D01*
X150280000Y-66738072D01*
X152480000Y-66738072D01*
X152604482Y-66725812D01*
X152724180Y-66689502D01*
X152834494Y-66630537D01*
X152931185Y-66551185D01*
X153010537Y-66454494D01*
X153069502Y-66344180D01*
X153105812Y-66224482D01*
X153118072Y-66100000D01*
X153118072Y-63900000D01*
X153105812Y-63775518D01*
X153069502Y-63655820D01*
X153010537Y-63545506D01*
X152931185Y-63448815D01*
X152834494Y-63369463D01*
X152724180Y-63310498D01*
X152604482Y-63274188D01*
X152480000Y-63261928D01*
X150280000Y-63261928D01*
X150155518Y-63274188D01*
X150035820Y-63310498D01*
X149925506Y-63369463D01*
X149828815Y-63448815D01*
X149749463Y-63545506D01*
X149690498Y-63655820D01*
X149654188Y-63775518D01*
X149641928Y-63900000D01*
X144429396Y-63900000D01*
X144414759Y-63885363D01*
X144179727Y-63728320D01*
X143918574Y-63620147D01*
X143641335Y-63565000D01*
X143358665Y-63565000D01*
X143081426Y-63620147D01*
X142820273Y-63728320D01*
X142585241Y-63885363D01*
X142418661Y-64051943D01*
X142389502Y-63955820D01*
X142330537Y-63845506D01*
X142251185Y-63748815D01*
X142154494Y-63669463D01*
X142044180Y-63610498D01*
X141924482Y-63574188D01*
X141800000Y-63561928D01*
X140200000Y-63561928D01*
X140075518Y-63574188D01*
X139955820Y-63610498D01*
X139845506Y-63669463D01*
X139748815Y-63748815D01*
X139669463Y-63845506D01*
X139610498Y-63955820D01*
X139574188Y-64075518D01*
X139561928Y-64200000D01*
X133517323Y-64200000D01*
X133588405Y-64113387D01*
X133670472Y-63959851D01*
X133721008Y-63793255D01*
X133738072Y-63620001D01*
X133738072Y-62379999D01*
X133721008Y-62206745D01*
X133670472Y-62040149D01*
X133588405Y-61886613D01*
X133477962Y-61752038D01*
X133343387Y-61641595D01*
X133189851Y-61559528D01*
X133023255Y-61508992D01*
X132850001Y-61491928D01*
X131149999Y-61491928D01*
X130976745Y-61508992D01*
X130810149Y-61559528D01*
X130656613Y-61641595D01*
X130522038Y-61752038D01*
X130411595Y-61886613D01*
X130329528Y-62040149D01*
X130278992Y-62206745D01*
X130261928Y-62379999D01*
X130261928Y-63620001D01*
X130278992Y-63793255D01*
X130329528Y-63959851D01*
X130411595Y-64113387D01*
X130522038Y-64247962D01*
X130656613Y-64358405D01*
X130766114Y-64416934D01*
X130700655Y-64470655D01*
X130512583Y-64699821D01*
X130372834Y-64961275D01*
X130286776Y-65244968D01*
X130257718Y-65540000D01*
X127660000Y-65540000D01*
X127660000Y-59900000D01*
X149641928Y-59900000D01*
X149641928Y-62100000D01*
X149654188Y-62224482D01*
X149690498Y-62344180D01*
X149749463Y-62454494D01*
X149828815Y-62551185D01*
X149925506Y-62630537D01*
X150035820Y-62689502D01*
X150155518Y-62725812D01*
X150280000Y-62738072D01*
X152480000Y-62738072D01*
X152604482Y-62725812D01*
X152724180Y-62689502D01*
X152834494Y-62630537D01*
X152931185Y-62551185D01*
X153010537Y-62454494D01*
X153069502Y-62344180D01*
X153105812Y-62224482D01*
X153118072Y-62100000D01*
X153118072Y-59900000D01*
X153105812Y-59775518D01*
X153069502Y-59655820D01*
X153010537Y-59545506D01*
X152931185Y-59448815D01*
X152834494Y-59369463D01*
X152724180Y-59310498D01*
X152604482Y-59274188D01*
X152480000Y-59261928D01*
X150280000Y-59261928D01*
X150155518Y-59274188D01*
X150035820Y-59310498D01*
X149925506Y-59369463D01*
X149828815Y-59448815D01*
X149749463Y-59545506D01*
X149690498Y-59655820D01*
X149654188Y-59775518D01*
X149641928Y-59900000D01*
X127660000Y-59900000D01*
X127660000Y-54814375D01*
X128115320Y-54814375D01*
X128115320Y-55185625D01*
X128187747Y-55549741D01*
X128329818Y-55892731D01*
X128536074Y-56201413D01*
X128798587Y-56463926D01*
X129107269Y-56670182D01*
X129450259Y-56812253D01*
X129814375Y-56884680D01*
X130185625Y-56884680D01*
X130549741Y-56812253D01*
X130892731Y-56670182D01*
X131201413Y-56463926D01*
X131463926Y-56201413D01*
X131591825Y-56010000D01*
X144950392Y-56010000D01*
X145000000Y-56014886D01*
X145197994Y-55995385D01*
X145206839Y-55992702D01*
X146186903Y-55992702D01*
X146258486Y-56236671D01*
X146513996Y-56357571D01*
X146788184Y-56426300D01*
X147070512Y-56440217D01*
X147350130Y-56398787D01*
X147616292Y-56303603D01*
X147741514Y-56236671D01*
X147813097Y-55992702D01*
X147000000Y-55179605D01*
X146186903Y-55992702D01*
X145206839Y-55992702D01*
X145388380Y-55937632D01*
X145563840Y-55843847D01*
X145717633Y-55717633D01*
X145737576Y-55693333D01*
X145763329Y-55741514D01*
X146007298Y-55813097D01*
X146820395Y-55000000D01*
X146806253Y-54985858D01*
X146985858Y-54806253D01*
X147000000Y-54820395D01*
X147014143Y-54806253D01*
X147193748Y-54985858D01*
X147179605Y-55000000D01*
X147992702Y-55813097D01*
X148236671Y-55741514D01*
X148357571Y-55486004D01*
X148426300Y-55211816D01*
X148440217Y-54929488D01*
X148398787Y-54649870D01*
X148303603Y-54383708D01*
X148238384Y-54261691D01*
X148251185Y-54251185D01*
X148330537Y-54154494D01*
X148389502Y-54044180D01*
X148399870Y-54010000D01*
X148996647Y-54010000D01*
X150710663Y-55724016D01*
X150700273Y-55728320D01*
X150465241Y-55885363D01*
X150265363Y-56085241D01*
X150108320Y-56320273D01*
X150000147Y-56581426D01*
X149945000Y-56858665D01*
X149945000Y-57141335D01*
X150000147Y-57418574D01*
X150108320Y-57679727D01*
X150265363Y-57914759D01*
X150465241Y-58114637D01*
X150700273Y-58271680D01*
X150961426Y-58379853D01*
X151238665Y-58435000D01*
X151521335Y-58435000D01*
X151798574Y-58379853D01*
X152059727Y-58271680D01*
X152294759Y-58114637D01*
X152494637Y-57914759D01*
X152651680Y-57679727D01*
X152655984Y-57669337D01*
X153160000Y-58173354D01*
X153160001Y-72581644D01*
X152393952Y-73347693D01*
X152435000Y-73141335D01*
X152435000Y-72858665D01*
X152379853Y-72581426D01*
X152271680Y-72320273D01*
X152114637Y-72085241D01*
X151914759Y-71885363D01*
X151679727Y-71728320D01*
X151418574Y-71620147D01*
X151141335Y-71565000D01*
X150858665Y-71565000D01*
X150581426Y-71620147D01*
X150320273Y-71728320D01*
X150085241Y-71885363D01*
X149885363Y-72085241D01*
X149728320Y-72320273D01*
X149620147Y-72581426D01*
X149565000Y-72858665D01*
X149565000Y-73141335D01*
X149620147Y-73418574D01*
X149728320Y-73679727D01*
X149885363Y-73914759D01*
X150085241Y-74114637D01*
X150320273Y-74271680D01*
X150581426Y-74379853D01*
X150858665Y-74435000D01*
X151141335Y-74435000D01*
X151347693Y-74393952D01*
X146219418Y-79522227D01*
X146198932Y-79483899D01*
X146019608Y-79265392D01*
X145801101Y-79086068D01*
X145551808Y-78952818D01*
X145281309Y-78870764D01*
X145000000Y-78843057D01*
X144718692Y-78870764D01*
X144448193Y-78952818D01*
X144198900Y-79086068D01*
X143980393Y-79265392D01*
X143801068Y-79483899D01*
X143730000Y-79616858D01*
X143658932Y-79483899D01*
X143479608Y-79265392D01*
X143261101Y-79086068D01*
X143011808Y-78952818D01*
X142741309Y-78870764D01*
X142460000Y-78843057D01*
X142178692Y-78870764D01*
X141908193Y-78952818D01*
X141658900Y-79086068D01*
X141440393Y-79265392D01*
X141261068Y-79483899D01*
X141190000Y-79616858D01*
X141118932Y-79483899D01*
X140939608Y-79265392D01*
X140721101Y-79086068D01*
X140471808Y-78952818D01*
X140201309Y-78870764D01*
X139920000Y-78843057D01*
X139638692Y-78870764D01*
X139368193Y-78952818D01*
X139118900Y-79086068D01*
X138900393Y-79265392D01*
X138721068Y-79483899D01*
X138650000Y-79616858D01*
X138578932Y-79483899D01*
X138399608Y-79265392D01*
X138181101Y-79086068D01*
X137931808Y-78952818D01*
X137661309Y-78870764D01*
X137380000Y-78843057D01*
X137098692Y-78870764D01*
X136828193Y-78952818D01*
X136578900Y-79086068D01*
X136360393Y-79265392D01*
X136181068Y-79483899D01*
X136112735Y-79611741D01*
X135962601Y-79382161D01*
X135764895Y-79180500D01*
X135531646Y-79021285D01*
X135271818Y-78910633D01*
X135189039Y-78893096D01*
X134967000Y-79015085D01*
X134967000Y-80558000D01*
X134987000Y-80558000D01*
X134987000Y-80812000D01*
X134967000Y-80812000D01*
X134967000Y-82354915D01*
X135189039Y-82476904D01*
X135271818Y-82459367D01*
X135531646Y-82348715D01*
X135764895Y-82189500D01*
X135962601Y-81987839D01*
X136112735Y-81758258D01*
X136181068Y-81886100D01*
X136360392Y-82104607D01*
X136578899Y-82283932D01*
X136828192Y-82417182D01*
X137098691Y-82499236D01*
X137380000Y-82526943D01*
X137661308Y-82499236D01*
X137931807Y-82417182D01*
X138181100Y-82283932D01*
X138399607Y-82104608D01*
X138578932Y-81886101D01*
X138650000Y-81753142D01*
X138721068Y-81886100D01*
X138900392Y-82104607D01*
X139118899Y-82283932D01*
X139368192Y-82417182D01*
X139638691Y-82499236D01*
X139920000Y-82526943D01*
X140201308Y-82499236D01*
X140471807Y-82417182D01*
X140721100Y-82283932D01*
X140939607Y-82104608D01*
X141118932Y-81886101D01*
X141190000Y-81753142D01*
X141261068Y-81886100D01*
X141440392Y-82104607D01*
X141658899Y-82283932D01*
X141908192Y-82417182D01*
X142178691Y-82499236D01*
X142460000Y-82526943D01*
X142741308Y-82499236D01*
X143011807Y-82417182D01*
X143261100Y-82283932D01*
X143479607Y-82104608D01*
X143658932Y-81886101D01*
X143730000Y-81753142D01*
X143801068Y-81886100D01*
X143980392Y-82104607D01*
X144198899Y-82283932D01*
X144448192Y-82417182D01*
X144718691Y-82499236D01*
X145000000Y-82526943D01*
X145281308Y-82499236D01*
X145551807Y-82417182D01*
X145801100Y-82283932D01*
X145990000Y-82128906D01*
X145990001Y-83980603D01*
X145885363Y-84085241D01*
X145728320Y-84320273D01*
X145620147Y-84581426D01*
X145565000Y-84858665D01*
X145565000Y-85141335D01*
X145620147Y-85418574D01*
X145728320Y-85679727D01*
X145885363Y-85914759D01*
X146085241Y-86114637D01*
X146320273Y-86271680D01*
X146581426Y-86379853D01*
X146858665Y-86435000D01*
X147141335Y-86435000D01*
X147418574Y-86379853D01*
X147679727Y-86271680D01*
X147914759Y-86114637D01*
X148036694Y-85992702D01*
X148686903Y-85992702D01*
X148758486Y-86236671D01*
X149013996Y-86357571D01*
X149288184Y-86426300D01*
X149570512Y-86440217D01*
X149850130Y-86398787D01*
X150116292Y-86303603D01*
X150241514Y-86236671D01*
X150313097Y-85992702D01*
X149500000Y-85179605D01*
X148686903Y-85992702D01*
X148036694Y-85992702D01*
X148114637Y-85914759D01*
X148248692Y-85714131D01*
X148263329Y-85741514D01*
X148507298Y-85813097D01*
X149320395Y-85000000D01*
X149679605Y-85000000D01*
X150492702Y-85813097D01*
X150736671Y-85741514D01*
X150857571Y-85486004D01*
X150926300Y-85211816D01*
X150940217Y-84929488D01*
X150898787Y-84649870D01*
X150803603Y-84383708D01*
X150736671Y-84258486D01*
X150537340Y-84200000D01*
X151561928Y-84200000D01*
X151561928Y-85800000D01*
X151574188Y-85924482D01*
X151610498Y-86044180D01*
X151669463Y-86154494D01*
X151748815Y-86251185D01*
X151845506Y-86330537D01*
X151955820Y-86389502D01*
X152075518Y-86425812D01*
X152200000Y-86438072D01*
X153800000Y-86438072D01*
X153924482Y-86425812D01*
X154044180Y-86389502D01*
X154154494Y-86330537D01*
X154251185Y-86251185D01*
X154330537Y-86154494D01*
X154389502Y-86044180D01*
X154425812Y-85924482D01*
X154438072Y-85800000D01*
X154438072Y-84858665D01*
X159185000Y-84858665D01*
X159185000Y-85141335D01*
X159240147Y-85418574D01*
X159348320Y-85679727D01*
X159505363Y-85914759D01*
X159705241Y-86114637D01*
X159940273Y-86271680D01*
X160201426Y-86379853D01*
X160478665Y-86435000D01*
X160761335Y-86435000D01*
X161038574Y-86379853D01*
X161299727Y-86271680D01*
X161534759Y-86114637D01*
X161734637Y-85914759D01*
X161891680Y-85679727D01*
X161999853Y-85418574D01*
X162055000Y-85141335D01*
X162055000Y-84858665D01*
X161999853Y-84581426D01*
X161891680Y-84320273D01*
X161734637Y-84085241D01*
X161534759Y-83885363D01*
X161299727Y-83728320D01*
X161038574Y-83620147D01*
X160761335Y-83565000D01*
X160478665Y-83565000D01*
X160201426Y-83620147D01*
X159940273Y-83728320D01*
X159705241Y-83885363D01*
X159505363Y-84085241D01*
X159348320Y-84320273D01*
X159240147Y-84581426D01*
X159185000Y-84858665D01*
X154438072Y-84858665D01*
X154438072Y-84200000D01*
X154425812Y-84075518D01*
X154389502Y-83955820D01*
X154330537Y-83845506D01*
X154251185Y-83748815D01*
X154154494Y-83669463D01*
X154044180Y-83610498D01*
X153924482Y-83574188D01*
X153800000Y-83561928D01*
X152200000Y-83561928D01*
X152075518Y-83574188D01*
X151955820Y-83610498D01*
X151845506Y-83669463D01*
X151748815Y-83748815D01*
X151669463Y-83845506D01*
X151610498Y-83955820D01*
X151574188Y-84075518D01*
X151561928Y-84200000D01*
X150537340Y-84200000D01*
X150492702Y-84186903D01*
X149679605Y-85000000D01*
X149320395Y-85000000D01*
X148507298Y-84186903D01*
X148263329Y-84258486D01*
X148249676Y-84287341D01*
X148114637Y-84085241D01*
X148036694Y-84007298D01*
X148686903Y-84007298D01*
X149500000Y-84820395D01*
X150313097Y-84007298D01*
X150241514Y-83763329D01*
X149986004Y-83642429D01*
X149711816Y-83573700D01*
X149429488Y-83559783D01*
X149149870Y-83601213D01*
X148883708Y-83696397D01*
X148758486Y-83763329D01*
X148686903Y-84007298D01*
X148036694Y-84007298D01*
X148010000Y-83980604D01*
X148010000Y-81119604D01*
X148014886Y-81069999D01*
X148008817Y-81008379D01*
X147995385Y-80872006D01*
X147958375Y-80750000D01*
X151611928Y-80750000D01*
X151611928Y-82250000D01*
X151624188Y-82374482D01*
X151660498Y-82494180D01*
X151719463Y-82604494D01*
X151798815Y-82701185D01*
X151895506Y-82780537D01*
X152005820Y-82839502D01*
X152125518Y-82875812D01*
X152250000Y-82888072D01*
X153750000Y-82888072D01*
X153874482Y-82875812D01*
X153994180Y-82839502D01*
X154104494Y-82780537D01*
X154201185Y-82701185D01*
X154280537Y-82604494D01*
X154339502Y-82494180D01*
X154375812Y-82374482D01*
X154388072Y-82250000D01*
X154388072Y-81358665D01*
X157065000Y-81358665D01*
X157065000Y-81641335D01*
X157120147Y-81918574D01*
X157228320Y-82179727D01*
X157385363Y-82414759D01*
X157585241Y-82614637D01*
X157820273Y-82771680D01*
X158081426Y-82879853D01*
X158358665Y-82935000D01*
X158641335Y-82935000D01*
X158918574Y-82879853D01*
X159179727Y-82771680D01*
X159414759Y-82614637D01*
X159614637Y-82414759D01*
X159771680Y-82179727D01*
X159879853Y-81918574D01*
X159935000Y-81641335D01*
X159935000Y-81358665D01*
X159879853Y-81081426D01*
X159771680Y-80820273D01*
X159614637Y-80585241D01*
X159414759Y-80385363D01*
X159179727Y-80228320D01*
X158918574Y-80120147D01*
X158641335Y-80065000D01*
X158358665Y-80065000D01*
X158081426Y-80120147D01*
X157820273Y-80228320D01*
X157585241Y-80385363D01*
X157385363Y-80585241D01*
X157228320Y-80820273D01*
X157120147Y-81081426D01*
X157065000Y-81358665D01*
X154388072Y-81358665D01*
X154388072Y-80750000D01*
X154375812Y-80625518D01*
X154339502Y-80505820D01*
X154280537Y-80395506D01*
X154201185Y-80298815D01*
X154104494Y-80219463D01*
X153994180Y-80160498D01*
X153874482Y-80124188D01*
X153766517Y-80113555D01*
X153882886Y-80035799D01*
X154075799Y-79842886D01*
X154227371Y-79616043D01*
X154331775Y-79363989D01*
X154385000Y-79096411D01*
X154385000Y-78823589D01*
X154331775Y-78556011D01*
X154227371Y-78303957D01*
X154075799Y-78077114D01*
X153882886Y-77884201D01*
X153656043Y-77732629D01*
X153556721Y-77691489D01*
X153598832Y-77676277D01*
X153711863Y-77615860D01*
X153745647Y-77492702D01*
X157686903Y-77492702D01*
X157758486Y-77736671D01*
X158013996Y-77857571D01*
X158288184Y-77926300D01*
X158570512Y-77940217D01*
X158850130Y-77898787D01*
X159116292Y-77803603D01*
X159241514Y-77736671D01*
X159313097Y-77492702D01*
X158500000Y-76679605D01*
X157686903Y-77492702D01*
X153745647Y-77492702D01*
X153777388Y-77376993D01*
X153000000Y-76599605D01*
X152222612Y-77376993D01*
X152288137Y-77615860D01*
X152446477Y-77690164D01*
X152343957Y-77732629D01*
X152117114Y-77884201D01*
X151924201Y-78077114D01*
X151772629Y-78303957D01*
X151668225Y-78556011D01*
X151615000Y-78823589D01*
X151615000Y-79096411D01*
X151668225Y-79363989D01*
X151772629Y-79616043D01*
X151924201Y-79842886D01*
X152117114Y-80035799D01*
X152233483Y-80113555D01*
X152125518Y-80124188D01*
X152005820Y-80160498D01*
X151895506Y-80219463D01*
X151798815Y-80298815D01*
X151719463Y-80395506D01*
X151660498Y-80505820D01*
X151624188Y-80625518D01*
X151611928Y-80750000D01*
X147958375Y-80750000D01*
X147937632Y-80681620D01*
X147930353Y-80668002D01*
X151700150Y-76898205D01*
X151743723Y-77018832D01*
X151804140Y-77131863D01*
X152043007Y-77197388D01*
X152820395Y-76420000D01*
X153179605Y-76420000D01*
X153956993Y-77197388D01*
X154195860Y-77131863D01*
X154311760Y-76884884D01*
X154377250Y-76620040D01*
X154379532Y-76570512D01*
X157059783Y-76570512D01*
X157101213Y-76850130D01*
X157196397Y-77116292D01*
X157263329Y-77241514D01*
X157507298Y-77313097D01*
X158320395Y-76500000D01*
X158679605Y-76500000D01*
X159492702Y-77313097D01*
X159736671Y-77241514D01*
X159857571Y-76986004D01*
X159926300Y-76711816D01*
X159940217Y-76429488D01*
X159898787Y-76149870D01*
X159803603Y-75883708D01*
X159790218Y-75858665D01*
X160565000Y-75858665D01*
X160565000Y-76141335D01*
X160620147Y-76418574D01*
X160728320Y-76679727D01*
X160885363Y-76914759D01*
X161085241Y-77114637D01*
X161320273Y-77271680D01*
X161581426Y-77379853D01*
X161858665Y-77435000D01*
X162141335Y-77435000D01*
X162418574Y-77379853D01*
X162679727Y-77271680D01*
X162914759Y-77114637D01*
X163114637Y-76914759D01*
X163271680Y-76679727D01*
X163379853Y-76418574D01*
X163393684Y-76349039D01*
X168228096Y-76349039D01*
X168268754Y-76483087D01*
X168388963Y-76737420D01*
X168556481Y-76963414D01*
X168764869Y-77152385D01*
X169006119Y-77297070D01*
X169270960Y-77391909D01*
X169493000Y-77270624D01*
X169493000Y-76127000D01*
X169747000Y-76127000D01*
X169747000Y-77270624D01*
X169969040Y-77391909D01*
X170233881Y-77297070D01*
X170475131Y-77152385D01*
X170683519Y-76963414D01*
X170851037Y-76737420D01*
X170971246Y-76483087D01*
X171011904Y-76349039D01*
X170889915Y-76127000D01*
X169747000Y-76127000D01*
X169493000Y-76127000D01*
X168350085Y-76127000D01*
X168228096Y-76349039D01*
X163393684Y-76349039D01*
X163435000Y-76141335D01*
X163435000Y-75858665D01*
X163393685Y-75650961D01*
X168228096Y-75650961D01*
X168350085Y-75873000D01*
X169493000Y-75873000D01*
X169493000Y-74729376D01*
X169747000Y-74729376D01*
X169747000Y-75873000D01*
X170889915Y-75873000D01*
X171011904Y-75650961D01*
X170971246Y-75516913D01*
X170851037Y-75262580D01*
X170683519Y-75036586D01*
X170475131Y-74847615D01*
X170233881Y-74702930D01*
X169969040Y-74608091D01*
X169747000Y-74729376D01*
X169493000Y-74729376D01*
X169270960Y-74608091D01*
X169006119Y-74702930D01*
X168764869Y-74847615D01*
X168556481Y-75036586D01*
X168388963Y-75262580D01*
X168268754Y-75516913D01*
X168228096Y-75650961D01*
X163393685Y-75650961D01*
X163379853Y-75581426D01*
X163271680Y-75320273D01*
X163114637Y-75085241D01*
X162914759Y-74885363D01*
X162679727Y-74728320D01*
X162418574Y-74620147D01*
X162141335Y-74565000D01*
X161858665Y-74565000D01*
X161581426Y-74620147D01*
X161320273Y-74728320D01*
X161085241Y-74885363D01*
X160885363Y-75085241D01*
X160728320Y-75320273D01*
X160620147Y-75581426D01*
X160565000Y-75858665D01*
X159790218Y-75858665D01*
X159736671Y-75758486D01*
X159492702Y-75686903D01*
X158679605Y-76500000D01*
X158320395Y-76500000D01*
X157507298Y-75686903D01*
X157263329Y-75758486D01*
X157142429Y-76013996D01*
X157073700Y-76288184D01*
X157059783Y-76570512D01*
X154379532Y-76570512D01*
X154389812Y-76347508D01*
X154348965Y-76077762D01*
X154256277Y-75821168D01*
X154195860Y-75708137D01*
X153956993Y-75642612D01*
X153179605Y-76420000D01*
X152820395Y-76420000D01*
X152806253Y-76405858D01*
X152985858Y-76226253D01*
X153000000Y-76240395D01*
X153733097Y-75507298D01*
X157686903Y-75507298D01*
X158500000Y-76320395D01*
X159313097Y-75507298D01*
X159241514Y-75263329D01*
X158986004Y-75142429D01*
X158711816Y-75073700D01*
X158429488Y-75059783D01*
X158149870Y-75101213D01*
X157883708Y-75196397D01*
X157758486Y-75263329D01*
X157686903Y-75507298D01*
X153733097Y-75507298D01*
X153777388Y-75463007D01*
X153711863Y-75224140D01*
X153482056Y-75116299D01*
X154588355Y-74010000D01*
X157600604Y-74010000D01*
X157705241Y-74114637D01*
X157940273Y-74271680D01*
X158201426Y-74379853D01*
X158478665Y-74435000D01*
X158761335Y-74435000D01*
X159038574Y-74379853D01*
X159299727Y-74271680D01*
X159534759Y-74114637D01*
X159734637Y-73914759D01*
X159891680Y-73679727D01*
X159999853Y-73418574D01*
X160055000Y-73141335D01*
X160055000Y-72858665D01*
X159999853Y-72581426D01*
X159891680Y-72320273D01*
X159734637Y-72085241D01*
X159534759Y-71885363D01*
X159299727Y-71728320D01*
X159038574Y-71620147D01*
X158761335Y-71565000D01*
X158478665Y-71565000D01*
X158201426Y-71620147D01*
X157940273Y-71728320D01*
X157705241Y-71885363D01*
X157600604Y-71990000D01*
X155180000Y-71990000D01*
X155180000Y-71379999D01*
X165261928Y-71379999D01*
X165261928Y-72620001D01*
X165278992Y-72793255D01*
X165329528Y-72959851D01*
X165411595Y-73113387D01*
X165522038Y-73247962D01*
X165656613Y-73358405D01*
X165810149Y-73440472D01*
X165976745Y-73491008D01*
X166149999Y-73508072D01*
X167850001Y-73508072D01*
X168023255Y-73491008D01*
X168189851Y-73440472D01*
X168343387Y-73358405D01*
X168477962Y-73247962D01*
X168588405Y-73113387D01*
X168670472Y-72959851D01*
X168721008Y-72793255D01*
X168738072Y-72620001D01*
X168738072Y-71379999D01*
X168721008Y-71206745D01*
X168670472Y-71040149D01*
X168588405Y-70886613D01*
X168477962Y-70752038D01*
X168343387Y-70641595D01*
X168234686Y-70583493D01*
X168390536Y-70430494D01*
X168557571Y-70185437D01*
X168673588Y-69912502D01*
X168691302Y-69820031D01*
X168570246Y-69587000D01*
X167127000Y-69587000D01*
X167127000Y-69607000D01*
X166873000Y-69607000D01*
X166873000Y-69587000D01*
X165429754Y-69587000D01*
X165308698Y-69820031D01*
X165326412Y-69912502D01*
X165442429Y-70185437D01*
X165609464Y-70430494D01*
X165765314Y-70583493D01*
X165656613Y-70641595D01*
X165522038Y-70752038D01*
X165411595Y-70886613D01*
X165329528Y-71040149D01*
X165278992Y-71206745D01*
X165261928Y-71379999D01*
X155180000Y-71379999D01*
X155180000Y-68858665D01*
X157185000Y-68858665D01*
X157185000Y-69141335D01*
X157240147Y-69418574D01*
X157348320Y-69679727D01*
X157505363Y-69914759D01*
X157705241Y-70114637D01*
X157940273Y-70271680D01*
X158201426Y-70379853D01*
X158478665Y-70435000D01*
X158761335Y-70435000D01*
X159038574Y-70379853D01*
X159299727Y-70271680D01*
X159534759Y-70114637D01*
X159734637Y-69914759D01*
X159891680Y-69679727D01*
X159999853Y-69418574D01*
X160055000Y-69141335D01*
X160055000Y-69099969D01*
X165308698Y-69099969D01*
X165429754Y-69333000D01*
X166873000Y-69333000D01*
X166873000Y-68109414D01*
X167127000Y-68109414D01*
X167127000Y-69333000D01*
X168570246Y-69333000D01*
X168691302Y-69099969D01*
X168673588Y-69007498D01*
X168557571Y-68734563D01*
X168390536Y-68489506D01*
X168178903Y-68281744D01*
X167930804Y-68119262D01*
X167655773Y-68008304D01*
X167364380Y-67953134D01*
X167127000Y-68109414D01*
X166873000Y-68109414D01*
X166635620Y-67953134D01*
X166344227Y-68008304D01*
X166069196Y-68119262D01*
X165821097Y-68281744D01*
X165609464Y-68489506D01*
X165442429Y-68734563D01*
X165326412Y-69007498D01*
X165308698Y-69099969D01*
X160055000Y-69099969D01*
X160055000Y-68858665D01*
X159999853Y-68581426D01*
X159891680Y-68320273D01*
X159734637Y-68085241D01*
X159534759Y-67885363D01*
X159299727Y-67728320D01*
X159038574Y-67620147D01*
X158761335Y-67565000D01*
X158478665Y-67565000D01*
X158201426Y-67620147D01*
X157940273Y-67728320D01*
X157705241Y-67885363D01*
X157505363Y-68085241D01*
X157348320Y-68320273D01*
X157240147Y-68581426D01*
X157185000Y-68858665D01*
X155180000Y-68858665D01*
X155180000Y-65396122D01*
X157310825Y-65396122D01*
X157375425Y-65609094D01*
X157525469Y-65914329D01*
X157732178Y-66184427D01*
X157987609Y-66409008D01*
X158281946Y-66579442D01*
X158603877Y-66689179D01*
X158873000Y-66571600D01*
X158873000Y-65127000D01*
X157428875Y-65127000D01*
X157310825Y-65396122D01*
X155180000Y-65396122D01*
X155180000Y-64603878D01*
X157310825Y-64603878D01*
X157428875Y-64873000D01*
X158873000Y-64873000D01*
X158873000Y-63428400D01*
X159127000Y-63428400D01*
X159127000Y-64873000D01*
X159147000Y-64873000D01*
X159147000Y-65127000D01*
X159127000Y-65127000D01*
X159127000Y-66571600D01*
X159396123Y-66689179D01*
X159718054Y-66579442D01*
X160012391Y-66409008D01*
X160267822Y-66184427D01*
X160474531Y-65914329D01*
X160624575Y-65609094D01*
X160656063Y-65505284D01*
X160728320Y-65679727D01*
X160885363Y-65914759D01*
X161085241Y-66114637D01*
X161320273Y-66271680D01*
X161581426Y-66379853D01*
X161858665Y-66435000D01*
X162141335Y-66435000D01*
X162418574Y-66379853D01*
X162679727Y-66271680D01*
X162914759Y-66114637D01*
X163114637Y-65914759D01*
X163271680Y-65679727D01*
X163379853Y-65418574D01*
X163393684Y-65349039D01*
X168228096Y-65349039D01*
X168268754Y-65483087D01*
X168388963Y-65737420D01*
X168556481Y-65963414D01*
X168764869Y-66152385D01*
X169006119Y-66297070D01*
X169270960Y-66391909D01*
X169493000Y-66270624D01*
X169493000Y-65127000D01*
X169747000Y-65127000D01*
X169747000Y-66270624D01*
X169969040Y-66391909D01*
X170233881Y-66297070D01*
X170475131Y-66152385D01*
X170683519Y-65963414D01*
X170851037Y-65737420D01*
X170971246Y-65483087D01*
X171011904Y-65349039D01*
X170889915Y-65127000D01*
X169747000Y-65127000D01*
X169493000Y-65127000D01*
X168350085Y-65127000D01*
X168228096Y-65349039D01*
X163393684Y-65349039D01*
X163435000Y-65141335D01*
X163435000Y-64858665D01*
X163393685Y-64650961D01*
X168228096Y-64650961D01*
X168350085Y-64873000D01*
X169493000Y-64873000D01*
X169493000Y-63729376D01*
X169747000Y-63729376D01*
X169747000Y-64873000D01*
X170889915Y-64873000D01*
X171011904Y-64650961D01*
X170971246Y-64516913D01*
X170851037Y-64262580D01*
X170683519Y-64036586D01*
X170475131Y-63847615D01*
X170233881Y-63702930D01*
X169969040Y-63608091D01*
X169747000Y-63729376D01*
X169493000Y-63729376D01*
X169270960Y-63608091D01*
X169006119Y-63702930D01*
X168764869Y-63847615D01*
X168556481Y-64036586D01*
X168388963Y-64262580D01*
X168268754Y-64516913D01*
X168228096Y-64650961D01*
X163393685Y-64650961D01*
X163379853Y-64581426D01*
X163271680Y-64320273D01*
X163114637Y-64085241D01*
X162914759Y-63885363D01*
X162679727Y-63728320D01*
X162418574Y-63620147D01*
X162141335Y-63565000D01*
X161858665Y-63565000D01*
X161581426Y-63620147D01*
X161320273Y-63728320D01*
X161085241Y-63885363D01*
X160885363Y-64085241D01*
X160728320Y-64320273D01*
X160656063Y-64494716D01*
X160624575Y-64390906D01*
X160474531Y-64085671D01*
X160267822Y-63815573D01*
X160012391Y-63590992D01*
X159718054Y-63420558D01*
X159396123Y-63310821D01*
X159127000Y-63428400D01*
X158873000Y-63428400D01*
X158603877Y-63310821D01*
X158281946Y-63420558D01*
X157987609Y-63590992D01*
X157732178Y-63815573D01*
X157525469Y-64085671D01*
X157375425Y-64390906D01*
X157310825Y-64603878D01*
X155180000Y-64603878D01*
X155180000Y-60829117D01*
X157265000Y-60829117D01*
X157265000Y-61170883D01*
X157331675Y-61506081D01*
X157462463Y-61821831D01*
X157652337Y-62105998D01*
X157894002Y-62347663D01*
X158178169Y-62537537D01*
X158493919Y-62668325D01*
X158829117Y-62735000D01*
X159170883Y-62735000D01*
X159506081Y-62668325D01*
X159821831Y-62537537D01*
X160105998Y-62347663D01*
X160347663Y-62105998D01*
X160537537Y-61821831D01*
X160668325Y-61506081D01*
X160735000Y-61170883D01*
X160735000Y-60829117D01*
X160668325Y-60493919D01*
X160537537Y-60178169D01*
X160347663Y-59894002D01*
X160105998Y-59652337D01*
X159821831Y-59462463D01*
X159622746Y-59379999D01*
X165261928Y-59379999D01*
X165261928Y-60620001D01*
X165278992Y-60793255D01*
X165329528Y-60959851D01*
X165411595Y-61113387D01*
X165522038Y-61247962D01*
X165656613Y-61358405D01*
X165810149Y-61440472D01*
X165976745Y-61491008D01*
X166149999Y-61508072D01*
X167850001Y-61508072D01*
X168023255Y-61491008D01*
X168189851Y-61440472D01*
X168343387Y-61358405D01*
X168477962Y-61247962D01*
X168588405Y-61113387D01*
X168670472Y-60959851D01*
X168721008Y-60793255D01*
X168738072Y-60620001D01*
X168738072Y-59379999D01*
X168721008Y-59206745D01*
X168670472Y-59040149D01*
X168588405Y-58886613D01*
X168477962Y-58752038D01*
X168343387Y-58641595D01*
X168234686Y-58583493D01*
X168390536Y-58430494D01*
X168557571Y-58185437D01*
X168673588Y-57912502D01*
X168691302Y-57820031D01*
X168570246Y-57587000D01*
X167127000Y-57587000D01*
X167127000Y-57607000D01*
X166873000Y-57607000D01*
X166873000Y-57587000D01*
X165429754Y-57587000D01*
X165308698Y-57820031D01*
X165326412Y-57912502D01*
X165442429Y-58185437D01*
X165609464Y-58430494D01*
X165765314Y-58583493D01*
X165656613Y-58641595D01*
X165522038Y-58752038D01*
X165411595Y-58886613D01*
X165329528Y-59040149D01*
X165278992Y-59206745D01*
X165261928Y-59379999D01*
X159622746Y-59379999D01*
X159506081Y-59331675D01*
X159170883Y-59265000D01*
X158829117Y-59265000D01*
X158493919Y-59331675D01*
X158178169Y-59462463D01*
X157894002Y-59652337D01*
X157652337Y-59894002D01*
X157462463Y-60178169D01*
X157331675Y-60493919D01*
X157265000Y-60829117D01*
X155180000Y-60829117D01*
X155180000Y-57804606D01*
X155184886Y-57754998D01*
X155165385Y-57557003D01*
X155107632Y-57366618D01*
X155013846Y-57191157D01*
X154972959Y-57141335D01*
X154887633Y-57037365D01*
X154849100Y-57005742D01*
X154702023Y-56858665D01*
X157565000Y-56858665D01*
X157565000Y-57141335D01*
X157620147Y-57418574D01*
X157728320Y-57679727D01*
X157885363Y-57914759D01*
X158085241Y-58114637D01*
X158320273Y-58271680D01*
X158581426Y-58379853D01*
X158858665Y-58435000D01*
X159141335Y-58435000D01*
X159418574Y-58379853D01*
X159679727Y-58271680D01*
X159914759Y-58114637D01*
X160114637Y-57914759D01*
X160271680Y-57679727D01*
X160379853Y-57418574D01*
X160435000Y-57141335D01*
X160435000Y-57099969D01*
X165308698Y-57099969D01*
X165429754Y-57333000D01*
X166873000Y-57333000D01*
X166873000Y-56109414D01*
X167127000Y-56109414D01*
X167127000Y-57333000D01*
X168570246Y-57333000D01*
X168691302Y-57099969D01*
X168673588Y-57007498D01*
X168557571Y-56734563D01*
X168390536Y-56489506D01*
X168178903Y-56281744D01*
X167930804Y-56119262D01*
X167655773Y-56008304D01*
X167364380Y-55953134D01*
X167127000Y-56109414D01*
X166873000Y-56109414D01*
X166635620Y-55953134D01*
X166344227Y-56008304D01*
X166069196Y-56119262D01*
X165821097Y-56281744D01*
X165609464Y-56489506D01*
X165442429Y-56734563D01*
X165326412Y-57007498D01*
X165308698Y-57099969D01*
X160435000Y-57099969D01*
X160435000Y-56858665D01*
X160379853Y-56581426D01*
X160271680Y-56320273D01*
X160114637Y-56085241D01*
X159914759Y-55885363D01*
X159679727Y-55728320D01*
X159418574Y-55620147D01*
X159141335Y-55565000D01*
X158858665Y-55565000D01*
X158581426Y-55620147D01*
X158320273Y-55728320D01*
X158085241Y-55885363D01*
X157885363Y-56085241D01*
X157728320Y-56320273D01*
X157620147Y-56581426D01*
X157565000Y-56858665D01*
X154702023Y-56858665D01*
X152092883Y-54249526D01*
X152294759Y-54114637D01*
X152494637Y-53914759D01*
X152651680Y-53679727D01*
X152759853Y-53418574D01*
X152773684Y-53349039D01*
X157608096Y-53349039D01*
X157648754Y-53483087D01*
X157768963Y-53737420D01*
X157936481Y-53963414D01*
X158144869Y-54152385D01*
X158386119Y-54297070D01*
X158650960Y-54391909D01*
X158873000Y-54270624D01*
X158873000Y-53127000D01*
X159127000Y-53127000D01*
X159127000Y-54270624D01*
X159349040Y-54391909D01*
X159613881Y-54297070D01*
X159855131Y-54152385D01*
X160063519Y-53963414D01*
X160231037Y-53737420D01*
X160351246Y-53483087D01*
X160391904Y-53349039D01*
X160269915Y-53127000D01*
X159127000Y-53127000D01*
X158873000Y-53127000D01*
X157730085Y-53127000D01*
X157608096Y-53349039D01*
X152773684Y-53349039D01*
X152815000Y-53141335D01*
X152815000Y-52858665D01*
X152773685Y-52650961D01*
X157608096Y-52650961D01*
X157730085Y-52873000D01*
X158873000Y-52873000D01*
X158873000Y-51729376D01*
X159127000Y-51729376D01*
X159127000Y-52873000D01*
X160269915Y-52873000D01*
X160391904Y-52650961D01*
X160351246Y-52516913D01*
X160286535Y-52379999D01*
X165261928Y-52379999D01*
X165261928Y-53620001D01*
X165278992Y-53793255D01*
X165329528Y-53959851D01*
X165411595Y-54113387D01*
X165522038Y-54247962D01*
X165656613Y-54358405D01*
X165810149Y-54440472D01*
X165976745Y-54491008D01*
X166149999Y-54508072D01*
X167850001Y-54508072D01*
X168023255Y-54491008D01*
X168189851Y-54440472D01*
X168343387Y-54358405D01*
X168477962Y-54247962D01*
X168588405Y-54113387D01*
X168670472Y-53959851D01*
X168721008Y-53793255D01*
X168738072Y-53620001D01*
X168738072Y-52379999D01*
X168721008Y-52206745D01*
X168670472Y-52040149D01*
X168588405Y-51886613D01*
X168477962Y-51752038D01*
X168343387Y-51641595D01*
X168234686Y-51583493D01*
X168390536Y-51430494D01*
X168557571Y-51185437D01*
X168673588Y-50912502D01*
X168691302Y-50820031D01*
X168570246Y-50587000D01*
X167127000Y-50587000D01*
X167127000Y-50607000D01*
X166873000Y-50607000D01*
X166873000Y-50587000D01*
X165429754Y-50587000D01*
X165308698Y-50820031D01*
X165326412Y-50912502D01*
X165442429Y-51185437D01*
X165609464Y-51430494D01*
X165765314Y-51583493D01*
X165656613Y-51641595D01*
X165522038Y-51752038D01*
X165411595Y-51886613D01*
X165329528Y-52040149D01*
X165278992Y-52206745D01*
X165261928Y-52379999D01*
X160286535Y-52379999D01*
X160231037Y-52262580D01*
X160063519Y-52036586D01*
X159855131Y-51847615D01*
X159613881Y-51702930D01*
X159349040Y-51608091D01*
X159127000Y-51729376D01*
X158873000Y-51729376D01*
X158650960Y-51608091D01*
X158386119Y-51702930D01*
X158144869Y-51847615D01*
X157936481Y-52036586D01*
X157768963Y-52262580D01*
X157648754Y-52516913D01*
X157608096Y-52650961D01*
X152773685Y-52650961D01*
X152759853Y-52581426D01*
X152651680Y-52320273D01*
X152494637Y-52085241D01*
X152294759Y-51885363D01*
X152059727Y-51728320D01*
X151798574Y-51620147D01*
X151521335Y-51565000D01*
X151238665Y-51565000D01*
X150961426Y-51620147D01*
X150700273Y-51728320D01*
X150465241Y-51885363D01*
X150265363Y-52085241D01*
X150133193Y-52283047D01*
X150132635Y-52282367D01*
X149978842Y-52156153D01*
X149803382Y-52062368D01*
X149612996Y-52004615D01*
X149464610Y-51990000D01*
X149415002Y-51985114D01*
X149365394Y-51990000D01*
X148399870Y-51990000D01*
X148389502Y-51955820D01*
X148330537Y-51845506D01*
X148251185Y-51748815D01*
X148154494Y-51669463D01*
X148044180Y-51610498D01*
X148010000Y-51600130D01*
X148010000Y-49396122D01*
X149690825Y-49396122D01*
X149755425Y-49609094D01*
X149905469Y-49914329D01*
X150112178Y-50184427D01*
X150367609Y-50409008D01*
X150661946Y-50579442D01*
X150983877Y-50689179D01*
X151253000Y-50571600D01*
X151253000Y-49127000D01*
X151507000Y-49127000D01*
X151507000Y-50571600D01*
X151776123Y-50689179D01*
X152098054Y-50579442D01*
X152392391Y-50409008D01*
X152647822Y-50184427D01*
X152854531Y-49914329D01*
X153004575Y-49609094D01*
X153069175Y-49396122D01*
X152951125Y-49127000D01*
X151507000Y-49127000D01*
X151253000Y-49127000D01*
X149808875Y-49127000D01*
X149690825Y-49396122D01*
X148010000Y-49396122D01*
X148010000Y-48738072D01*
X148100000Y-48738072D01*
X148224482Y-48725812D01*
X148344180Y-48689502D01*
X148454494Y-48630537D01*
X148486978Y-48603878D01*
X149690825Y-48603878D01*
X149808875Y-48873000D01*
X151253000Y-48873000D01*
X151253000Y-47428400D01*
X151507000Y-47428400D01*
X151507000Y-48873000D01*
X152951125Y-48873000D01*
X153069175Y-48603878D01*
X153004575Y-48390906D01*
X152854531Y-48085671D01*
X152712435Y-47900000D01*
X157261928Y-47900000D01*
X157261928Y-50100000D01*
X157274188Y-50224482D01*
X157310498Y-50344180D01*
X157369463Y-50454494D01*
X157448815Y-50551185D01*
X157545506Y-50630537D01*
X157655820Y-50689502D01*
X157775518Y-50725812D01*
X157900000Y-50738072D01*
X160100000Y-50738072D01*
X160224482Y-50725812D01*
X160344180Y-50689502D01*
X160454494Y-50630537D01*
X160551185Y-50551185D01*
X160630537Y-50454494D01*
X160689502Y-50344180D01*
X160725812Y-50224482D01*
X160738072Y-50100000D01*
X160738072Y-50099969D01*
X165308698Y-50099969D01*
X165429754Y-50333000D01*
X166873000Y-50333000D01*
X166873000Y-49109414D01*
X167127000Y-49109414D01*
X167127000Y-50333000D01*
X168570246Y-50333000D01*
X168691302Y-50099969D01*
X168673588Y-50007498D01*
X168557571Y-49734563D01*
X168390536Y-49489506D01*
X168178903Y-49281744D01*
X167930804Y-49119262D01*
X167655773Y-49008304D01*
X167364380Y-48953134D01*
X167127000Y-49109414D01*
X166873000Y-49109414D01*
X166635620Y-48953134D01*
X166344227Y-49008304D01*
X166069196Y-49119262D01*
X165821097Y-49281744D01*
X165609464Y-49489506D01*
X165442429Y-49734563D01*
X165326412Y-50007498D01*
X165308698Y-50099969D01*
X160738072Y-50099969D01*
X160738072Y-47900000D01*
X160725812Y-47775518D01*
X160689502Y-47655820D01*
X160630537Y-47545506D01*
X160551185Y-47448815D01*
X160454494Y-47369463D01*
X160344180Y-47310498D01*
X160224482Y-47274188D01*
X160100000Y-47261928D01*
X157900000Y-47261928D01*
X157775518Y-47274188D01*
X157655820Y-47310498D01*
X157545506Y-47369463D01*
X157448815Y-47448815D01*
X157369463Y-47545506D01*
X157310498Y-47655820D01*
X157274188Y-47775518D01*
X157261928Y-47900000D01*
X152712435Y-47900000D01*
X152647822Y-47815573D01*
X152392391Y-47590992D01*
X152098054Y-47420558D01*
X151776123Y-47310821D01*
X151507000Y-47428400D01*
X151253000Y-47428400D01*
X150983877Y-47310821D01*
X150661946Y-47420558D01*
X150367609Y-47590992D01*
X150112178Y-47815573D01*
X149905469Y-48085671D01*
X149755425Y-48390906D01*
X149690825Y-48603878D01*
X148486978Y-48603878D01*
X148551185Y-48551185D01*
X148630537Y-48454494D01*
X148689502Y-48344180D01*
X148725812Y-48224482D01*
X148738072Y-48100000D01*
X148738072Y-45900000D01*
X148725812Y-45775518D01*
X148689502Y-45655820D01*
X148630537Y-45545506D01*
X148551185Y-45448815D01*
X148454494Y-45369463D01*
X148344180Y-45310498D01*
X148224482Y-45274188D01*
X148100000Y-45261928D01*
X145900000Y-45261928D01*
X145775518Y-45274188D01*
X145655820Y-45310498D01*
X145545506Y-45369463D01*
X145448815Y-45448815D01*
X145369463Y-45545506D01*
X145310498Y-45655820D01*
X145274188Y-45775518D01*
X145261928Y-45900000D01*
X145261928Y-48100000D01*
X145274188Y-48224482D01*
X145310498Y-48344180D01*
X145369463Y-48454494D01*
X145448815Y-48551185D01*
X145545506Y-48630537D01*
X145655820Y-48689502D01*
X145775518Y-48725812D01*
X145900000Y-48738072D01*
X145990000Y-48738072D01*
X145990001Y-51600129D01*
X145955820Y-51610498D01*
X145845506Y-51669463D01*
X145748815Y-51748815D01*
X145669463Y-51845506D01*
X145610498Y-51955820D01*
X145574188Y-52075518D01*
X145561928Y-52200000D01*
X145561928Y-53009717D01*
X144581645Y-53990000D01*
X141493163Y-53990000D01*
X141501672Y-53903600D01*
X141501672Y-52176400D01*
X141489412Y-52051918D01*
X141453102Y-51932220D01*
X141394137Y-51821906D01*
X141314785Y-51725215D01*
X141218094Y-51645863D01*
X141107780Y-51586898D01*
X141043426Y-51567376D01*
X141106854Y-51510293D01*
X141282684Y-51274944D01*
X141409222Y-51009814D01*
X141454958Y-50859026D01*
X141333817Y-50627000D01*
X140127000Y-50627000D01*
X140127000Y-50647000D01*
X139873000Y-50647000D01*
X139873000Y-50627000D01*
X137587000Y-50627000D01*
X137587000Y-50647000D01*
X137333000Y-50647000D01*
X137333000Y-50627000D01*
X136126183Y-50627000D01*
X136005042Y-50859026D01*
X136050778Y-51009814D01*
X136177316Y-51274944D01*
X136353146Y-51510293D01*
X136571512Y-51706817D01*
X136670103Y-51765441D01*
X136504698Y-51875961D01*
X136295961Y-52084698D01*
X136131958Y-52330147D01*
X136018990Y-52602875D01*
X135961400Y-52892401D01*
X135961400Y-53187599D01*
X136018990Y-53477125D01*
X136131958Y-53749853D01*
X136292418Y-53990000D01*
X131591825Y-53990000D01*
X131463926Y-53798587D01*
X131201413Y-53536074D01*
X130892731Y-53329818D01*
X130549741Y-53187747D01*
X130185625Y-53115320D01*
X129814375Y-53115320D01*
X129450259Y-53187747D01*
X129107269Y-53329818D01*
X128798587Y-53536074D01*
X128536074Y-53798587D01*
X128329818Y-54107269D01*
X128187747Y-54450259D01*
X128115320Y-54814375D01*
X127660000Y-54814375D01*
X127660000Y-49313377D01*
X128866229Y-49313377D01*
X128992104Y-49603315D01*
X129324262Y-49769139D01*
X129682387Y-49866975D01*
X130052719Y-49893065D01*
X130421025Y-49846405D01*
X130773151Y-49728789D01*
X131007896Y-49603315D01*
X131133771Y-49313377D01*
X130000000Y-48179605D01*
X128866229Y-49313377D01*
X127660000Y-49313377D01*
X127660000Y-48052719D01*
X128106935Y-48052719D01*
X128153595Y-48421025D01*
X128271211Y-48773151D01*
X128396685Y-49007896D01*
X128686623Y-49133771D01*
X129820395Y-48000000D01*
X130179605Y-48000000D01*
X131313377Y-49133771D01*
X131603315Y-49007896D01*
X131769139Y-48675738D01*
X131866588Y-48319026D01*
X136005042Y-48319026D01*
X136050778Y-48469814D01*
X136177316Y-48734944D01*
X136353146Y-48970293D01*
X136571512Y-49166817D01*
X136677770Y-49230000D01*
X136571512Y-49293183D01*
X136353146Y-49489707D01*
X136177316Y-49725056D01*
X136050778Y-49990186D01*
X136005042Y-50140974D01*
X136126183Y-50373000D01*
X137333000Y-50373000D01*
X137333000Y-48087000D01*
X137587000Y-48087000D01*
X137587000Y-50373000D01*
X139873000Y-50373000D01*
X139873000Y-48087000D01*
X140127000Y-48087000D01*
X140127000Y-50373000D01*
X141333817Y-50373000D01*
X141454958Y-50140974D01*
X141409222Y-49990186D01*
X141282684Y-49725056D01*
X141106854Y-49489707D01*
X140888488Y-49293183D01*
X140782230Y-49230000D01*
X140888488Y-49166817D01*
X141106854Y-48970293D01*
X141282684Y-48734944D01*
X141409222Y-48469814D01*
X141454958Y-48319026D01*
X141333817Y-48087000D01*
X140127000Y-48087000D01*
X139873000Y-48087000D01*
X137587000Y-48087000D01*
X137333000Y-48087000D01*
X136126183Y-48087000D01*
X136005042Y-48319026D01*
X131866588Y-48319026D01*
X131866975Y-48317613D01*
X131893065Y-47947281D01*
X131846405Y-47578975D01*
X131728789Y-47226849D01*
X131603315Y-46992104D01*
X131313377Y-46866229D01*
X130179605Y-48000000D01*
X129820395Y-48000000D01*
X128686623Y-46866229D01*
X128396685Y-46992104D01*
X128230861Y-47324262D01*
X128133025Y-47682387D01*
X128106935Y-48052719D01*
X127660000Y-48052719D01*
X127660000Y-46686623D01*
X128866229Y-46686623D01*
X130000000Y-47820395D01*
X131133771Y-46686623D01*
X131007896Y-46396685D01*
X130675738Y-46230861D01*
X130317613Y-46133025D01*
X129947281Y-46106935D01*
X129578975Y-46153595D01*
X129226849Y-46271211D01*
X128992104Y-46396685D01*
X128866229Y-46686623D01*
X127660000Y-46686623D01*
X127660000Y-45779026D01*
X136005042Y-45779026D01*
X136050778Y-45929814D01*
X136177316Y-46194944D01*
X136353146Y-46430293D01*
X136571512Y-46626817D01*
X136677770Y-46690000D01*
X136571512Y-46753183D01*
X136353146Y-46949707D01*
X136177316Y-47185056D01*
X136050778Y-47450186D01*
X136005042Y-47600974D01*
X136126183Y-47833000D01*
X137333000Y-47833000D01*
X137333000Y-45547000D01*
X137587000Y-45547000D01*
X137587000Y-47833000D01*
X139873000Y-47833000D01*
X139873000Y-45547000D01*
X140127000Y-45547000D01*
X140127000Y-47833000D01*
X141333817Y-47833000D01*
X141454958Y-47600974D01*
X141409222Y-47450186D01*
X141282684Y-47185056D01*
X141106854Y-46949707D01*
X140888488Y-46753183D01*
X140782230Y-46690000D01*
X140888488Y-46626817D01*
X141106854Y-46430293D01*
X141282684Y-46194944D01*
X141409222Y-45929814D01*
X141454958Y-45779026D01*
X141333817Y-45547000D01*
X140127000Y-45547000D01*
X139873000Y-45547000D01*
X137587000Y-45547000D01*
X137333000Y-45547000D01*
X136126183Y-45547000D01*
X136005042Y-45779026D01*
X127660000Y-45779026D01*
X127660000Y-42732401D01*
X135961400Y-42732401D01*
X135961400Y-43027599D01*
X136018990Y-43317125D01*
X136131958Y-43589853D01*
X136295961Y-43835302D01*
X136504698Y-44044039D01*
X136670103Y-44154559D01*
X136571512Y-44213183D01*
X136353146Y-44409707D01*
X136177316Y-44645056D01*
X136050778Y-44910186D01*
X136005042Y-45060974D01*
X136126183Y-45293000D01*
X137333000Y-45293000D01*
X137333000Y-45273000D01*
X137587000Y-45273000D01*
X137587000Y-45293000D01*
X139873000Y-45293000D01*
X139873000Y-45273000D01*
X140127000Y-45273000D01*
X140127000Y-45293000D01*
X141333817Y-45293000D01*
X141454958Y-45060974D01*
X141409222Y-44910186D01*
X141384633Y-44858665D01*
X149945000Y-44858665D01*
X149945000Y-45141335D01*
X150000147Y-45418574D01*
X150108320Y-45679727D01*
X150265363Y-45914759D01*
X150465241Y-46114637D01*
X150700273Y-46271680D01*
X150961426Y-46379853D01*
X151238665Y-46435000D01*
X151521335Y-46435000D01*
X151798574Y-46379853D01*
X152059727Y-46271680D01*
X152294759Y-46114637D01*
X152494637Y-45914759D01*
X152651680Y-45679727D01*
X152759853Y-45418574D01*
X152815000Y-45141335D01*
X152815000Y-44858665D01*
X157565000Y-44858665D01*
X157565000Y-45141335D01*
X157620147Y-45418574D01*
X157728320Y-45679727D01*
X157885363Y-45914759D01*
X158085241Y-46114637D01*
X158320273Y-46271680D01*
X158581426Y-46379853D01*
X158858665Y-46435000D01*
X159141335Y-46435000D01*
X159418574Y-46379853D01*
X159679727Y-46271680D01*
X159914759Y-46114637D01*
X160114637Y-45914759D01*
X160271680Y-45679727D01*
X160379853Y-45418574D01*
X160387526Y-45379999D01*
X165261928Y-45379999D01*
X165261928Y-46620001D01*
X165278992Y-46793255D01*
X165329528Y-46959851D01*
X165411595Y-47113387D01*
X165522038Y-47247962D01*
X165656613Y-47358405D01*
X165810149Y-47440472D01*
X165976745Y-47491008D01*
X166149999Y-47508072D01*
X167850001Y-47508072D01*
X168023255Y-47491008D01*
X168189851Y-47440472D01*
X168343387Y-47358405D01*
X168477962Y-47247962D01*
X168588405Y-47113387D01*
X168670472Y-46959851D01*
X168721008Y-46793255D01*
X168738072Y-46620001D01*
X168738072Y-45379999D01*
X168721008Y-45206745D01*
X168670472Y-45040149D01*
X168588405Y-44886613D01*
X168477962Y-44752038D01*
X168343387Y-44641595D01*
X168234686Y-44583493D01*
X168390536Y-44430494D01*
X168557571Y-44185437D01*
X168673588Y-43912502D01*
X168691302Y-43820031D01*
X168570246Y-43587000D01*
X167127000Y-43587000D01*
X167127000Y-43607000D01*
X166873000Y-43607000D01*
X166873000Y-43587000D01*
X165429754Y-43587000D01*
X165308698Y-43820031D01*
X165326412Y-43912502D01*
X165442429Y-44185437D01*
X165609464Y-44430494D01*
X165765314Y-44583493D01*
X165656613Y-44641595D01*
X165522038Y-44752038D01*
X165411595Y-44886613D01*
X165329528Y-45040149D01*
X165278992Y-45206745D01*
X165261928Y-45379999D01*
X160387526Y-45379999D01*
X160435000Y-45141335D01*
X160435000Y-44858665D01*
X160379853Y-44581426D01*
X160271680Y-44320273D01*
X160114637Y-44085241D01*
X159914759Y-43885363D01*
X159679727Y-43728320D01*
X159418574Y-43620147D01*
X159141335Y-43565000D01*
X158858665Y-43565000D01*
X158581426Y-43620147D01*
X158320273Y-43728320D01*
X158085241Y-43885363D01*
X157885363Y-44085241D01*
X157728320Y-44320273D01*
X157620147Y-44581426D01*
X157565000Y-44858665D01*
X152815000Y-44858665D01*
X152759853Y-44581426D01*
X152651680Y-44320273D01*
X152494637Y-44085241D01*
X152294759Y-43885363D01*
X152059727Y-43728320D01*
X151798574Y-43620147D01*
X151521335Y-43565000D01*
X151238665Y-43565000D01*
X150961426Y-43620147D01*
X150700273Y-43728320D01*
X150465241Y-43885363D01*
X150265363Y-44085241D01*
X150108320Y-44320273D01*
X150000147Y-44581426D01*
X149945000Y-44858665D01*
X141384633Y-44858665D01*
X141282684Y-44645056D01*
X141106854Y-44409707D01*
X140888488Y-44213183D01*
X140789897Y-44154559D01*
X140955302Y-44044039D01*
X141109341Y-43890000D01*
X143450392Y-43890000D01*
X143500000Y-43894886D01*
X143697994Y-43875385D01*
X143888380Y-43817632D01*
X144063840Y-43723847D01*
X144217633Y-43597633D01*
X144249261Y-43559094D01*
X144708386Y-43099969D01*
X165308698Y-43099969D01*
X165429754Y-43333000D01*
X166873000Y-43333000D01*
X166873000Y-42109414D01*
X167127000Y-42109414D01*
X167127000Y-43333000D01*
X168570246Y-43333000D01*
X168691302Y-43099969D01*
X168673588Y-43007498D01*
X168557571Y-42734563D01*
X168390536Y-42489506D01*
X168178903Y-42281744D01*
X167930804Y-42119262D01*
X167655773Y-42008304D01*
X167364380Y-41953134D01*
X167127000Y-42109414D01*
X166873000Y-42109414D01*
X166635620Y-41953134D01*
X166344227Y-42008304D01*
X166069196Y-42119262D01*
X165821097Y-42281744D01*
X165609464Y-42489506D01*
X165442429Y-42734563D01*
X165326412Y-43007498D01*
X165308698Y-43099969D01*
X144708386Y-43099969D01*
X146412233Y-41396122D01*
X149690825Y-41396122D01*
X149755425Y-41609094D01*
X149905469Y-41914329D01*
X150112178Y-42184427D01*
X150367609Y-42409008D01*
X150661946Y-42579442D01*
X150983877Y-42689179D01*
X151253000Y-42571600D01*
X151253000Y-41127000D01*
X151507000Y-41127000D01*
X151507000Y-42571600D01*
X151776123Y-42689179D01*
X152098054Y-42579442D01*
X152392391Y-42409008D01*
X152647822Y-42184427D01*
X152854531Y-41914329D01*
X153004575Y-41609094D01*
X153069175Y-41396122D01*
X152951125Y-41127000D01*
X151507000Y-41127000D01*
X151253000Y-41127000D01*
X149808875Y-41127000D01*
X149690825Y-41396122D01*
X146412233Y-41396122D01*
X146715880Y-41092476D01*
X146829117Y-41115000D01*
X147170883Y-41115000D01*
X147506081Y-41048325D01*
X147821831Y-40917537D01*
X148105998Y-40727663D01*
X148229783Y-40603878D01*
X149690825Y-40603878D01*
X149808875Y-40873000D01*
X151253000Y-40873000D01*
X151253000Y-39428400D01*
X151507000Y-39428400D01*
X151507000Y-40873000D01*
X152951125Y-40873000D01*
X153069175Y-40603878D01*
X153004575Y-40390906D01*
X152854531Y-40085671D01*
X152712435Y-39900000D01*
X157261928Y-39900000D01*
X157261928Y-42100000D01*
X157274188Y-42224482D01*
X157310498Y-42344180D01*
X157369463Y-42454494D01*
X157448815Y-42551185D01*
X157545506Y-42630537D01*
X157655820Y-42689502D01*
X157775518Y-42725812D01*
X157900000Y-42738072D01*
X160100000Y-42738072D01*
X160224482Y-42725812D01*
X160344180Y-42689502D01*
X160454494Y-42630537D01*
X160551185Y-42551185D01*
X160630537Y-42454494D01*
X160689502Y-42344180D01*
X160725812Y-42224482D01*
X160738072Y-42100000D01*
X160738072Y-39900000D01*
X160725812Y-39775518D01*
X160689502Y-39655820D01*
X160630537Y-39545506D01*
X160551185Y-39448815D01*
X160454494Y-39369463D01*
X160344180Y-39310498D01*
X160224482Y-39274188D01*
X160100000Y-39261928D01*
X157900000Y-39261928D01*
X157775518Y-39274188D01*
X157655820Y-39310498D01*
X157545506Y-39369463D01*
X157448815Y-39448815D01*
X157369463Y-39545506D01*
X157310498Y-39655820D01*
X157274188Y-39775518D01*
X157261928Y-39900000D01*
X152712435Y-39900000D01*
X152647822Y-39815573D01*
X152392391Y-39590992D01*
X152098054Y-39420558D01*
X151776123Y-39310821D01*
X151507000Y-39428400D01*
X151253000Y-39428400D01*
X150983877Y-39310821D01*
X150661946Y-39420558D01*
X150367609Y-39590992D01*
X150112178Y-39815573D01*
X149905469Y-40085671D01*
X149755425Y-40390906D01*
X149690825Y-40603878D01*
X148229783Y-40603878D01*
X148347663Y-40485998D01*
X148537537Y-40201831D01*
X148668325Y-39886081D01*
X148735000Y-39550883D01*
X148735000Y-39209117D01*
X148668325Y-38873919D01*
X148537537Y-38558169D01*
X148347663Y-38274002D01*
X148105998Y-38032337D01*
X147821831Y-37842463D01*
X147506081Y-37711675D01*
X147170883Y-37645000D01*
X146829117Y-37645000D01*
X146493919Y-37711675D01*
X146178169Y-37842463D01*
X145894002Y-38032337D01*
X145652337Y-38274002D01*
X145462463Y-38558169D01*
X145331675Y-38873919D01*
X145265000Y-39209117D01*
X145265000Y-39550883D01*
X145287524Y-39664120D01*
X143081645Y-41870000D01*
X141109341Y-41870000D01*
X140955302Y-41715961D01*
X140709853Y-41551958D01*
X140437125Y-41438990D01*
X140147599Y-41381400D01*
X139852401Y-41381400D01*
X139562875Y-41438990D01*
X139290147Y-41551958D01*
X139044698Y-41715961D01*
X138890659Y-41870000D01*
X138569341Y-41870000D01*
X138415302Y-41715961D01*
X138169853Y-41551958D01*
X137897125Y-41438990D01*
X137607599Y-41381400D01*
X137312401Y-41381400D01*
X137022875Y-41438990D01*
X136750147Y-41551958D01*
X136504698Y-41715961D01*
X136295961Y-41924698D01*
X136131958Y-42170147D01*
X136018990Y-42442875D01*
X135961400Y-42732401D01*
X127660000Y-42732401D01*
X127660000Y-36779872D01*
X127765000Y-36779872D01*
X127765000Y-37220128D01*
X127850890Y-37651925D01*
X128019369Y-38058669D01*
X128263962Y-38424729D01*
X128575271Y-38736038D01*
X128941331Y-38980631D01*
X129348075Y-39149110D01*
X129779872Y-39235000D01*
X130220128Y-39235000D01*
X130651925Y-39149110D01*
X131058669Y-38980631D01*
X131424729Y-38736038D01*
X131736038Y-38424729D01*
X131980631Y-38058669D01*
X132149110Y-37651925D01*
X132235000Y-37220128D01*
X132235000Y-36858665D01*
X149945000Y-36858665D01*
X149945000Y-37141335D01*
X150000147Y-37418574D01*
X150108320Y-37679727D01*
X150265363Y-37914759D01*
X150465241Y-38114637D01*
X150700273Y-38271680D01*
X150961426Y-38379853D01*
X151238665Y-38435000D01*
X151521335Y-38435000D01*
X151798574Y-38379853D01*
X152059727Y-38271680D01*
X152294759Y-38114637D01*
X152494637Y-37914759D01*
X152651680Y-37679727D01*
X152759853Y-37418574D01*
X152815000Y-37141335D01*
X152815000Y-36858665D01*
X157565000Y-36858665D01*
X157565000Y-37141335D01*
X157620147Y-37418574D01*
X157728320Y-37679727D01*
X157885363Y-37914759D01*
X158085241Y-38114637D01*
X158320273Y-38271680D01*
X158581426Y-38379853D01*
X158858665Y-38435000D01*
X159141335Y-38435000D01*
X159418574Y-38379853D01*
X159679727Y-38271680D01*
X159914759Y-38114637D01*
X160114637Y-37914759D01*
X160271680Y-37679727D01*
X160379853Y-37418574D01*
X160435000Y-37141335D01*
X160435000Y-36858665D01*
X160419327Y-36779872D01*
X166765000Y-36779872D01*
X166765000Y-37220128D01*
X166850890Y-37651925D01*
X167019369Y-38058669D01*
X167263962Y-38424729D01*
X167575271Y-38736038D01*
X167941331Y-38980631D01*
X168348075Y-39149110D01*
X168779872Y-39235000D01*
X169220128Y-39235000D01*
X169651925Y-39149110D01*
X170058669Y-38980631D01*
X170424729Y-38736038D01*
X170736038Y-38424729D01*
X170980631Y-38058669D01*
X171149110Y-37651925D01*
X171235000Y-37220128D01*
X171235000Y-36779872D01*
X171149110Y-36348075D01*
X170980631Y-35941331D01*
X170736038Y-35575271D01*
X170424729Y-35263962D01*
X170058669Y-35019369D01*
X169651925Y-34850890D01*
X169220128Y-34765000D01*
X168779872Y-34765000D01*
X168348075Y-34850890D01*
X167941331Y-35019369D01*
X167575271Y-35263962D01*
X167263962Y-35575271D01*
X167019369Y-35941331D01*
X166850890Y-36348075D01*
X166765000Y-36779872D01*
X160419327Y-36779872D01*
X160379853Y-36581426D01*
X160271680Y-36320273D01*
X160114637Y-36085241D01*
X159914759Y-35885363D01*
X159679727Y-35728320D01*
X159418574Y-35620147D01*
X159141335Y-35565000D01*
X158858665Y-35565000D01*
X158581426Y-35620147D01*
X158320273Y-35728320D01*
X158085241Y-35885363D01*
X157885363Y-36085241D01*
X157728320Y-36320273D01*
X157620147Y-36581426D01*
X157565000Y-36858665D01*
X152815000Y-36858665D01*
X152759853Y-36581426D01*
X152651680Y-36320273D01*
X152494637Y-36085241D01*
X152294759Y-35885363D01*
X152059727Y-35728320D01*
X151798574Y-35620147D01*
X151521335Y-35565000D01*
X151238665Y-35565000D01*
X150961426Y-35620147D01*
X150700273Y-35728320D01*
X150465241Y-35885363D01*
X150265363Y-36085241D01*
X150108320Y-36320273D01*
X150000147Y-36581426D01*
X149945000Y-36858665D01*
X132235000Y-36858665D01*
X132235000Y-36779872D01*
X132149110Y-36348075D01*
X131980631Y-35941331D01*
X131736038Y-35575271D01*
X131424729Y-35263962D01*
X131058669Y-35019369D01*
X130651925Y-34850890D01*
X130220128Y-34765000D01*
X129779872Y-34765000D01*
X129348075Y-34850890D01*
X128941331Y-35019369D01*
X128575271Y-35263962D01*
X128263962Y-35575271D01*
X128019369Y-35941331D01*
X127850890Y-36348075D01*
X127765000Y-36779872D01*
X127660000Y-36779872D01*
X127660000Y-34660000D01*
X171340000Y-34660000D01*
X171340001Y-91340000D01*
M02*
