M48
; DRILL file {KiCad 5.1.5-52549c5~84~ubuntu18.04.1} date Sun 05 Jul 2020 07:12:54 AM EDT
; FORMAT={-:-/ absolute / inch / decimal}
; #@! TF.CreationDate,2020-07-05T07:12:54-04:00
; #@! TF.GenerationSoftware,Kicad,Pcbnew,5.1.5-52549c5~84~ubuntu18.04.1
; #@! TF.FileFunction,Plated,1,2,PTH
FMAT,2
INCH
T1C0.0315
T2C0.0394
T3C0.0400
T4C0.0433
T5C0.0472
%
G90
G05
T1
X5.9598Y-2.2441
X6.2598Y-2.2441
X6.2598Y-3.1102
X6.2598Y-3.189
X5.5512Y-2.5591
X5.6496Y-2.5591
X6.0236Y-3.3465
X6.3236Y-3.3465
X5.9598Y-1.7717
X6.2598Y-1.7717
X5.9449Y-2.874
X6.2449Y-2.874
X5.7874Y-2.0866
X5.7874Y-2.1654
X5.9598Y-1.4567
X6.2598Y-1.4567
X5.3299Y-3.3465
X5.6299Y-3.3465
X5.1087Y-2.874
X5.1087Y-3.174
X5.2087Y-2.874
X5.2087Y-3.174
X5.3087Y-2.874
X5.3087Y-3.174
X5.4087Y-2.874
X5.4087Y-3.174
X5.5087Y-2.874
X5.5087Y-3.174
X5.6087Y-2.874
X5.6087Y-3.174
X5.7087Y-2.874
X5.7087Y-3.174
X6.378Y-2.5591
X6.678Y-2.5591
X5.9598Y-2.0866
X6.2598Y-2.0866
X5.9449Y-2.7165
X6.2449Y-2.7165
X6.0236Y-3.0087
X6.0236Y-3.1087
X6.0236Y-3.2087
X6.378Y-2.9921
X6.678Y-2.9921
X5.7874Y-3.3465
X5.8858Y-3.3465
T2
X5.1181Y-2.1654
X5.1181Y-1.8898
T3
X5.4118Y-1.6882
X5.4118Y-1.7882
X5.4118Y-1.8882
X5.4118Y-1.9882
X5.4118Y-2.0882
X5.5118Y-1.6882
X5.5118Y-1.7882
X5.5118Y-1.8882
X5.5118Y-1.9882
X5.5118Y-2.0882
T4
X5.9598Y-2.4016
X6.2598Y-2.4016
X5.9598Y-1.9291
X6.2598Y-1.9291
X5.7874Y-1.5504
X5.7874Y-1.8504
X5.9598Y-2.5591
X6.2598Y-2.5591
X5.9598Y-1.6142
X6.2598Y-1.6142
T5
X5.1969Y-2.4803
X5.1969Y-2.5803
X5.1969Y-2.6803
X6.5748Y-1.9866
X6.5748Y-2.0866
X6.5748Y-2.7346
X6.5748Y-2.8346
X6.5748Y-2.2622
X6.5748Y-2.3622
X6.5748Y-1.711
X6.5748Y-1.811
T0
M30
