G04 #@! TF.GenerationSoftware,KiCad,Pcbnew,5.1.6-c6e7f7d~87~ubuntu20.04.1*
G04 #@! TF.CreationDate,2020-09-27T20:16:03-04:00*
G04 #@! TF.ProjectId,Suboscillator,5375626f-7363-4696-9c6c-61746f722e6b,rev?*
G04 #@! TF.SameCoordinates,Original*
G04 #@! TF.FileFunction,Soldermask,Bot*
G04 #@! TF.FilePolarity,Negative*
%FSLAX46Y46*%
G04 Gerber Fmt 4.6, Leading zero omitted, Abs format (unit mm)*
G04 Created by KiCad (PCBNEW 5.1.6-c6e7f7d~87~ubuntu20.04.1) date 2020-09-27 20:16:03*
%MOMM*%
%LPD*%
G01*
G04 APERTURE LIST*
%ADD10C,0.100000*%
G04 APERTURE END LIST*
D10*
G36*
X169375256Y-87391298D02*
G01*
X169481579Y-87412447D01*
X169782042Y-87536903D01*
X170052451Y-87717585D01*
X170282415Y-87947549D01*
X170463097Y-88217958D01*
X170587553Y-88518421D01*
X170651000Y-88837391D01*
X170651000Y-89162609D01*
X170587553Y-89481579D01*
X170463097Y-89782042D01*
X170282415Y-90052451D01*
X170052451Y-90282415D01*
X169782042Y-90463097D01*
X169481579Y-90587553D01*
X169375256Y-90608702D01*
X169162611Y-90651000D01*
X168837389Y-90651000D01*
X168624744Y-90608702D01*
X168518421Y-90587553D01*
X168217958Y-90463097D01*
X167947549Y-90282415D01*
X167717585Y-90052451D01*
X167536903Y-89782042D01*
X167412447Y-89481579D01*
X167349000Y-89162609D01*
X167349000Y-88837391D01*
X167412447Y-88518421D01*
X167536903Y-88217958D01*
X167717585Y-87947549D01*
X167947549Y-87717585D01*
X168217958Y-87536903D01*
X168518421Y-87412447D01*
X168624744Y-87391298D01*
X168837389Y-87349000D01*
X169162611Y-87349000D01*
X169375256Y-87391298D01*
G37*
G36*
X130375256Y-87391298D02*
G01*
X130481579Y-87412447D01*
X130782042Y-87536903D01*
X131052451Y-87717585D01*
X131282415Y-87947549D01*
X131463097Y-88217958D01*
X131587553Y-88518421D01*
X131651000Y-88837391D01*
X131651000Y-89162609D01*
X131587553Y-89481579D01*
X131463097Y-89782042D01*
X131282415Y-90052451D01*
X131052451Y-90282415D01*
X130782042Y-90463097D01*
X130481579Y-90587553D01*
X130375256Y-90608702D01*
X130162611Y-90651000D01*
X129837389Y-90651000D01*
X129624744Y-90608702D01*
X129518421Y-90587553D01*
X129217958Y-90463097D01*
X128947549Y-90282415D01*
X128717585Y-90052451D01*
X128536903Y-89782042D01*
X128412447Y-89481579D01*
X128349000Y-89162609D01*
X128349000Y-88837391D01*
X128412447Y-88518421D01*
X128536903Y-88217958D01*
X128717585Y-87947549D01*
X128947549Y-87717585D01*
X129217958Y-87536903D01*
X129518421Y-87412447D01*
X129624744Y-87391298D01*
X129837389Y-87349000D01*
X130162611Y-87349000D01*
X130375256Y-87391298D01*
G37*
G36*
X147248228Y-84181703D02*
G01*
X147403100Y-84245853D01*
X147542481Y-84338985D01*
X147661015Y-84457519D01*
X147754147Y-84596900D01*
X147818297Y-84751772D01*
X147851000Y-84916184D01*
X147851000Y-85083816D01*
X147818297Y-85248228D01*
X147754147Y-85403100D01*
X147661015Y-85542481D01*
X147542481Y-85661015D01*
X147403100Y-85754147D01*
X147248228Y-85818297D01*
X147083816Y-85851000D01*
X146916184Y-85851000D01*
X146751772Y-85818297D01*
X146596900Y-85754147D01*
X146457519Y-85661015D01*
X146338985Y-85542481D01*
X146245853Y-85403100D01*
X146181703Y-85248228D01*
X146149000Y-85083816D01*
X146149000Y-84916184D01*
X146181703Y-84751772D01*
X146245853Y-84596900D01*
X146338985Y-84457519D01*
X146457519Y-84338985D01*
X146596900Y-84245853D01*
X146751772Y-84181703D01*
X146916184Y-84149000D01*
X147083816Y-84149000D01*
X147248228Y-84181703D01*
G37*
G36*
X149748228Y-84181703D02*
G01*
X149903100Y-84245853D01*
X150042481Y-84338985D01*
X150161015Y-84457519D01*
X150254147Y-84596900D01*
X150318297Y-84751772D01*
X150351000Y-84916184D01*
X150351000Y-85083816D01*
X150318297Y-85248228D01*
X150254147Y-85403100D01*
X150161015Y-85542481D01*
X150042481Y-85661015D01*
X149903100Y-85754147D01*
X149748228Y-85818297D01*
X149583816Y-85851000D01*
X149416184Y-85851000D01*
X149251772Y-85818297D01*
X149096900Y-85754147D01*
X148957519Y-85661015D01*
X148838985Y-85542481D01*
X148745853Y-85403100D01*
X148681703Y-85248228D01*
X148649000Y-85083816D01*
X148649000Y-84916184D01*
X148681703Y-84751772D01*
X148745853Y-84596900D01*
X148838985Y-84457519D01*
X148957519Y-84338985D01*
X149096900Y-84245853D01*
X149251772Y-84181703D01*
X149416184Y-84149000D01*
X149583816Y-84149000D01*
X149748228Y-84181703D01*
G37*
G36*
X160868228Y-84181703D02*
G01*
X161023100Y-84245853D01*
X161162481Y-84338985D01*
X161281015Y-84457519D01*
X161374147Y-84596900D01*
X161438297Y-84751772D01*
X161471000Y-84916184D01*
X161471000Y-85083816D01*
X161438297Y-85248228D01*
X161374147Y-85403100D01*
X161281015Y-85542481D01*
X161162481Y-85661015D01*
X161023100Y-85754147D01*
X160868228Y-85818297D01*
X160703816Y-85851000D01*
X160536184Y-85851000D01*
X160371772Y-85818297D01*
X160216900Y-85754147D01*
X160077519Y-85661015D01*
X159958985Y-85542481D01*
X159865853Y-85403100D01*
X159801703Y-85248228D01*
X159769000Y-85083816D01*
X159769000Y-84916184D01*
X159801703Y-84751772D01*
X159865853Y-84596900D01*
X159958985Y-84457519D01*
X160077519Y-84338985D01*
X160216900Y-84245853D01*
X160371772Y-84181703D01*
X160536184Y-84149000D01*
X160703816Y-84149000D01*
X160868228Y-84181703D01*
G37*
G36*
X153851000Y-85851000D02*
G01*
X152149000Y-85851000D01*
X152149000Y-84149000D01*
X153851000Y-84149000D01*
X153851000Y-85851000D01*
G37*
G36*
X135628228Y-84181703D02*
G01*
X135783100Y-84245853D01*
X135922481Y-84338985D01*
X136041015Y-84457519D01*
X136134147Y-84596900D01*
X136198297Y-84751772D01*
X136231000Y-84916184D01*
X136231000Y-85083816D01*
X136198297Y-85248228D01*
X136134147Y-85403100D01*
X136041015Y-85542481D01*
X135922481Y-85661015D01*
X135783100Y-85754147D01*
X135628228Y-85818297D01*
X135463816Y-85851000D01*
X135296184Y-85851000D01*
X135131772Y-85818297D01*
X134976900Y-85754147D01*
X134837519Y-85661015D01*
X134718985Y-85542481D01*
X134625853Y-85403100D01*
X134561703Y-85248228D01*
X134529000Y-85083816D01*
X134529000Y-84916184D01*
X134561703Y-84751772D01*
X134625853Y-84596900D01*
X134718985Y-84457519D01*
X134837519Y-84338985D01*
X134976900Y-84245853D01*
X135131772Y-84181703D01*
X135296184Y-84149000D01*
X135463816Y-84149000D01*
X135628228Y-84181703D01*
G37*
G36*
X143248228Y-84181703D02*
G01*
X143403100Y-84245853D01*
X143542481Y-84338985D01*
X143661015Y-84457519D01*
X143754147Y-84596900D01*
X143818297Y-84751772D01*
X143851000Y-84916184D01*
X143851000Y-85083816D01*
X143818297Y-85248228D01*
X143754147Y-85403100D01*
X143661015Y-85542481D01*
X143542481Y-85661015D01*
X143403100Y-85754147D01*
X143248228Y-85818297D01*
X143083816Y-85851000D01*
X142916184Y-85851000D01*
X142751772Y-85818297D01*
X142596900Y-85754147D01*
X142457519Y-85661015D01*
X142338985Y-85542481D01*
X142245853Y-85403100D01*
X142181703Y-85248228D01*
X142149000Y-85083816D01*
X142149000Y-84916184D01*
X142181703Y-84751772D01*
X142245853Y-84596900D01*
X142338985Y-84457519D01*
X142457519Y-84338985D01*
X142596900Y-84245853D01*
X142751772Y-84181703D01*
X142916184Y-84149000D01*
X143083816Y-84149000D01*
X143248228Y-84181703D01*
G37*
G36*
X158748228Y-80681703D02*
G01*
X158903100Y-80745853D01*
X159042481Y-80838985D01*
X159161015Y-80957519D01*
X159254147Y-81096900D01*
X159318297Y-81251772D01*
X159351000Y-81416184D01*
X159351000Y-81583816D01*
X159318297Y-81748228D01*
X159254147Y-81903100D01*
X159161015Y-82042481D01*
X159042481Y-82161015D01*
X158903100Y-82254147D01*
X158748228Y-82318297D01*
X158583816Y-82351000D01*
X158416184Y-82351000D01*
X158251772Y-82318297D01*
X158096900Y-82254147D01*
X157957519Y-82161015D01*
X157838985Y-82042481D01*
X157745853Y-81903100D01*
X157681703Y-81748228D01*
X157649000Y-81583816D01*
X157649000Y-81416184D01*
X157681703Y-81251772D01*
X157745853Y-81096900D01*
X157838985Y-80957519D01*
X157957519Y-80838985D01*
X158096900Y-80745853D01*
X158251772Y-80681703D01*
X158416184Y-80649000D01*
X158583816Y-80649000D01*
X158748228Y-80681703D01*
G37*
G36*
X153801000Y-82301000D02*
G01*
X152199000Y-82301000D01*
X152199000Y-80699000D01*
X153801000Y-80699000D01*
X153801000Y-82301000D01*
G37*
G36*
X140086823Y-79446313D02*
G01*
X140247242Y-79494976D01*
X140379906Y-79565886D01*
X140395078Y-79573996D01*
X140524659Y-79680341D01*
X140631004Y-79809922D01*
X140631005Y-79809924D01*
X140710024Y-79957758D01*
X140758687Y-80118178D01*
X140771000Y-80243197D01*
X140771000Y-81126804D01*
X140758687Y-81251823D01*
X140710024Y-81412242D01*
X140707916Y-81416185D01*
X140631004Y-81560078D01*
X140524659Y-81689659D01*
X140395077Y-81796005D01*
X140247241Y-81875024D01*
X140086822Y-81923687D01*
X139920000Y-81940117D01*
X139753177Y-81923687D01*
X139592758Y-81875024D01*
X139444924Y-81796005D01*
X139444922Y-81796004D01*
X139315341Y-81689659D01*
X139208995Y-81560077D01*
X139129976Y-81412241D01*
X139081313Y-81251822D01*
X139069000Y-81126803D01*
X139069000Y-80243197D01*
X139081314Y-80118177D01*
X139129977Y-79957758D01*
X139208996Y-79809924D01*
X139208997Y-79809922D01*
X139315342Y-79680341D01*
X139444923Y-79573996D01*
X139460095Y-79565886D01*
X139592759Y-79494976D01*
X139753178Y-79446313D01*
X139920000Y-79429883D01*
X140086823Y-79446313D01*
G37*
G36*
X145166823Y-79446313D02*
G01*
X145327242Y-79494976D01*
X145459906Y-79565886D01*
X145475078Y-79573996D01*
X145604659Y-79680341D01*
X145711004Y-79809922D01*
X145711005Y-79809924D01*
X145790024Y-79957758D01*
X145838687Y-80118178D01*
X145851000Y-80243197D01*
X145851000Y-81126804D01*
X145838687Y-81251823D01*
X145790024Y-81412242D01*
X145787916Y-81416185D01*
X145711004Y-81560078D01*
X145604659Y-81689659D01*
X145475077Y-81796005D01*
X145327241Y-81875024D01*
X145166822Y-81923687D01*
X145000000Y-81940117D01*
X144833177Y-81923687D01*
X144672758Y-81875024D01*
X144524924Y-81796005D01*
X144524922Y-81796004D01*
X144395341Y-81689659D01*
X144288995Y-81560077D01*
X144209976Y-81412241D01*
X144161313Y-81251822D01*
X144149000Y-81126803D01*
X144149000Y-80243197D01*
X144161314Y-80118177D01*
X144209977Y-79957758D01*
X144288996Y-79809924D01*
X144288997Y-79809922D01*
X144395342Y-79680341D01*
X144524923Y-79573996D01*
X144540095Y-79565886D01*
X144672759Y-79494976D01*
X144833178Y-79446313D01*
X145000000Y-79429883D01*
X145166823Y-79446313D01*
G37*
G36*
X142626823Y-79446313D02*
G01*
X142787242Y-79494976D01*
X142919906Y-79565886D01*
X142935078Y-79573996D01*
X143064659Y-79680341D01*
X143171004Y-79809922D01*
X143171005Y-79809924D01*
X143250024Y-79957758D01*
X143298687Y-80118178D01*
X143311000Y-80243197D01*
X143311000Y-81126804D01*
X143298687Y-81251823D01*
X143250024Y-81412242D01*
X143247916Y-81416185D01*
X143171004Y-81560078D01*
X143064659Y-81689659D01*
X142935077Y-81796005D01*
X142787241Y-81875024D01*
X142626822Y-81923687D01*
X142460000Y-81940117D01*
X142293177Y-81923687D01*
X142132758Y-81875024D01*
X141984924Y-81796005D01*
X141984922Y-81796004D01*
X141855341Y-81689659D01*
X141748995Y-81560077D01*
X141669976Y-81412241D01*
X141621313Y-81251822D01*
X141609000Y-81126803D01*
X141609000Y-80243197D01*
X141621314Y-80118177D01*
X141669977Y-79957758D01*
X141748996Y-79809924D01*
X141748997Y-79809922D01*
X141855342Y-79680341D01*
X141984923Y-79573996D01*
X142000095Y-79565886D01*
X142132759Y-79494976D01*
X142293178Y-79446313D01*
X142460000Y-79429883D01*
X142626823Y-79446313D01*
G37*
G36*
X137546823Y-79446313D02*
G01*
X137707242Y-79494976D01*
X137839906Y-79565886D01*
X137855078Y-79573996D01*
X137984659Y-79680341D01*
X138091004Y-79809922D01*
X138091005Y-79809924D01*
X138170024Y-79957758D01*
X138218687Y-80118178D01*
X138231000Y-80243197D01*
X138231000Y-81126804D01*
X138218687Y-81251823D01*
X138170024Y-81412242D01*
X138167916Y-81416185D01*
X138091004Y-81560078D01*
X137984659Y-81689659D01*
X137855077Y-81796005D01*
X137707241Y-81875024D01*
X137546822Y-81923687D01*
X137380000Y-81940117D01*
X137213177Y-81923687D01*
X137052758Y-81875024D01*
X136904924Y-81796005D01*
X136904922Y-81796004D01*
X136775341Y-81689659D01*
X136668995Y-81560077D01*
X136589976Y-81412241D01*
X136541313Y-81251822D01*
X136529000Y-81126803D01*
X136529000Y-80243197D01*
X136541314Y-80118177D01*
X136589977Y-79957758D01*
X136668996Y-79809924D01*
X136668997Y-79809922D01*
X136775342Y-79680341D01*
X136904923Y-79573996D01*
X136920095Y-79565886D01*
X137052759Y-79494976D01*
X137213178Y-79446313D01*
X137380000Y-79429883D01*
X137546823Y-79446313D01*
G37*
G36*
X135006823Y-79446313D02*
G01*
X135167242Y-79494976D01*
X135299906Y-79565886D01*
X135315078Y-79573996D01*
X135444659Y-79680341D01*
X135551004Y-79809922D01*
X135551005Y-79809924D01*
X135630024Y-79957758D01*
X135678687Y-80118178D01*
X135691000Y-80243197D01*
X135691000Y-81126804D01*
X135678687Y-81251823D01*
X135630024Y-81412242D01*
X135627916Y-81416185D01*
X135551004Y-81560078D01*
X135444659Y-81689659D01*
X135315077Y-81796005D01*
X135167241Y-81875024D01*
X135006822Y-81923687D01*
X134840000Y-81940117D01*
X134673177Y-81923687D01*
X134512758Y-81875024D01*
X134364924Y-81796005D01*
X134364922Y-81796004D01*
X134235341Y-81689659D01*
X134128995Y-81560077D01*
X134049976Y-81412241D01*
X134001313Y-81251822D01*
X133989000Y-81126803D01*
X133989000Y-80243197D01*
X134001314Y-80118177D01*
X134049977Y-79957758D01*
X134128996Y-79809924D01*
X134128997Y-79809922D01*
X134235342Y-79680341D01*
X134364923Y-79573996D01*
X134380095Y-79565886D01*
X134512759Y-79494976D01*
X134673178Y-79446313D01*
X134840000Y-79429883D01*
X135006823Y-79446313D01*
G37*
G36*
X132466823Y-79446313D02*
G01*
X132627242Y-79494976D01*
X132759906Y-79565886D01*
X132775078Y-79573996D01*
X132904659Y-79680341D01*
X133011004Y-79809922D01*
X133011005Y-79809924D01*
X133090024Y-79957758D01*
X133138687Y-80118178D01*
X133151000Y-80243197D01*
X133151000Y-81126804D01*
X133138687Y-81251823D01*
X133090024Y-81412242D01*
X133087916Y-81416185D01*
X133011004Y-81560078D01*
X132904659Y-81689659D01*
X132775077Y-81796005D01*
X132627241Y-81875024D01*
X132466822Y-81923687D01*
X132300000Y-81940117D01*
X132133177Y-81923687D01*
X131972758Y-81875024D01*
X131824924Y-81796005D01*
X131824922Y-81796004D01*
X131695341Y-81689659D01*
X131588995Y-81560077D01*
X131509976Y-81412241D01*
X131461313Y-81251822D01*
X131449000Y-81126803D01*
X131449000Y-80243197D01*
X131461314Y-80118177D01*
X131509977Y-79957758D01*
X131588996Y-79809924D01*
X131588997Y-79809922D01*
X131695342Y-79680341D01*
X131824923Y-79573996D01*
X131840095Y-79565886D01*
X131972759Y-79494976D01*
X132133178Y-79446313D01*
X132300000Y-79429883D01*
X132466823Y-79446313D01*
G37*
G36*
X129926823Y-79446313D02*
G01*
X130087242Y-79494976D01*
X130219906Y-79565886D01*
X130235078Y-79573996D01*
X130364659Y-79680341D01*
X130471004Y-79809922D01*
X130471005Y-79809924D01*
X130550024Y-79957758D01*
X130598687Y-80118178D01*
X130611000Y-80243197D01*
X130611000Y-81126804D01*
X130598687Y-81251823D01*
X130550024Y-81412242D01*
X130547916Y-81416185D01*
X130471004Y-81560078D01*
X130364659Y-81689659D01*
X130235077Y-81796005D01*
X130087241Y-81875024D01*
X129926822Y-81923687D01*
X129760000Y-81940117D01*
X129593177Y-81923687D01*
X129432758Y-81875024D01*
X129284924Y-81796005D01*
X129284922Y-81796004D01*
X129155341Y-81689659D01*
X129048995Y-81560077D01*
X128969976Y-81412241D01*
X128921313Y-81251822D01*
X128909000Y-81126803D01*
X128909000Y-80243197D01*
X128921314Y-80118177D01*
X128969977Y-79957758D01*
X129048996Y-79809924D01*
X129048997Y-79809922D01*
X129155342Y-79680341D01*
X129284923Y-79573996D01*
X129300095Y-79565886D01*
X129432759Y-79494976D01*
X129593178Y-79446313D01*
X129760000Y-79429883D01*
X129926823Y-79446313D01*
G37*
G36*
X153233642Y-78189781D02*
G01*
X153379414Y-78250162D01*
X153379416Y-78250163D01*
X153510608Y-78337822D01*
X153622178Y-78449392D01*
X153709837Y-78580584D01*
X153709838Y-78580586D01*
X153770219Y-78726358D01*
X153801000Y-78881107D01*
X153801000Y-79038893D01*
X153770219Y-79193642D01*
X153709838Y-79339414D01*
X153709837Y-79339416D01*
X153622178Y-79470608D01*
X153510608Y-79582178D01*
X153379416Y-79669837D01*
X153379415Y-79669838D01*
X153379414Y-79669838D01*
X153233642Y-79730219D01*
X153078893Y-79761000D01*
X152921107Y-79761000D01*
X152766358Y-79730219D01*
X152620586Y-79669838D01*
X152620585Y-79669838D01*
X152620584Y-79669837D01*
X152489392Y-79582178D01*
X152377822Y-79470608D01*
X152290163Y-79339416D01*
X152290162Y-79339414D01*
X152229781Y-79193642D01*
X152199000Y-79038893D01*
X152199000Y-78881107D01*
X152229781Y-78726358D01*
X152290162Y-78580586D01*
X152290163Y-78580584D01*
X152377822Y-78449392D01*
X152489392Y-78337822D01*
X152620584Y-78250163D01*
X152620586Y-78250162D01*
X152766358Y-78189781D01*
X152921107Y-78159000D01*
X153078893Y-78159000D01*
X153233642Y-78189781D01*
G37*
G36*
X158748228Y-75681703D02*
G01*
X158903100Y-75745853D01*
X159042481Y-75838985D01*
X159161015Y-75957519D01*
X159254147Y-76096900D01*
X159318297Y-76251772D01*
X159351000Y-76416184D01*
X159351000Y-76583816D01*
X159318297Y-76748228D01*
X159254147Y-76903100D01*
X159161015Y-77042481D01*
X159042481Y-77161015D01*
X158903100Y-77254147D01*
X158748228Y-77318297D01*
X158583816Y-77351000D01*
X158416184Y-77351000D01*
X158251772Y-77318297D01*
X158096900Y-77254147D01*
X157957519Y-77161015D01*
X157838985Y-77042481D01*
X157745853Y-76903100D01*
X157681703Y-76748228D01*
X157649000Y-76583816D01*
X157649000Y-76416184D01*
X157681703Y-76251772D01*
X157745853Y-76096900D01*
X157838985Y-75957519D01*
X157957519Y-75838985D01*
X158096900Y-75745853D01*
X158251772Y-75681703D01*
X158416184Y-75649000D01*
X158583816Y-75649000D01*
X158748228Y-75681703D01*
G37*
G36*
X153233642Y-75649781D02*
G01*
X153379414Y-75710162D01*
X153379416Y-75710163D01*
X153510608Y-75797822D01*
X153622178Y-75909392D01*
X153709837Y-76040584D01*
X153709838Y-76040586D01*
X153770219Y-76186358D01*
X153801000Y-76341107D01*
X153801000Y-76498893D01*
X153770219Y-76653642D01*
X153728588Y-76754147D01*
X153709837Y-76799416D01*
X153622178Y-76930608D01*
X153510608Y-77042178D01*
X153379416Y-77129837D01*
X153379415Y-77129838D01*
X153379414Y-77129838D01*
X153233642Y-77190219D01*
X153078893Y-77221000D01*
X152921107Y-77221000D01*
X152766358Y-77190219D01*
X152620586Y-77129838D01*
X152620585Y-77129838D01*
X152620584Y-77129837D01*
X152489392Y-77042178D01*
X152377822Y-76930608D01*
X152290163Y-76799416D01*
X152271412Y-76754147D01*
X152229781Y-76653642D01*
X152199000Y-76498893D01*
X152199000Y-76341107D01*
X152229781Y-76186358D01*
X152290162Y-76040586D01*
X152290163Y-76040584D01*
X152377822Y-75909392D01*
X152489392Y-75797822D01*
X152620584Y-75710163D01*
X152620586Y-75710162D01*
X152766358Y-75649781D01*
X152921107Y-75619000D01*
X153078893Y-75619000D01*
X153233642Y-75649781D01*
G37*
G36*
X162248228Y-75181703D02*
G01*
X162403100Y-75245853D01*
X162542481Y-75338985D01*
X162661015Y-75457519D01*
X162754147Y-75596900D01*
X162818297Y-75751772D01*
X162851000Y-75916184D01*
X162851000Y-76083816D01*
X162818297Y-76248228D01*
X162754147Y-76403100D01*
X162661015Y-76542481D01*
X162542481Y-76661015D01*
X162403100Y-76754147D01*
X162248228Y-76818297D01*
X162083816Y-76851000D01*
X161916184Y-76851000D01*
X161751772Y-76818297D01*
X161596900Y-76754147D01*
X161457519Y-76661015D01*
X161338985Y-76542481D01*
X161245853Y-76403100D01*
X161181703Y-76248228D01*
X161149000Y-76083816D01*
X161149000Y-75916184D01*
X161181703Y-75751772D01*
X161245853Y-75596900D01*
X161338985Y-75457519D01*
X161457519Y-75338985D01*
X161596900Y-75245853D01*
X161751772Y-75181703D01*
X161916184Y-75149000D01*
X162083816Y-75149000D01*
X162248228Y-75181703D01*
G37*
G36*
X169868228Y-75181703D02*
G01*
X170023100Y-75245853D01*
X170162481Y-75338985D01*
X170281015Y-75457519D01*
X170374147Y-75596900D01*
X170438297Y-75751772D01*
X170471000Y-75916184D01*
X170471000Y-76083816D01*
X170438297Y-76248228D01*
X170374147Y-76403100D01*
X170281015Y-76542481D01*
X170162481Y-76661015D01*
X170023100Y-76754147D01*
X169868228Y-76818297D01*
X169703816Y-76851000D01*
X169536184Y-76851000D01*
X169371772Y-76818297D01*
X169216900Y-76754147D01*
X169077519Y-76661015D01*
X168958985Y-76542481D01*
X168865853Y-76403100D01*
X168801703Y-76248228D01*
X168769000Y-76083816D01*
X168769000Y-75916184D01*
X168801703Y-75751772D01*
X168865853Y-75596900D01*
X168958985Y-75457519D01*
X169077519Y-75338985D01*
X169216900Y-75245853D01*
X169371772Y-75181703D01*
X169536184Y-75149000D01*
X169703816Y-75149000D01*
X169868228Y-75181703D01*
G37*
G36*
X137546823Y-71826313D02*
G01*
X137707242Y-71874976D01*
X137839906Y-71945886D01*
X137855078Y-71953996D01*
X137984659Y-72060341D01*
X138091004Y-72189922D01*
X138091005Y-72189924D01*
X138170024Y-72337758D01*
X138218687Y-72498178D01*
X138231000Y-72623197D01*
X138231000Y-73506804D01*
X138218687Y-73631823D01*
X138170024Y-73792242D01*
X138156098Y-73818295D01*
X138091004Y-73940078D01*
X137984659Y-74069659D01*
X137855077Y-74176005D01*
X137707241Y-74255024D01*
X137546822Y-74303687D01*
X137380000Y-74320117D01*
X137213177Y-74303687D01*
X137052758Y-74255024D01*
X136904924Y-74176005D01*
X136904922Y-74176004D01*
X136775341Y-74069659D01*
X136668995Y-73940077D01*
X136589976Y-73792241D01*
X136541313Y-73631822D01*
X136529000Y-73506803D01*
X136529000Y-72623197D01*
X136541314Y-72498177D01*
X136589977Y-72337758D01*
X136668996Y-72189924D01*
X136668997Y-72189922D01*
X136775342Y-72060341D01*
X136904923Y-71953996D01*
X136920095Y-71945886D01*
X137052759Y-71874976D01*
X137213178Y-71826313D01*
X137380000Y-71809883D01*
X137546823Y-71826313D01*
G37*
G36*
X140086823Y-71826313D02*
G01*
X140247242Y-71874976D01*
X140379906Y-71945886D01*
X140395078Y-71953996D01*
X140524659Y-72060341D01*
X140631004Y-72189922D01*
X140631005Y-72189924D01*
X140710024Y-72337758D01*
X140758687Y-72498178D01*
X140771000Y-72623197D01*
X140771000Y-73506804D01*
X140758687Y-73631823D01*
X140710024Y-73792242D01*
X140696098Y-73818295D01*
X140631004Y-73940078D01*
X140524659Y-74069659D01*
X140395077Y-74176005D01*
X140247241Y-74255024D01*
X140086822Y-74303687D01*
X139920000Y-74320117D01*
X139753177Y-74303687D01*
X139592758Y-74255024D01*
X139444924Y-74176005D01*
X139444922Y-74176004D01*
X139315341Y-74069659D01*
X139208995Y-73940077D01*
X139129976Y-73792241D01*
X139081313Y-73631822D01*
X139069000Y-73506803D01*
X139069000Y-72623197D01*
X139081314Y-72498177D01*
X139129977Y-72337758D01*
X139208996Y-72189924D01*
X139208997Y-72189922D01*
X139315342Y-72060341D01*
X139444923Y-71953996D01*
X139460095Y-71945886D01*
X139592759Y-71874976D01*
X139753178Y-71826313D01*
X139920000Y-71809883D01*
X140086823Y-71826313D01*
G37*
G36*
X142626823Y-71826313D02*
G01*
X142787242Y-71874976D01*
X142919906Y-71945886D01*
X142935078Y-71953996D01*
X143064659Y-72060341D01*
X143171004Y-72189922D01*
X143171005Y-72189924D01*
X143250024Y-72337758D01*
X143298687Y-72498178D01*
X143311000Y-72623197D01*
X143311000Y-73506804D01*
X143298687Y-73631823D01*
X143250024Y-73792242D01*
X143236098Y-73818295D01*
X143171004Y-73940078D01*
X143064659Y-74069659D01*
X142935077Y-74176005D01*
X142787241Y-74255024D01*
X142626822Y-74303687D01*
X142460000Y-74320117D01*
X142293177Y-74303687D01*
X142132758Y-74255024D01*
X141984924Y-74176005D01*
X141984922Y-74176004D01*
X141855341Y-74069659D01*
X141748995Y-73940077D01*
X141669976Y-73792241D01*
X141621313Y-73631822D01*
X141609000Y-73506803D01*
X141609000Y-72623197D01*
X141621314Y-72498177D01*
X141669977Y-72337758D01*
X141748996Y-72189924D01*
X141748997Y-72189922D01*
X141855342Y-72060341D01*
X141984923Y-71953996D01*
X142000095Y-71945886D01*
X142132759Y-71874976D01*
X142293178Y-71826313D01*
X142460000Y-71809883D01*
X142626823Y-71826313D01*
G37*
G36*
X135006823Y-71826313D02*
G01*
X135167242Y-71874976D01*
X135299906Y-71945886D01*
X135315078Y-71953996D01*
X135444659Y-72060341D01*
X135551004Y-72189922D01*
X135551005Y-72189924D01*
X135630024Y-72337758D01*
X135678687Y-72498178D01*
X135691000Y-72623197D01*
X135691000Y-73506804D01*
X135678687Y-73631823D01*
X135630024Y-73792242D01*
X135616098Y-73818295D01*
X135551004Y-73940078D01*
X135444659Y-74069659D01*
X135315077Y-74176005D01*
X135167241Y-74255024D01*
X135006822Y-74303687D01*
X134840000Y-74320117D01*
X134673177Y-74303687D01*
X134512758Y-74255024D01*
X134364924Y-74176005D01*
X134364922Y-74176004D01*
X134235341Y-74069659D01*
X134128995Y-73940077D01*
X134049976Y-73792241D01*
X134001313Y-73631822D01*
X133989000Y-73506803D01*
X133989000Y-72623197D01*
X134001314Y-72498177D01*
X134049977Y-72337758D01*
X134128996Y-72189924D01*
X134128997Y-72189922D01*
X134235342Y-72060341D01*
X134364923Y-71953996D01*
X134380095Y-71945886D01*
X134512759Y-71874976D01*
X134673178Y-71826313D01*
X134840000Y-71809883D01*
X135006823Y-71826313D01*
G37*
G36*
X132466823Y-71826313D02*
G01*
X132627242Y-71874976D01*
X132759906Y-71945886D01*
X132775078Y-71953996D01*
X132904659Y-72060341D01*
X133011004Y-72189922D01*
X133011005Y-72189924D01*
X133090024Y-72337758D01*
X133138687Y-72498178D01*
X133151000Y-72623197D01*
X133151000Y-73506804D01*
X133138687Y-73631823D01*
X133090024Y-73792242D01*
X133076098Y-73818295D01*
X133011004Y-73940078D01*
X132904659Y-74069659D01*
X132775077Y-74176005D01*
X132627241Y-74255024D01*
X132466822Y-74303687D01*
X132300000Y-74320117D01*
X132133177Y-74303687D01*
X131972758Y-74255024D01*
X131824924Y-74176005D01*
X131824922Y-74176004D01*
X131695341Y-74069659D01*
X131588995Y-73940077D01*
X131509976Y-73792241D01*
X131461313Y-73631822D01*
X131449000Y-73506803D01*
X131449000Y-72623197D01*
X131461314Y-72498177D01*
X131509977Y-72337758D01*
X131588996Y-72189924D01*
X131588997Y-72189922D01*
X131695342Y-72060341D01*
X131824923Y-71953996D01*
X131840095Y-71945886D01*
X131972759Y-71874976D01*
X132133178Y-71826313D01*
X132300000Y-71809883D01*
X132466823Y-71826313D01*
G37*
G36*
X129926823Y-71826313D02*
G01*
X130087242Y-71874976D01*
X130219906Y-71945886D01*
X130235078Y-71953996D01*
X130364659Y-72060341D01*
X130471004Y-72189922D01*
X130471005Y-72189924D01*
X130550024Y-72337758D01*
X130598687Y-72498178D01*
X130611000Y-72623197D01*
X130611000Y-73506804D01*
X130598687Y-73631823D01*
X130550024Y-73792242D01*
X130536098Y-73818295D01*
X130471004Y-73940078D01*
X130364659Y-74069659D01*
X130235077Y-74176005D01*
X130087241Y-74255024D01*
X129926822Y-74303687D01*
X129760000Y-74320117D01*
X129593177Y-74303687D01*
X129432758Y-74255024D01*
X129284924Y-74176005D01*
X129284922Y-74176004D01*
X129155341Y-74069659D01*
X129048995Y-73940077D01*
X128969976Y-73792241D01*
X128921313Y-73631822D01*
X128909000Y-73506803D01*
X128909000Y-72623197D01*
X128921314Y-72498177D01*
X128969977Y-72337758D01*
X129048996Y-72189924D01*
X129048997Y-72189922D01*
X129155342Y-72060341D01*
X129284923Y-71953996D01*
X129300095Y-71945886D01*
X129432759Y-71874976D01*
X129593178Y-71826313D01*
X129760000Y-71809883D01*
X129926823Y-71826313D01*
G37*
G36*
X145851000Y-74316000D02*
G01*
X144149000Y-74316000D01*
X144149000Y-71814000D01*
X145851000Y-71814000D01*
X145851000Y-74316000D01*
G37*
G36*
X158868228Y-72181703D02*
G01*
X159023100Y-72245853D01*
X159162481Y-72338985D01*
X159281015Y-72457519D01*
X159374147Y-72596900D01*
X159438297Y-72751772D01*
X159471000Y-72916184D01*
X159471000Y-73083816D01*
X159438297Y-73248228D01*
X159374147Y-73403100D01*
X159281015Y-73542481D01*
X159162481Y-73661015D01*
X159023100Y-73754147D01*
X158868228Y-73818297D01*
X158703816Y-73851000D01*
X158536184Y-73851000D01*
X158371772Y-73818297D01*
X158216900Y-73754147D01*
X158077519Y-73661015D01*
X157958985Y-73542481D01*
X157865853Y-73403100D01*
X157801703Y-73248228D01*
X157769000Y-73083816D01*
X157769000Y-72916184D01*
X157801703Y-72751772D01*
X157865853Y-72596900D01*
X157958985Y-72457519D01*
X158077519Y-72338985D01*
X158216900Y-72245853D01*
X158371772Y-72181703D01*
X158536184Y-72149000D01*
X158703816Y-72149000D01*
X158868228Y-72181703D01*
G37*
G36*
X151248228Y-72181703D02*
G01*
X151403100Y-72245853D01*
X151542481Y-72338985D01*
X151661015Y-72457519D01*
X151754147Y-72596900D01*
X151818297Y-72751772D01*
X151851000Y-72916184D01*
X151851000Y-73083816D01*
X151818297Y-73248228D01*
X151754147Y-73403100D01*
X151661015Y-73542481D01*
X151542481Y-73661015D01*
X151403100Y-73754147D01*
X151248228Y-73818297D01*
X151083816Y-73851000D01*
X150916184Y-73851000D01*
X150751772Y-73818297D01*
X150596900Y-73754147D01*
X150457519Y-73661015D01*
X150338985Y-73542481D01*
X150245853Y-73403100D01*
X150181703Y-73248228D01*
X150149000Y-73083816D01*
X150149000Y-72916184D01*
X150181703Y-72751772D01*
X150245853Y-72596900D01*
X150338985Y-72457519D01*
X150457519Y-72338985D01*
X150596900Y-72245853D01*
X150751772Y-72181703D01*
X150916184Y-72149000D01*
X151083816Y-72149000D01*
X151248228Y-72181703D01*
G37*
G36*
X168009561Y-71082966D02*
G01*
X168042383Y-71092923D01*
X168072632Y-71109092D01*
X168099148Y-71130852D01*
X168120908Y-71157368D01*
X168137077Y-71187617D01*
X168147034Y-71220439D01*
X168151000Y-71260713D01*
X168151000Y-72739287D01*
X168147034Y-72779561D01*
X168137077Y-72812383D01*
X168120908Y-72842632D01*
X168099148Y-72869148D01*
X168072632Y-72890908D01*
X168042383Y-72907077D01*
X168009561Y-72917034D01*
X167969287Y-72921000D01*
X166030713Y-72921000D01*
X165990439Y-72917034D01*
X165957617Y-72907077D01*
X165927368Y-72890908D01*
X165900852Y-72869148D01*
X165879092Y-72842632D01*
X165862923Y-72812383D01*
X165852966Y-72779561D01*
X165849000Y-72739287D01*
X165849000Y-71260713D01*
X165852966Y-71220439D01*
X165862923Y-71187617D01*
X165879092Y-71157368D01*
X165900852Y-71130852D01*
X165927368Y-71109092D01*
X165957617Y-71092923D01*
X165990439Y-71082966D01*
X166030713Y-71079000D01*
X167969287Y-71079000D01*
X168009561Y-71082966D01*
G37*
G36*
X167320345Y-68543442D02*
G01*
X167410548Y-68552326D01*
X167584157Y-68604990D01*
X167744156Y-68690511D01*
X167787729Y-68726271D01*
X167884397Y-68805603D01*
X167963729Y-68902271D01*
X167999489Y-68945844D01*
X168085010Y-69105843D01*
X168137674Y-69279452D01*
X168155456Y-69460000D01*
X168137674Y-69640548D01*
X168085010Y-69814157D01*
X167999489Y-69974156D01*
X167963729Y-70017729D01*
X167884397Y-70114397D01*
X167787729Y-70193729D01*
X167744156Y-70229489D01*
X167584157Y-70315010D01*
X167410548Y-70367674D01*
X167320345Y-70376558D01*
X167275245Y-70381000D01*
X166724755Y-70381000D01*
X166679655Y-70376558D01*
X166589452Y-70367674D01*
X166415843Y-70315010D01*
X166255844Y-70229489D01*
X166212271Y-70193729D01*
X166115603Y-70114397D01*
X166036271Y-70017729D01*
X166000511Y-69974156D01*
X165914990Y-69814157D01*
X165862326Y-69640548D01*
X165844544Y-69460000D01*
X165862326Y-69279452D01*
X165914990Y-69105843D01*
X166000511Y-68945844D01*
X166036271Y-68902271D01*
X166115603Y-68805603D01*
X166212271Y-68726271D01*
X166255844Y-68690511D01*
X166415843Y-68604990D01*
X166589452Y-68552326D01*
X166679655Y-68543442D01*
X166724755Y-68539000D01*
X167275245Y-68539000D01*
X167320345Y-68543442D01*
G37*
G36*
X158868228Y-68181703D02*
G01*
X159023100Y-68245853D01*
X159162481Y-68338985D01*
X159281015Y-68457519D01*
X159374147Y-68596900D01*
X159438297Y-68751772D01*
X159471000Y-68916184D01*
X159471000Y-69083816D01*
X159438297Y-69248228D01*
X159374147Y-69403100D01*
X159281015Y-69542481D01*
X159162481Y-69661015D01*
X159023100Y-69754147D01*
X158868228Y-69818297D01*
X158703816Y-69851000D01*
X158536184Y-69851000D01*
X158371772Y-69818297D01*
X158216900Y-69754147D01*
X158077519Y-69661015D01*
X157958985Y-69542481D01*
X157865853Y-69403100D01*
X157801703Y-69248228D01*
X157769000Y-69083816D01*
X157769000Y-68916184D01*
X157801703Y-68751772D01*
X157865853Y-68596900D01*
X157958985Y-68457519D01*
X158077519Y-68338985D01*
X158216900Y-68245853D01*
X158371772Y-68181703D01*
X158536184Y-68149000D01*
X158703816Y-68149000D01*
X158868228Y-68181703D01*
G37*
G36*
X151248228Y-68181703D02*
G01*
X151403100Y-68245853D01*
X151542481Y-68338985D01*
X151661015Y-68457519D01*
X151754147Y-68596900D01*
X151818297Y-68751772D01*
X151851000Y-68916184D01*
X151851000Y-69083816D01*
X151818297Y-69248228D01*
X151754147Y-69403100D01*
X151661015Y-69542481D01*
X151542481Y-69661015D01*
X151403100Y-69754147D01*
X151248228Y-69818297D01*
X151083816Y-69851000D01*
X150916184Y-69851000D01*
X150751772Y-69818297D01*
X150596900Y-69754147D01*
X150457519Y-69661015D01*
X150338985Y-69542481D01*
X150245853Y-69403100D01*
X150181703Y-69248228D01*
X150149000Y-69083816D01*
X150149000Y-68916184D01*
X150181703Y-68751772D01*
X150245853Y-68596900D01*
X150338985Y-68457519D01*
X150457519Y-68338985D01*
X150596900Y-68245853D01*
X150751772Y-68181703D01*
X150916184Y-68149000D01*
X151083816Y-68149000D01*
X151248228Y-68181703D01*
G37*
G36*
X132320345Y-67163442D02*
G01*
X132410548Y-67172326D01*
X132584157Y-67224990D01*
X132744156Y-67310511D01*
X132787729Y-67346271D01*
X132884397Y-67425603D01*
X132963729Y-67522271D01*
X132999489Y-67565844D01*
X133085010Y-67725843D01*
X133137674Y-67899452D01*
X133155456Y-68080000D01*
X133137674Y-68260548D01*
X133085010Y-68434157D01*
X132999489Y-68594156D01*
X132963729Y-68637729D01*
X132884397Y-68734397D01*
X132797631Y-68805603D01*
X132744156Y-68849489D01*
X132584157Y-68935010D01*
X132410548Y-68987674D01*
X132320345Y-68996558D01*
X132275245Y-69001000D01*
X131724755Y-69001000D01*
X131679655Y-68996558D01*
X131589452Y-68987674D01*
X131415843Y-68935010D01*
X131255844Y-68849489D01*
X131202369Y-68805603D01*
X131115603Y-68734397D01*
X131036271Y-68637729D01*
X131000511Y-68594156D01*
X130914990Y-68434157D01*
X130862326Y-68260548D01*
X130844544Y-68080000D01*
X130862326Y-67899452D01*
X130914990Y-67725843D01*
X131000511Y-67565844D01*
X131036271Y-67522271D01*
X131115603Y-67425603D01*
X131212271Y-67346271D01*
X131255844Y-67310511D01*
X131415843Y-67224990D01*
X131589452Y-67172326D01*
X131679655Y-67163442D01*
X131724755Y-67159000D01*
X132275245Y-67159000D01*
X132320345Y-67163442D01*
G37*
G36*
X132320345Y-64623442D02*
G01*
X132410548Y-64632326D01*
X132584157Y-64684990D01*
X132744156Y-64770511D01*
X132787729Y-64806271D01*
X132884397Y-64885603D01*
X132963729Y-64982271D01*
X132999489Y-65025844D01*
X133085010Y-65185843D01*
X133137674Y-65359452D01*
X133155456Y-65540000D01*
X133137674Y-65720548D01*
X133085010Y-65894157D01*
X132999489Y-66054156D01*
X132963729Y-66097729D01*
X132884397Y-66194397D01*
X132787729Y-66273729D01*
X132744156Y-66309489D01*
X132584157Y-66395010D01*
X132410548Y-66447674D01*
X132320345Y-66456558D01*
X132275245Y-66461000D01*
X131724755Y-66461000D01*
X131679655Y-66456558D01*
X131589452Y-66447674D01*
X131415843Y-66395010D01*
X131255844Y-66309489D01*
X131212271Y-66273729D01*
X131115603Y-66194397D01*
X131036271Y-66097729D01*
X131000511Y-66054156D01*
X130914990Y-65894157D01*
X130862326Y-65720548D01*
X130844544Y-65540000D01*
X130862326Y-65359452D01*
X130914990Y-65185843D01*
X131000511Y-65025844D01*
X131036271Y-64982271D01*
X131115603Y-64885603D01*
X131212271Y-64806271D01*
X131255844Y-64770511D01*
X131415843Y-64684990D01*
X131589452Y-64632326D01*
X131679655Y-64623442D01*
X131724755Y-64619000D01*
X132275245Y-64619000D01*
X132320345Y-64623442D01*
G37*
G36*
X159214655Y-63869148D02*
G01*
X159335734Y-63893232D01*
X159545203Y-63979997D01*
X159733720Y-64105960D01*
X159894040Y-64266280D01*
X160020003Y-64454797D01*
X160020004Y-64454799D01*
X160106768Y-64664267D01*
X160151000Y-64886635D01*
X160151000Y-65113365D01*
X160136583Y-65185843D01*
X160106768Y-65335734D01*
X160078865Y-65403097D01*
X160021131Y-65542481D01*
X160020003Y-65545203D01*
X159894040Y-65733720D01*
X159733720Y-65894040D01*
X159545203Y-66020003D01*
X159335734Y-66106768D01*
X159224549Y-66128884D01*
X159113365Y-66151000D01*
X158886635Y-66151000D01*
X158775451Y-66128884D01*
X158664266Y-66106768D01*
X158454797Y-66020003D01*
X158266280Y-65894040D01*
X158105960Y-65733720D01*
X157979997Y-65545203D01*
X157978870Y-65542481D01*
X157921135Y-65403097D01*
X157893232Y-65335734D01*
X157863417Y-65185843D01*
X157849000Y-65113365D01*
X157849000Y-64886635D01*
X157893232Y-64664267D01*
X157979996Y-64454799D01*
X157979997Y-64454797D01*
X158105960Y-64266280D01*
X158266280Y-64105960D01*
X158454797Y-63979997D01*
X158664266Y-63893232D01*
X158785345Y-63869148D01*
X158886635Y-63849000D01*
X159113365Y-63849000D01*
X159214655Y-63869148D01*
G37*
G36*
X152531000Y-66151000D02*
G01*
X150229000Y-66151000D01*
X150229000Y-63849000D01*
X152531000Y-63849000D01*
X152531000Y-66151000D01*
G37*
G36*
X141851000Y-65851000D02*
G01*
X140149000Y-65851000D01*
X140149000Y-64149000D01*
X141851000Y-64149000D01*
X141851000Y-65851000D01*
G37*
G36*
X143748228Y-64181703D02*
G01*
X143903100Y-64245853D01*
X144042481Y-64338985D01*
X144161015Y-64457519D01*
X144254147Y-64596900D01*
X144318297Y-64751772D01*
X144351000Y-64916184D01*
X144351000Y-65083816D01*
X144318297Y-65248228D01*
X144254147Y-65403100D01*
X144161015Y-65542481D01*
X144042481Y-65661015D01*
X143903100Y-65754147D01*
X143748228Y-65818297D01*
X143583816Y-65851000D01*
X143416184Y-65851000D01*
X143251772Y-65818297D01*
X143096900Y-65754147D01*
X142957519Y-65661015D01*
X142838985Y-65542481D01*
X142745853Y-65403100D01*
X142681703Y-65248228D01*
X142649000Y-65083816D01*
X142649000Y-64916184D01*
X142681703Y-64751772D01*
X142745853Y-64596900D01*
X142838985Y-64457519D01*
X142957519Y-64338985D01*
X143096900Y-64245853D01*
X143251772Y-64181703D01*
X143416184Y-64149000D01*
X143583816Y-64149000D01*
X143748228Y-64181703D01*
G37*
G36*
X169868228Y-64181703D02*
G01*
X170023100Y-64245853D01*
X170162481Y-64338985D01*
X170281015Y-64457519D01*
X170374147Y-64596900D01*
X170438297Y-64751772D01*
X170471000Y-64916184D01*
X170471000Y-65083816D01*
X170438297Y-65248228D01*
X170374147Y-65403100D01*
X170281015Y-65542481D01*
X170162481Y-65661015D01*
X170023100Y-65754147D01*
X169868228Y-65818297D01*
X169703816Y-65851000D01*
X169536184Y-65851000D01*
X169371772Y-65818297D01*
X169216900Y-65754147D01*
X169077519Y-65661015D01*
X168958985Y-65542481D01*
X168865853Y-65403100D01*
X168801703Y-65248228D01*
X168769000Y-65083816D01*
X168769000Y-64916184D01*
X168801703Y-64751772D01*
X168865853Y-64596900D01*
X168958985Y-64457519D01*
X169077519Y-64338985D01*
X169216900Y-64245853D01*
X169371772Y-64181703D01*
X169536184Y-64149000D01*
X169703816Y-64149000D01*
X169868228Y-64181703D01*
G37*
G36*
X162248228Y-64181703D02*
G01*
X162403100Y-64245853D01*
X162542481Y-64338985D01*
X162661015Y-64457519D01*
X162754147Y-64596900D01*
X162818297Y-64751772D01*
X162851000Y-64916184D01*
X162851000Y-65083816D01*
X162818297Y-65248228D01*
X162754147Y-65403100D01*
X162661015Y-65542481D01*
X162542481Y-65661015D01*
X162403100Y-65754147D01*
X162248228Y-65818297D01*
X162083816Y-65851000D01*
X161916184Y-65851000D01*
X161751772Y-65818297D01*
X161596900Y-65754147D01*
X161457519Y-65661015D01*
X161338985Y-65542481D01*
X161245853Y-65403100D01*
X161181703Y-65248228D01*
X161149000Y-65083816D01*
X161149000Y-64916184D01*
X161181703Y-64751772D01*
X161245853Y-64596900D01*
X161338985Y-64457519D01*
X161457519Y-64338985D01*
X161596900Y-64245853D01*
X161751772Y-64181703D01*
X161916184Y-64149000D01*
X162083816Y-64149000D01*
X162248228Y-64181703D01*
G37*
G36*
X133009561Y-62082966D02*
G01*
X133042383Y-62092923D01*
X133072632Y-62109092D01*
X133099148Y-62130852D01*
X133120908Y-62157368D01*
X133137077Y-62187617D01*
X133147034Y-62220439D01*
X133151000Y-62260713D01*
X133151000Y-63739287D01*
X133147034Y-63779561D01*
X133137077Y-63812383D01*
X133120908Y-63842632D01*
X133099148Y-63869148D01*
X133072632Y-63890908D01*
X133042383Y-63907077D01*
X133009561Y-63917034D01*
X132969287Y-63921000D01*
X131030713Y-63921000D01*
X130990439Y-63917034D01*
X130957617Y-63907077D01*
X130927368Y-63890908D01*
X130900852Y-63869148D01*
X130879092Y-63842632D01*
X130862923Y-63812383D01*
X130852966Y-63779561D01*
X130849000Y-63739287D01*
X130849000Y-62260713D01*
X130852966Y-62220439D01*
X130862923Y-62187617D01*
X130879092Y-62157368D01*
X130900852Y-62130852D01*
X130927368Y-62109092D01*
X130957617Y-62092923D01*
X130990439Y-62082966D01*
X131030713Y-62079000D01*
X132969287Y-62079000D01*
X133009561Y-62082966D01*
G37*
G36*
X159224549Y-59871116D02*
G01*
X159335734Y-59893232D01*
X159545203Y-59979997D01*
X159733720Y-60105960D01*
X159894040Y-60266280D01*
X160020003Y-60454797D01*
X160106768Y-60664266D01*
X160125338Y-60757625D01*
X160147522Y-60869148D01*
X160151000Y-60886636D01*
X160151000Y-61113364D01*
X160106768Y-61335734D01*
X160020003Y-61545203D01*
X159894040Y-61733720D01*
X159733720Y-61894040D01*
X159545203Y-62020003D01*
X159335734Y-62106768D01*
X159324050Y-62109092D01*
X159113365Y-62151000D01*
X158886635Y-62151000D01*
X158675950Y-62109092D01*
X158664266Y-62106768D01*
X158454797Y-62020003D01*
X158266280Y-61894040D01*
X158105960Y-61733720D01*
X157979997Y-61545203D01*
X157893232Y-61335734D01*
X157849000Y-61113364D01*
X157849000Y-60886636D01*
X157852479Y-60869148D01*
X157874662Y-60757625D01*
X157893232Y-60664266D01*
X157979997Y-60454797D01*
X158105960Y-60266280D01*
X158266280Y-60105960D01*
X158454797Y-59979997D01*
X158664266Y-59893232D01*
X158775451Y-59871116D01*
X158886635Y-59849000D01*
X159113365Y-59849000D01*
X159224549Y-59871116D01*
G37*
G36*
X152531000Y-62151000D02*
G01*
X150229000Y-62151000D01*
X150229000Y-59849000D01*
X152531000Y-59849000D01*
X152531000Y-62151000D01*
G37*
G36*
X168009561Y-59082966D02*
G01*
X168042383Y-59092923D01*
X168072632Y-59109092D01*
X168099148Y-59130852D01*
X168120908Y-59157368D01*
X168137077Y-59187617D01*
X168147034Y-59220439D01*
X168151000Y-59260713D01*
X168151000Y-60739287D01*
X168147034Y-60779561D01*
X168137077Y-60812383D01*
X168120908Y-60842632D01*
X168099148Y-60869148D01*
X168072632Y-60890908D01*
X168042383Y-60907077D01*
X168009561Y-60917034D01*
X167969287Y-60921000D01*
X166030713Y-60921000D01*
X165990439Y-60917034D01*
X165957617Y-60907077D01*
X165927368Y-60890908D01*
X165900852Y-60869148D01*
X165879092Y-60842632D01*
X165862923Y-60812383D01*
X165852966Y-60779561D01*
X165849000Y-60739287D01*
X165849000Y-59260713D01*
X165852966Y-59220439D01*
X165862923Y-59187617D01*
X165879092Y-59157368D01*
X165900852Y-59130852D01*
X165927368Y-59109092D01*
X165957617Y-59092923D01*
X165990439Y-59082966D01*
X166030713Y-59079000D01*
X167969287Y-59079000D01*
X168009561Y-59082966D01*
G37*
G36*
X167320345Y-56543442D02*
G01*
X167410548Y-56552326D01*
X167584157Y-56604990D01*
X167744156Y-56690511D01*
X167787729Y-56726271D01*
X167884397Y-56805603D01*
X167963729Y-56902271D01*
X167999489Y-56945844D01*
X168085010Y-57105843D01*
X168137674Y-57279452D01*
X168155456Y-57460000D01*
X168137674Y-57640548D01*
X168085010Y-57814157D01*
X167999489Y-57974156D01*
X167963729Y-58017729D01*
X167884397Y-58114397D01*
X167787729Y-58193729D01*
X167744156Y-58229489D01*
X167584157Y-58315010D01*
X167410548Y-58367674D01*
X167320345Y-58376558D01*
X167275245Y-58381000D01*
X166724755Y-58381000D01*
X166679655Y-58376558D01*
X166589452Y-58367674D01*
X166415843Y-58315010D01*
X166255844Y-58229489D01*
X166212271Y-58193729D01*
X166115603Y-58114397D01*
X166036271Y-58017729D01*
X166000511Y-57974156D01*
X165914990Y-57814157D01*
X165862326Y-57640548D01*
X165844544Y-57460000D01*
X165862326Y-57279452D01*
X165914990Y-57105843D01*
X166000511Y-56945844D01*
X166036271Y-56902271D01*
X166115603Y-56805603D01*
X166212271Y-56726271D01*
X166255844Y-56690511D01*
X166415843Y-56604990D01*
X166589452Y-56552326D01*
X166679655Y-56543442D01*
X166724755Y-56539000D01*
X167275245Y-56539000D01*
X167320345Y-56543442D01*
G37*
G36*
X159248228Y-56181703D02*
G01*
X159403100Y-56245853D01*
X159542481Y-56338985D01*
X159661015Y-56457519D01*
X159754147Y-56596900D01*
X159818297Y-56751772D01*
X159851000Y-56916184D01*
X159851000Y-57083816D01*
X159818297Y-57248228D01*
X159754147Y-57403100D01*
X159661015Y-57542481D01*
X159542481Y-57661015D01*
X159403100Y-57754147D01*
X159248228Y-57818297D01*
X159083816Y-57851000D01*
X158916184Y-57851000D01*
X158751772Y-57818297D01*
X158596900Y-57754147D01*
X158457519Y-57661015D01*
X158338985Y-57542481D01*
X158245853Y-57403100D01*
X158181703Y-57248228D01*
X158149000Y-57083816D01*
X158149000Y-56916184D01*
X158181703Y-56751772D01*
X158245853Y-56596900D01*
X158338985Y-56457519D01*
X158457519Y-56338985D01*
X158596900Y-56245853D01*
X158751772Y-56181703D01*
X158916184Y-56149000D01*
X159083816Y-56149000D01*
X159248228Y-56181703D01*
G37*
G36*
X151628228Y-56181703D02*
G01*
X151783100Y-56245853D01*
X151922481Y-56338985D01*
X152041015Y-56457519D01*
X152134147Y-56596900D01*
X152198297Y-56751772D01*
X152231000Y-56916184D01*
X152231000Y-57083816D01*
X152198297Y-57248228D01*
X152134147Y-57403100D01*
X152041015Y-57542481D01*
X151922481Y-57661015D01*
X151783100Y-57754147D01*
X151628228Y-57818297D01*
X151463816Y-57851000D01*
X151296184Y-57851000D01*
X151131772Y-57818297D01*
X150976900Y-57754147D01*
X150837519Y-57661015D01*
X150718985Y-57542481D01*
X150625853Y-57403100D01*
X150561703Y-57248228D01*
X150529000Y-57083816D01*
X150529000Y-56916184D01*
X150561703Y-56751772D01*
X150625853Y-56596900D01*
X150718985Y-56457519D01*
X150837519Y-56338985D01*
X150976900Y-56245853D01*
X151131772Y-56181703D01*
X151296184Y-56149000D01*
X151463816Y-56149000D01*
X151628228Y-56181703D01*
G37*
G36*
X130379393Y-53749304D02*
G01*
X130606765Y-53843485D01*
X130616103Y-53847353D01*
X130829135Y-53989696D01*
X131010304Y-54170865D01*
X131152647Y-54383897D01*
X131152648Y-54383899D01*
X131250696Y-54620607D01*
X131300680Y-54871893D01*
X131300680Y-55128107D01*
X131250696Y-55379393D01*
X131152648Y-55616101D01*
X131152647Y-55616103D01*
X131010304Y-55829135D01*
X130829135Y-56010304D01*
X130616103Y-56152647D01*
X130616102Y-56152648D01*
X130616101Y-56152648D01*
X130379393Y-56250696D01*
X130128107Y-56300680D01*
X129871893Y-56300680D01*
X129620607Y-56250696D01*
X129383899Y-56152648D01*
X129383898Y-56152648D01*
X129383897Y-56152647D01*
X129170865Y-56010304D01*
X128989696Y-55829135D01*
X128847353Y-55616103D01*
X128847352Y-55616101D01*
X128749304Y-55379393D01*
X128699320Y-55128107D01*
X128699320Y-54871893D01*
X128749304Y-54620607D01*
X128847352Y-54383899D01*
X128847353Y-54383897D01*
X128989696Y-54170865D01*
X129170865Y-53989696D01*
X129383897Y-53847353D01*
X129393235Y-53843485D01*
X129620607Y-53749304D01*
X129871893Y-53699320D01*
X130128107Y-53699320D01*
X130379393Y-53749304D01*
G37*
G36*
X147248228Y-54181703D02*
G01*
X147403100Y-54245853D01*
X147542481Y-54338985D01*
X147661015Y-54457519D01*
X147754147Y-54596900D01*
X147818297Y-54751772D01*
X147851000Y-54916184D01*
X147851000Y-55083816D01*
X147818297Y-55248228D01*
X147754147Y-55403100D01*
X147661015Y-55542481D01*
X147542481Y-55661015D01*
X147403100Y-55754147D01*
X147248228Y-55818297D01*
X147083816Y-55851000D01*
X146916184Y-55851000D01*
X146751772Y-55818297D01*
X146596900Y-55754147D01*
X146457519Y-55661015D01*
X146338985Y-55542481D01*
X146245853Y-55403100D01*
X146181703Y-55248228D01*
X146149000Y-55083816D01*
X146149000Y-54916184D01*
X146181703Y-54751772D01*
X146245853Y-54596900D01*
X146338985Y-54457519D01*
X146457519Y-54338985D01*
X146596900Y-54245853D01*
X146751772Y-54181703D01*
X146916184Y-54149000D01*
X147083816Y-54149000D01*
X147248228Y-54181703D01*
G37*
G36*
X140914600Y-53954600D02*
G01*
X139085400Y-53954600D01*
X139085400Y-52125400D01*
X140914600Y-52125400D01*
X140914600Y-53954600D01*
G37*
G36*
X137726778Y-52160547D02*
G01*
X137893224Y-52229491D01*
X138043022Y-52329583D01*
X138170417Y-52456978D01*
X138270509Y-52606776D01*
X138339453Y-52773222D01*
X138374600Y-52949918D01*
X138374600Y-53130082D01*
X138339453Y-53306778D01*
X138270509Y-53473224D01*
X138170417Y-53623022D01*
X138043022Y-53750417D01*
X137893224Y-53850509D01*
X137726778Y-53919453D01*
X137550082Y-53954600D01*
X137369918Y-53954600D01*
X137193222Y-53919453D01*
X137026776Y-53850509D01*
X136876978Y-53750417D01*
X136749583Y-53623022D01*
X136649491Y-53473224D01*
X136580547Y-53306778D01*
X136545400Y-53130082D01*
X136545400Y-52949918D01*
X136580547Y-52773222D01*
X136649491Y-52606776D01*
X136749583Y-52456978D01*
X136876978Y-52329583D01*
X137026776Y-52229491D01*
X137193222Y-52160547D01*
X137369918Y-52125400D01*
X137550082Y-52125400D01*
X137726778Y-52160547D01*
G37*
G36*
X168009561Y-52082966D02*
G01*
X168042383Y-52092923D01*
X168072632Y-52109092D01*
X168099148Y-52130852D01*
X168120908Y-52157368D01*
X168137077Y-52187617D01*
X168147034Y-52220439D01*
X168151000Y-52260713D01*
X168151000Y-53739287D01*
X168147034Y-53779561D01*
X168137077Y-53812383D01*
X168120908Y-53842632D01*
X168099148Y-53869148D01*
X168072632Y-53890908D01*
X168042383Y-53907077D01*
X168009561Y-53917034D01*
X167969287Y-53921000D01*
X166030713Y-53921000D01*
X165990439Y-53917034D01*
X165957617Y-53907077D01*
X165927368Y-53890908D01*
X165900852Y-53869148D01*
X165879092Y-53842632D01*
X165862923Y-53812383D01*
X165852966Y-53779561D01*
X165849000Y-53739287D01*
X165849000Y-52260713D01*
X165852966Y-52220439D01*
X165862923Y-52187617D01*
X165879092Y-52157368D01*
X165900852Y-52130852D01*
X165927368Y-52109092D01*
X165957617Y-52092923D01*
X165990439Y-52082966D01*
X166030713Y-52079000D01*
X167969287Y-52079000D01*
X168009561Y-52082966D01*
G37*
G36*
X151628228Y-52181703D02*
G01*
X151783100Y-52245853D01*
X151922481Y-52338985D01*
X152041015Y-52457519D01*
X152134147Y-52596900D01*
X152198297Y-52751772D01*
X152231000Y-52916184D01*
X152231000Y-53083816D01*
X152198297Y-53248228D01*
X152134147Y-53403100D01*
X152041015Y-53542481D01*
X151922481Y-53661015D01*
X151783100Y-53754147D01*
X151628228Y-53818297D01*
X151463816Y-53851000D01*
X151296184Y-53851000D01*
X151131772Y-53818297D01*
X150976900Y-53754147D01*
X150837519Y-53661015D01*
X150718985Y-53542481D01*
X150625853Y-53403100D01*
X150561703Y-53248228D01*
X150529000Y-53083816D01*
X150529000Y-52916184D01*
X150561703Y-52751772D01*
X150625853Y-52596900D01*
X150718985Y-52457519D01*
X150837519Y-52338985D01*
X150976900Y-52245853D01*
X151131772Y-52181703D01*
X151296184Y-52149000D01*
X151463816Y-52149000D01*
X151628228Y-52181703D01*
G37*
G36*
X159248228Y-52181703D02*
G01*
X159403100Y-52245853D01*
X159542481Y-52338985D01*
X159661015Y-52457519D01*
X159754147Y-52596900D01*
X159818297Y-52751772D01*
X159851000Y-52916184D01*
X159851000Y-53083816D01*
X159818297Y-53248228D01*
X159754147Y-53403100D01*
X159661015Y-53542481D01*
X159542481Y-53661015D01*
X159403100Y-53754147D01*
X159248228Y-53818297D01*
X159083816Y-53851000D01*
X158916184Y-53851000D01*
X158751772Y-53818297D01*
X158596900Y-53754147D01*
X158457519Y-53661015D01*
X158338985Y-53542481D01*
X158245853Y-53403100D01*
X158181703Y-53248228D01*
X158149000Y-53083816D01*
X158149000Y-52916184D01*
X158181703Y-52751772D01*
X158245853Y-52596900D01*
X158338985Y-52457519D01*
X158457519Y-52338985D01*
X158596900Y-52245853D01*
X158751772Y-52181703D01*
X158916184Y-52149000D01*
X159083816Y-52149000D01*
X159248228Y-52181703D01*
G37*
G36*
X147851000Y-53851000D02*
G01*
X146149000Y-53851000D01*
X146149000Y-52149000D01*
X147851000Y-52149000D01*
X147851000Y-53851000D01*
G37*
G36*
X137726778Y-49620547D02*
G01*
X137893224Y-49689491D01*
X138043022Y-49789583D01*
X138170417Y-49916978D01*
X138270509Y-50066776D01*
X138339453Y-50233222D01*
X138374600Y-50409918D01*
X138374600Y-50590082D01*
X138339453Y-50766778D01*
X138270509Y-50933224D01*
X138170417Y-51083022D01*
X138043022Y-51210417D01*
X137893224Y-51310509D01*
X137726778Y-51379453D01*
X137550082Y-51414600D01*
X137369918Y-51414600D01*
X137193222Y-51379453D01*
X137026776Y-51310509D01*
X136876978Y-51210417D01*
X136749583Y-51083022D01*
X136649491Y-50933224D01*
X136580547Y-50766778D01*
X136545400Y-50590082D01*
X136545400Y-50409918D01*
X136580547Y-50233222D01*
X136649491Y-50066776D01*
X136749583Y-49916978D01*
X136876978Y-49789583D01*
X137026776Y-49689491D01*
X137193222Y-49620547D01*
X137369918Y-49585400D01*
X137550082Y-49585400D01*
X137726778Y-49620547D01*
G37*
G36*
X140266778Y-49620547D02*
G01*
X140433224Y-49689491D01*
X140583022Y-49789583D01*
X140710417Y-49916978D01*
X140810509Y-50066776D01*
X140879453Y-50233222D01*
X140914600Y-50409918D01*
X140914600Y-50590082D01*
X140879453Y-50766778D01*
X140810509Y-50933224D01*
X140710417Y-51083022D01*
X140583022Y-51210417D01*
X140433224Y-51310509D01*
X140266778Y-51379453D01*
X140090082Y-51414600D01*
X139909918Y-51414600D01*
X139733222Y-51379453D01*
X139566776Y-51310509D01*
X139416978Y-51210417D01*
X139289583Y-51083022D01*
X139189491Y-50933224D01*
X139120547Y-50766778D01*
X139085400Y-50590082D01*
X139085400Y-50409918D01*
X139120547Y-50233222D01*
X139189491Y-50066776D01*
X139289583Y-49916978D01*
X139416978Y-49789583D01*
X139566776Y-49689491D01*
X139733222Y-49620547D01*
X139909918Y-49585400D01*
X140090082Y-49585400D01*
X140266778Y-49620547D01*
G37*
G36*
X167320345Y-49543442D02*
G01*
X167410548Y-49552326D01*
X167584157Y-49604990D01*
X167744156Y-49690511D01*
X167787729Y-49726271D01*
X167884397Y-49805603D01*
X167956974Y-49894040D01*
X167999489Y-49945844D01*
X168085010Y-50105843D01*
X168137674Y-50279452D01*
X168155456Y-50460000D01*
X168137674Y-50640548D01*
X168085010Y-50814157D01*
X167999489Y-50974156D01*
X167963729Y-51017729D01*
X167884397Y-51114397D01*
X167787729Y-51193729D01*
X167744156Y-51229489D01*
X167584157Y-51315010D01*
X167410548Y-51367674D01*
X167320345Y-51376558D01*
X167275245Y-51381000D01*
X166724755Y-51381000D01*
X166679655Y-51376558D01*
X166589452Y-51367674D01*
X166415843Y-51315010D01*
X166255844Y-51229489D01*
X166212271Y-51193729D01*
X166115603Y-51114397D01*
X166036271Y-51017729D01*
X166000511Y-50974156D01*
X165914990Y-50814157D01*
X165862326Y-50640548D01*
X165844544Y-50460000D01*
X165862326Y-50279452D01*
X165914990Y-50105843D01*
X166000511Y-49945844D01*
X166043026Y-49894040D01*
X166115603Y-49805603D01*
X166212271Y-49726271D01*
X166255844Y-49690511D01*
X166415843Y-49604990D01*
X166589452Y-49552326D01*
X166679655Y-49543442D01*
X166724755Y-49539000D01*
X167275245Y-49539000D01*
X167320345Y-49543442D01*
G37*
G36*
X160151000Y-50151000D02*
G01*
X157849000Y-50151000D01*
X157849000Y-47849000D01*
X160151000Y-47849000D01*
X160151000Y-50151000D01*
G37*
G36*
X151598526Y-47869918D02*
G01*
X151715734Y-47893232D01*
X151925203Y-47979997D01*
X152113720Y-48105960D01*
X152274040Y-48266280D01*
X152400003Y-48454797D01*
X152486768Y-48664266D01*
X152507901Y-48770508D01*
X152531000Y-48886635D01*
X152531000Y-49113365D01*
X152486768Y-49335733D01*
X152402573Y-49539000D01*
X152400003Y-49545203D01*
X152274040Y-49733720D01*
X152113720Y-49894040D01*
X151925203Y-50020003D01*
X151715734Y-50106768D01*
X151604549Y-50128884D01*
X151493365Y-50151000D01*
X151266635Y-50151000D01*
X151155451Y-50128884D01*
X151044266Y-50106768D01*
X150834797Y-50020003D01*
X150646280Y-49894040D01*
X150485960Y-49733720D01*
X150359997Y-49545203D01*
X150357428Y-49539000D01*
X150273232Y-49335733D01*
X150229000Y-49113365D01*
X150229000Y-48886635D01*
X150252099Y-48770508D01*
X150273232Y-48664266D01*
X150359997Y-48454797D01*
X150485960Y-48266280D01*
X150646280Y-48105960D01*
X150834797Y-47979997D01*
X151044266Y-47893232D01*
X151161474Y-47869918D01*
X151266635Y-47849000D01*
X151493365Y-47849000D01*
X151598526Y-47869918D01*
G37*
G36*
X130379393Y-46749304D02*
G01*
X130606765Y-46843485D01*
X130616103Y-46847353D01*
X130829135Y-46989696D01*
X131010304Y-47170865D01*
X131062902Y-47249584D01*
X131152648Y-47383899D01*
X131250696Y-47620607D01*
X131300680Y-47871893D01*
X131300680Y-48128107D01*
X131250696Y-48379393D01*
X131182918Y-48543022D01*
X131152647Y-48616103D01*
X131010304Y-48829135D01*
X130829135Y-49010304D01*
X130616103Y-49152647D01*
X130616102Y-49152648D01*
X130616101Y-49152648D01*
X130379393Y-49250696D01*
X130128107Y-49300680D01*
X129871893Y-49300680D01*
X129620607Y-49250696D01*
X129383899Y-49152648D01*
X129383898Y-49152648D01*
X129383897Y-49152647D01*
X129170865Y-49010304D01*
X128989696Y-48829135D01*
X128847353Y-48616103D01*
X128817082Y-48543022D01*
X128749304Y-48379393D01*
X128699320Y-48128107D01*
X128699320Y-47871893D01*
X128749304Y-47620607D01*
X128847352Y-47383899D01*
X128937098Y-47249584D01*
X128989696Y-47170865D01*
X129170865Y-46989696D01*
X129383897Y-46847353D01*
X129393235Y-46843485D01*
X129620607Y-46749304D01*
X129871893Y-46699320D01*
X130128107Y-46699320D01*
X130379393Y-46749304D01*
G37*
G36*
X140266778Y-47080547D02*
G01*
X140433224Y-47149491D01*
X140583022Y-47249583D01*
X140710417Y-47376978D01*
X140810509Y-47526776D01*
X140879453Y-47693222D01*
X140914600Y-47869918D01*
X140914600Y-48050082D01*
X140879453Y-48226778D01*
X140810509Y-48393224D01*
X140710417Y-48543022D01*
X140583022Y-48670417D01*
X140433224Y-48770509D01*
X140266778Y-48839453D01*
X140090082Y-48874600D01*
X139909918Y-48874600D01*
X139733222Y-48839453D01*
X139566776Y-48770509D01*
X139416978Y-48670417D01*
X139289583Y-48543022D01*
X139189491Y-48393224D01*
X139120547Y-48226778D01*
X139085400Y-48050082D01*
X139085400Y-47869918D01*
X139120547Y-47693222D01*
X139189491Y-47526776D01*
X139289583Y-47376978D01*
X139416978Y-47249583D01*
X139566776Y-47149491D01*
X139733222Y-47080547D01*
X139909918Y-47045400D01*
X140090082Y-47045400D01*
X140266778Y-47080547D01*
G37*
G36*
X137726778Y-47080547D02*
G01*
X137893224Y-47149491D01*
X138043022Y-47249583D01*
X138170417Y-47376978D01*
X138270509Y-47526776D01*
X138339453Y-47693222D01*
X138374600Y-47869918D01*
X138374600Y-48050082D01*
X138339453Y-48226778D01*
X138270509Y-48393224D01*
X138170417Y-48543022D01*
X138043022Y-48670417D01*
X137893224Y-48770509D01*
X137726778Y-48839453D01*
X137550082Y-48874600D01*
X137369918Y-48874600D01*
X137193222Y-48839453D01*
X137026776Y-48770509D01*
X136876978Y-48670417D01*
X136749583Y-48543022D01*
X136649491Y-48393224D01*
X136580547Y-48226778D01*
X136545400Y-48050082D01*
X136545400Y-47869918D01*
X136580547Y-47693222D01*
X136649491Y-47526776D01*
X136749583Y-47376978D01*
X136876978Y-47249583D01*
X137026776Y-47149491D01*
X137193222Y-47080547D01*
X137369918Y-47045400D01*
X137550082Y-47045400D01*
X137726778Y-47080547D01*
G37*
G36*
X148151000Y-48151000D02*
G01*
X145849000Y-48151000D01*
X145849000Y-45849000D01*
X148151000Y-45849000D01*
X148151000Y-48151000D01*
G37*
G36*
X168009561Y-45082966D02*
G01*
X168042383Y-45092923D01*
X168072632Y-45109092D01*
X168099148Y-45130852D01*
X168120908Y-45157368D01*
X168137077Y-45187617D01*
X168147034Y-45220439D01*
X168151000Y-45260713D01*
X168151000Y-46739287D01*
X168147034Y-46779561D01*
X168137077Y-46812383D01*
X168120908Y-46842632D01*
X168099148Y-46869148D01*
X168072632Y-46890908D01*
X168042383Y-46907077D01*
X168009561Y-46917034D01*
X167969287Y-46921000D01*
X166030713Y-46921000D01*
X165990439Y-46917034D01*
X165957617Y-46907077D01*
X165927368Y-46890908D01*
X165900852Y-46869148D01*
X165879092Y-46842632D01*
X165862923Y-46812383D01*
X165852966Y-46779561D01*
X165849000Y-46739287D01*
X165849000Y-45260713D01*
X165852966Y-45220439D01*
X165862923Y-45187617D01*
X165879092Y-45157368D01*
X165900852Y-45130852D01*
X165927368Y-45109092D01*
X165957617Y-45092923D01*
X165990439Y-45082966D01*
X166030713Y-45079000D01*
X167969287Y-45079000D01*
X168009561Y-45082966D01*
G37*
G36*
X137726778Y-44540547D02*
G01*
X137893224Y-44609491D01*
X138043022Y-44709583D01*
X138170417Y-44836978D01*
X138270509Y-44986776D01*
X138339453Y-45153222D01*
X138374600Y-45329918D01*
X138374600Y-45510082D01*
X138339453Y-45686778D01*
X138270509Y-45853224D01*
X138170417Y-46003022D01*
X138043022Y-46130417D01*
X137893224Y-46230509D01*
X137726778Y-46299453D01*
X137550082Y-46334600D01*
X137369918Y-46334600D01*
X137193222Y-46299453D01*
X137026776Y-46230509D01*
X136876978Y-46130417D01*
X136749583Y-46003022D01*
X136649491Y-45853224D01*
X136580547Y-45686778D01*
X136545400Y-45510082D01*
X136545400Y-45329918D01*
X136580547Y-45153222D01*
X136649491Y-44986776D01*
X136749583Y-44836978D01*
X136876978Y-44709583D01*
X137026776Y-44609491D01*
X137193222Y-44540547D01*
X137369918Y-44505400D01*
X137550082Y-44505400D01*
X137726778Y-44540547D01*
G37*
G36*
X140266778Y-44540547D02*
G01*
X140433224Y-44609491D01*
X140583022Y-44709583D01*
X140710417Y-44836978D01*
X140810509Y-44986776D01*
X140879453Y-45153222D01*
X140914600Y-45329918D01*
X140914600Y-45510082D01*
X140879453Y-45686778D01*
X140810509Y-45853224D01*
X140710417Y-46003022D01*
X140583022Y-46130417D01*
X140433224Y-46230509D01*
X140266778Y-46299453D01*
X140090082Y-46334600D01*
X139909918Y-46334600D01*
X139733222Y-46299453D01*
X139566776Y-46230509D01*
X139416978Y-46130417D01*
X139289583Y-46003022D01*
X139189491Y-45853224D01*
X139120547Y-45686778D01*
X139085400Y-45510082D01*
X139085400Y-45329918D01*
X139120547Y-45153222D01*
X139189491Y-44986776D01*
X139289583Y-44836978D01*
X139416978Y-44709583D01*
X139566776Y-44609491D01*
X139733222Y-44540547D01*
X139909918Y-44505400D01*
X140090082Y-44505400D01*
X140266778Y-44540547D01*
G37*
G36*
X159248228Y-44181703D02*
G01*
X159403100Y-44245853D01*
X159542481Y-44338985D01*
X159661015Y-44457519D01*
X159754147Y-44596900D01*
X159818297Y-44751772D01*
X159851000Y-44916184D01*
X159851000Y-45083816D01*
X159818297Y-45248228D01*
X159754147Y-45403100D01*
X159661015Y-45542481D01*
X159542481Y-45661015D01*
X159403100Y-45754147D01*
X159248228Y-45818297D01*
X159083816Y-45851000D01*
X158916184Y-45851000D01*
X158751772Y-45818297D01*
X158596900Y-45754147D01*
X158457519Y-45661015D01*
X158338985Y-45542481D01*
X158245853Y-45403100D01*
X158181703Y-45248228D01*
X158149000Y-45083816D01*
X158149000Y-44916184D01*
X158181703Y-44751772D01*
X158245853Y-44596900D01*
X158338985Y-44457519D01*
X158457519Y-44338985D01*
X158596900Y-44245853D01*
X158751772Y-44181703D01*
X158916184Y-44149000D01*
X159083816Y-44149000D01*
X159248228Y-44181703D01*
G37*
G36*
X151628228Y-44181703D02*
G01*
X151783100Y-44245853D01*
X151922481Y-44338985D01*
X152041015Y-44457519D01*
X152134147Y-44596900D01*
X152198297Y-44751772D01*
X152231000Y-44916184D01*
X152231000Y-45083816D01*
X152198297Y-45248228D01*
X152134147Y-45403100D01*
X152041015Y-45542481D01*
X151922481Y-45661015D01*
X151783100Y-45754147D01*
X151628228Y-45818297D01*
X151463816Y-45851000D01*
X151296184Y-45851000D01*
X151131772Y-45818297D01*
X150976900Y-45754147D01*
X150837519Y-45661015D01*
X150718985Y-45542481D01*
X150625853Y-45403100D01*
X150561703Y-45248228D01*
X150529000Y-45083816D01*
X150529000Y-44916184D01*
X150561703Y-44751772D01*
X150625853Y-44596900D01*
X150718985Y-44457519D01*
X150837519Y-44338985D01*
X150976900Y-44245853D01*
X151131772Y-44181703D01*
X151296184Y-44149000D01*
X151463816Y-44149000D01*
X151628228Y-44181703D01*
G37*
G36*
X167320345Y-42543442D02*
G01*
X167410548Y-42552326D01*
X167584157Y-42604990D01*
X167744156Y-42690511D01*
X167787729Y-42726271D01*
X167884397Y-42805603D01*
X167963729Y-42902271D01*
X167999489Y-42945844D01*
X168085010Y-43105843D01*
X168137674Y-43279452D01*
X168155456Y-43460000D01*
X168137674Y-43640548D01*
X168085010Y-43814157D01*
X167999489Y-43974156D01*
X167963729Y-44017729D01*
X167884397Y-44114397D01*
X167787729Y-44193729D01*
X167744156Y-44229489D01*
X167584157Y-44315010D01*
X167410548Y-44367674D01*
X167320345Y-44376558D01*
X167275245Y-44381000D01*
X166724755Y-44381000D01*
X166679655Y-44376558D01*
X166589452Y-44367674D01*
X166415843Y-44315010D01*
X166255844Y-44229489D01*
X166212271Y-44193729D01*
X166115603Y-44114397D01*
X166036271Y-44017729D01*
X166000511Y-43974156D01*
X165914990Y-43814157D01*
X165862326Y-43640548D01*
X165844544Y-43460000D01*
X165862326Y-43279452D01*
X165914990Y-43105843D01*
X166000511Y-42945844D01*
X166036271Y-42902271D01*
X166115603Y-42805603D01*
X166212271Y-42726271D01*
X166255844Y-42690511D01*
X166415843Y-42604990D01*
X166589452Y-42552326D01*
X166679655Y-42543442D01*
X166724755Y-42539000D01*
X167275245Y-42539000D01*
X167320345Y-42543442D01*
G37*
G36*
X140266778Y-42000547D02*
G01*
X140433224Y-42069491D01*
X140583022Y-42169583D01*
X140710417Y-42296978D01*
X140810509Y-42446776D01*
X140879453Y-42613222D01*
X140914600Y-42789918D01*
X140914600Y-42970082D01*
X140879453Y-43146778D01*
X140810509Y-43313224D01*
X140710417Y-43463022D01*
X140583022Y-43590417D01*
X140433224Y-43690509D01*
X140266778Y-43759453D01*
X140090082Y-43794600D01*
X139909918Y-43794600D01*
X139733222Y-43759453D01*
X139566776Y-43690509D01*
X139416978Y-43590417D01*
X139289583Y-43463022D01*
X139189491Y-43313224D01*
X139120547Y-43146778D01*
X139085400Y-42970082D01*
X139085400Y-42789918D01*
X139120547Y-42613222D01*
X139189491Y-42446776D01*
X139289583Y-42296978D01*
X139416978Y-42169583D01*
X139566776Y-42069491D01*
X139733222Y-42000547D01*
X139909918Y-41965400D01*
X140090082Y-41965400D01*
X140266778Y-42000547D01*
G37*
G36*
X137726778Y-42000547D02*
G01*
X137893224Y-42069491D01*
X138043022Y-42169583D01*
X138170417Y-42296978D01*
X138270509Y-42446776D01*
X138339453Y-42613222D01*
X138374600Y-42789918D01*
X138374600Y-42970082D01*
X138339453Y-43146778D01*
X138270509Y-43313224D01*
X138170417Y-43463022D01*
X138043022Y-43590417D01*
X137893224Y-43690509D01*
X137726778Y-43759453D01*
X137550082Y-43794600D01*
X137369918Y-43794600D01*
X137193222Y-43759453D01*
X137026776Y-43690509D01*
X136876978Y-43590417D01*
X136749583Y-43463022D01*
X136649491Y-43313224D01*
X136580547Y-43146778D01*
X136545400Y-42970082D01*
X136545400Y-42789918D01*
X136580547Y-42613222D01*
X136649491Y-42446776D01*
X136749583Y-42296978D01*
X136876978Y-42169583D01*
X137026776Y-42069491D01*
X137193222Y-42000547D01*
X137369918Y-41965400D01*
X137550082Y-41965400D01*
X137726778Y-42000547D01*
G37*
G36*
X151604549Y-39871116D02*
G01*
X151715734Y-39893232D01*
X151925203Y-39979997D01*
X152113720Y-40105960D01*
X152274040Y-40266280D01*
X152400003Y-40454797D01*
X152486768Y-40664266D01*
X152531000Y-40886636D01*
X152531000Y-41113364D01*
X152486768Y-41335734D01*
X152400003Y-41545203D01*
X152274040Y-41733720D01*
X152113720Y-41894040D01*
X151925203Y-42020003D01*
X151715734Y-42106768D01*
X151604549Y-42128884D01*
X151493365Y-42151000D01*
X151266635Y-42151000D01*
X151155451Y-42128884D01*
X151044266Y-42106768D01*
X150834797Y-42020003D01*
X150646280Y-41894040D01*
X150485960Y-41733720D01*
X150359997Y-41545203D01*
X150273232Y-41335734D01*
X150229000Y-41113364D01*
X150229000Y-40886636D01*
X150273232Y-40664266D01*
X150359997Y-40454797D01*
X150485960Y-40266280D01*
X150646280Y-40105960D01*
X150834797Y-39979997D01*
X151044266Y-39893232D01*
X151155451Y-39871116D01*
X151266635Y-39849000D01*
X151493365Y-39849000D01*
X151604549Y-39871116D01*
G37*
G36*
X160151000Y-42151000D02*
G01*
X157849000Y-42151000D01*
X157849000Y-39849000D01*
X160151000Y-39849000D01*
X160151000Y-42151000D01*
G37*
G36*
X147224549Y-38251116D02*
G01*
X147335734Y-38273232D01*
X147545203Y-38359997D01*
X147733720Y-38485960D01*
X147894040Y-38646280D01*
X148020003Y-38834797D01*
X148106768Y-39044266D01*
X148151000Y-39266636D01*
X148151000Y-39493364D01*
X148106768Y-39715734D01*
X148020003Y-39925203D01*
X147894040Y-40113720D01*
X147733720Y-40274040D01*
X147545203Y-40400003D01*
X147335734Y-40486768D01*
X147224549Y-40508884D01*
X147113365Y-40531000D01*
X146886635Y-40531000D01*
X146775451Y-40508884D01*
X146664266Y-40486768D01*
X146454797Y-40400003D01*
X146266280Y-40274040D01*
X146105960Y-40113720D01*
X145979997Y-39925203D01*
X145893232Y-39715734D01*
X145849000Y-39493364D01*
X145849000Y-39266636D01*
X145893232Y-39044266D01*
X145979997Y-38834797D01*
X146105960Y-38646280D01*
X146266280Y-38485960D01*
X146454797Y-38359997D01*
X146664266Y-38273232D01*
X146775451Y-38251116D01*
X146886635Y-38229000D01*
X147113365Y-38229000D01*
X147224549Y-38251116D01*
G37*
G36*
X169375256Y-35391298D02*
G01*
X169481579Y-35412447D01*
X169782042Y-35536903D01*
X170052451Y-35717585D01*
X170282415Y-35947549D01*
X170463097Y-36217958D01*
X170562327Y-36457519D01*
X170587553Y-36518422D01*
X170651000Y-36837389D01*
X170651000Y-37162611D01*
X170633969Y-37248229D01*
X170587553Y-37481579D01*
X170463097Y-37782042D01*
X170282415Y-38052451D01*
X170052451Y-38282415D01*
X169782042Y-38463097D01*
X169481579Y-38587553D01*
X169375256Y-38608702D01*
X169162611Y-38651000D01*
X168837389Y-38651000D01*
X168624744Y-38608702D01*
X168518421Y-38587553D01*
X168217958Y-38463097D01*
X167947549Y-38282415D01*
X167717585Y-38052451D01*
X167536903Y-37782042D01*
X167412447Y-37481579D01*
X167366031Y-37248229D01*
X167349000Y-37162611D01*
X167349000Y-36837389D01*
X167412447Y-36518422D01*
X167437674Y-36457519D01*
X167536903Y-36217958D01*
X167717585Y-35947549D01*
X167947549Y-35717585D01*
X168217958Y-35536903D01*
X168518421Y-35412447D01*
X168624744Y-35391298D01*
X168837389Y-35349000D01*
X169162611Y-35349000D01*
X169375256Y-35391298D01*
G37*
G36*
X130375256Y-35391298D02*
G01*
X130481579Y-35412447D01*
X130782042Y-35536903D01*
X131052451Y-35717585D01*
X131282415Y-35947549D01*
X131463097Y-36217958D01*
X131562327Y-36457519D01*
X131587553Y-36518422D01*
X131651000Y-36837389D01*
X131651000Y-37162611D01*
X131633969Y-37248229D01*
X131587553Y-37481579D01*
X131463097Y-37782042D01*
X131282415Y-38052451D01*
X131052451Y-38282415D01*
X130782042Y-38463097D01*
X130481579Y-38587553D01*
X130375256Y-38608702D01*
X130162611Y-38651000D01*
X129837389Y-38651000D01*
X129624744Y-38608702D01*
X129518421Y-38587553D01*
X129217958Y-38463097D01*
X128947549Y-38282415D01*
X128717585Y-38052451D01*
X128536903Y-37782042D01*
X128412447Y-37481579D01*
X128366031Y-37248229D01*
X128349000Y-37162611D01*
X128349000Y-36837389D01*
X128412447Y-36518422D01*
X128437674Y-36457519D01*
X128536903Y-36217958D01*
X128717585Y-35947549D01*
X128947549Y-35717585D01*
X129217958Y-35536903D01*
X129518421Y-35412447D01*
X129624744Y-35391298D01*
X129837389Y-35349000D01*
X130162611Y-35349000D01*
X130375256Y-35391298D01*
G37*
G36*
X151628228Y-36181703D02*
G01*
X151783100Y-36245853D01*
X151922481Y-36338985D01*
X152041015Y-36457519D01*
X152134147Y-36596900D01*
X152198297Y-36751772D01*
X152231000Y-36916184D01*
X152231000Y-37083816D01*
X152198297Y-37248228D01*
X152134147Y-37403100D01*
X152041015Y-37542481D01*
X151922481Y-37661015D01*
X151783100Y-37754147D01*
X151628228Y-37818297D01*
X151463816Y-37851000D01*
X151296184Y-37851000D01*
X151131772Y-37818297D01*
X150976900Y-37754147D01*
X150837519Y-37661015D01*
X150718985Y-37542481D01*
X150625853Y-37403100D01*
X150561703Y-37248228D01*
X150529000Y-37083816D01*
X150529000Y-36916184D01*
X150561703Y-36751772D01*
X150625853Y-36596900D01*
X150718985Y-36457519D01*
X150837519Y-36338985D01*
X150976900Y-36245853D01*
X151131772Y-36181703D01*
X151296184Y-36149000D01*
X151463816Y-36149000D01*
X151628228Y-36181703D01*
G37*
G36*
X159248228Y-36181703D02*
G01*
X159403100Y-36245853D01*
X159542481Y-36338985D01*
X159661015Y-36457519D01*
X159754147Y-36596900D01*
X159818297Y-36751772D01*
X159851000Y-36916184D01*
X159851000Y-37083816D01*
X159818297Y-37248228D01*
X159754147Y-37403100D01*
X159661015Y-37542481D01*
X159542481Y-37661015D01*
X159403100Y-37754147D01*
X159248228Y-37818297D01*
X159083816Y-37851000D01*
X158916184Y-37851000D01*
X158751772Y-37818297D01*
X158596900Y-37754147D01*
X158457519Y-37661015D01*
X158338985Y-37542481D01*
X158245853Y-37403100D01*
X158181703Y-37248228D01*
X158149000Y-37083816D01*
X158149000Y-36916184D01*
X158181703Y-36751772D01*
X158245853Y-36596900D01*
X158338985Y-36457519D01*
X158457519Y-36338985D01*
X158596900Y-36245853D01*
X158751772Y-36181703D01*
X158916184Y-36149000D01*
X159083816Y-36149000D01*
X159248228Y-36181703D01*
G37*
M02*
